<svg width="48" height="48" viewBox="0 0 48 48" fill="none" xmlns="http://www.w3.org/2000/svg">
<path d="M47.9173 17.5925C47.9139 15.3886 47.0369 13.276 45.4786 11.7177C43.9202 10.1593 41.8076 9.28234 39.6037 9.27897C39.381 9.27897 39.1582 9.27897 38.9672 9.27897C37.8972 7.94363 36.5408 6.86581 34.9983 6.12517C33.4557 5.38453 31.7665 5 30.0553 5C28.3442 5 26.6549 5.38453 25.1124 6.12517C23.5698 6.86581 22.2134 7.94363 21.1434 9.27897C20.9207 9.27897 20.6979 9.27897 20.4687 9.27897C18.271 9.29074 16.1672 10.1716 14.6167 11.7292C13.0662 13.2869 12.195 15.3947 12.1934 17.5925C12.2012 18.0624 12.2481 18.5308 12.3334 18.9929C12.2825 19.0566 12.2188 19.1202 12.1743 19.1839C11.6868 19.1183 11.1957 19.0843 10.7038 19.082C9.31077 19.0476 7.9249 19.2923 6.62784 19.8016C5.33077 20.311 4.14872 21.0747 3.15129 22.0478C2.15386 23.0209 1.36121 24.1837 0.820008 25.4678C0.278808 26.7519 0 28.1313 0 29.5248C0 30.9183 0.278808 32.2977 0.820008 33.5818C1.36121 34.8659 2.15386 36.0288 3.15129 37.0019C4.14872 37.975 5.33077 38.7387 6.62784 39.248C7.9249 39.7574 9.31077 40.002 10.7038 39.9676C11.968 39.9696 13.2217 39.7387 14.4023 39.2865C17.0916 41.6494 20.549 42.9525 24.1289 42.9525C27.7088 42.9525 31.1663 41.6494 33.8556 39.2865C35.036 39.7393 36.2898 39.9702 37.554 39.9676C40.3228 39.9659 42.9779 38.8657 44.9363 36.9085C46.8948 34.9512 47.9966 32.2968 48 29.528C47.9997 27.2182 47.2216 24.9759 45.7911 23.1624C47.1673 21.6344 47.9252 19.6488 47.9173 17.5925ZM37.4713 37.0203C35.9361 37.0177 34.4395 36.5396 33.1872 35.6517C32.0795 37.0129 30.682 38.1096 29.0965 38.8618C27.511 39.614 25.7776 40.0028 24.0227 39.9997C22.2678 39.9967 20.5357 39.6019 18.9528 38.8442C17.37 38.0864 15.9762 36.9849 14.8733 35.6199C13.8139 36.3649 12.5786 36.8209 11.2892 36.9432C9.99985 37.0654 8.70089 36.8496 7.52033 36.3169C6.33976 35.7843 5.31834 34.9533 4.55672 33.9058C3.79509 32.8582 3.31955 31.6303 3.17694 30.3431C3.03433 29.0558 3.22958 27.7536 3.74345 26.5647C4.25732 25.3759 5.07207 24.3415 6.10743 23.5634C7.14278 22.7852 8.36301 22.2903 9.64786 22.1274C10.9327 21.9644 12.2379 22.139 13.4347 22.634C13.4856 22.5322 13.5493 22.4431 13.6002 22.3476C14.1155 21.3951 14.7579 20.517 15.5099 19.7377C16.6054 18.5879 17.9228 17.6723 19.3824 17.0465C20.842 16.4206 22.4135 16.0975 24.0016 16.0965C26.201 16.0989 28.3566 16.7111 30.2289 17.8653C32.1011 19.0194 33.6165 20.6702 34.6067 22.634C35.1439 22.4211 35.7034 22.2695 36.2745 22.1821L37.4458 22.0675C39.4287 22.0641 41.3317 22.8486 42.7362 24.2483C44.1406 25.648 44.9316 27.5483 44.935 29.5312C44.9383 31.5141 44.1539 33.4171 42.7542 34.8215C41.3545 36.226 39.4541 37.017 37.4713 37.0203ZM43.5886 21.1063C41.8156 19.8009 39.673 19.0941 37.4713 19.0884C36.9794 19.0904 36.4882 19.1244 36.0008 19.1902C33.6935 16.0282 30.2257 13.9111 26.3588 13.3036C22.4919 12.6961 18.5419 13.6479 15.3762 15.9501C15.7204 14.8831 16.3935 13.9523 17.2992 13.2914C18.2049 12.6304 19.2966 12.2731 20.4178 12.2708C21.1146 12.2678 21.805 12.4041 22.4484 12.6718C23.1519 11.2689 24.2318 10.0893 25.5673 9.26503C26.9028 8.44071 28.4413 8.00414 30.0108 8.00414C31.5802 8.00414 33.1187 8.44071 34.4542 9.26503C35.7897 10.0893 36.8696 11.2689 37.5731 12.6718C38.6838 12.2109 39.9179 12.1402 41.074 12.4714C42.23 12.8025 43.2396 13.5158 43.9379 14.4948C44.6361 15.4739 44.9818 16.6607 44.9183 17.8616C44.8549 19.0624 44.3861 20.2063 43.5886 21.1063Z" />
</svg>
