<svg width="48" height="48" viewBox="0 0 48 48" fill="none" xmlns="http://www.w3.org/2000/svg">
<path fill-rule="evenodd" clip-rule="evenodd" d="M16.8538 14.1141C16.8538 15.9858 17.6067 17.7808 18.9469 19.1042C20.287 20.4277 22.1047 21.1712 24 21.1712C25.8953 21.1712 27.713 20.4277 29.0531 19.1042C30.3933 17.7808 31.1462 15.9858 31.1462 14.1141C31.1462 10.2077 24 0 24 0C24 0 16.8538 10.2077 16.8538 14.1141Z"/>
<path fill-rule="evenodd" clip-rule="evenodd" d="M0 40.9429C0 42.8146 0.752901 44.6096 2.09307 45.933C3.43324 47.2565 5.25091 48 7.1462 48C9.04148 48 10.8591 47.2565 12.1993 45.933C13.5395 44.6096 14.2924 42.8146 14.2924 40.9429C14.2924 37.044 7.1462 26.8288 7.1462 26.8288C7.1462 26.8288 0 37.044 0 40.9429Z"/>
<path fill-rule="evenodd" clip-rule="evenodd" d="M40.8538 26.8288C40.8538 26.8288 33.7076 37.044 33.7076 40.9429C33.7076 42.8146 34.4605 44.6096 35.8007 45.933C37.1409 47.2565 38.9585 48 40.8538 48C42.7491 48 44.5668 47.2565 45.9069 45.933C47.2471 44.6096 48 42.8146 48 40.9429C48 37.044 40.8538 26.8288 40.8538 26.8288Z" />
</svg>
