<svg width="48" height="48" viewBox="0 0 48 48" fill="none" xmlns="http://www.w3.org/2000/svg">
<path d="M30 24C30 27.3137 27.3137 30 24 30C20.6863 30 18 27.3137 18 24C18 20.6863 20.6863 18 24 18C27.3137 18 30 20.6863 30 24Z" />
<path d="M37.5564 10.1213C32.2531 13.539 22 21.435 22 21.435L26.2426 25.6777L37.5564 10.1213Z"/>
<path d="M43 24C43 26.4951 42.5085 28.9658 41.5537 31.271C40.5989 33.5762 39.1993 35.6707 37.435 37.435C35.6707 39.1993 33.5762 40.5989 31.271 41.5537C28.9658 42.5085 26.4951 43 24 43C21.5049 43 19.0342 42.5085 16.729 41.5537C14.4238 40.5989 12.3293 39.1993 10.565 37.435C8.80066 35.6707 7.40113 33.5762 6.44629 31.271C5.49145 28.9658 5 26.4951 5 24L16.2829 24C16.2829 25.0134 16.4825 26.0169 16.8703 26.9532C17.2581 27.8895 17.8266 28.7402 18.5432 29.4568C19.2598 30.1734 20.1105 30.7419 21.0468 31.1297C21.9831 31.5175 22.9866 31.7171 24 31.7171C25.0134 31.7171 26.0169 31.5175 26.9532 31.1297C27.8895 30.7419 28.7402 30.1734 29.4568 29.4568C30.1734 28.7402 30.7419 27.8895 31.1297 26.9532C31.5175 26.0169 31.7171 25.0134 31.7171 24H43Z" />
<path fill-rule="evenodd" clip-rule="evenodd" d="M24 48C37.2548 48 48 37.2548 48 24C48 10.7452 37.2548 0 24 0C10.7452 0 0 10.7452 0 24C0 37.2548 10.7452 48 24 48ZM24 45C35.598 45 45 35.598 45 24C45 12.402 35.598 3 24 3C12.402 3 3 12.402 3 24C3 35.598 12.402 45 24 45Z" />
</svg>
