<svg width="48" height="48" viewBox="0 0 48 48" fill="none" xmlns="http://www.w3.org/2000/svg">
<path d="M42.464 14.4941C40.9952 14.4941 39.5864 15.0772 38.5472 16.1152C37.508 17.1532 36.9233 18.5613 36.9216 20.0301C36.928 20.6594 37.0427 21.2829 37.2608 21.8733H1.8432C1.3723 21.901 0.929787 22.1077 0.606187 22.4509C0.282587 22.7941 0.102353 23.248 0.102353 23.7197C0.102353 24.1914 0.282587 24.6453 0.606187 24.9885C0.929787 25.3318 1.3723 25.5384 1.8432 25.5661H42.464C43.191 25.5661 43.9109 25.4229 44.5825 25.1447C45.2542 24.8665 45.8645 24.4587 46.3785 23.9446C46.8926 23.4306 47.3004 22.8203 47.5786 22.1486C47.8568 21.477 48 20.7571 48 20.0301C48 19.3031 47.8568 18.5832 47.5786 17.9116C47.3004 17.2399 46.8926 16.6296 46.3785 16.1156C45.8645 15.6015 45.2542 15.1937 44.5825 14.9155C43.9109 14.6373 43.191 14.4941 42.464 14.4941Z" />
<path d="M1.8432 18.1869H24C25.1914 18.1992 26.3556 17.8307 27.323 17.1351C28.2904 16.4396 29.0104 15.4533 29.3782 14.32C29.7459 13.1867 29.7421 11.9656 29.3674 10.8345C28.9927 9.7035 28.2667 8.72166 27.295 8.03206C26.3234 7.34247 25.1569 6.98116 23.9656 7.00076C22.7743 7.02036 21.6204 7.41985 20.6719 8.14104C19.7235 8.86222 19.0301 9.86742 18.6928 11.0102C18.3556 12.1529 18.392 13.3735 18.7968 14.4941H1.8432C1.3723 14.5218 0.929787 14.7284 0.606187 15.0717C0.282587 15.4149 0.102353 15.8688 0.102353 16.3405C0.102353 16.8122 0.282587 17.2661 0.606187 17.6093C0.929787 17.9526 1.3723 18.1592 1.8432 18.1869Z" />
<path d="M31.3856 29.2589C31.2768 29.2589 31.168 29.2589 31.0656 29.2909C30.9632 29.3229 30.9312 29.2589 30.8544 29.2589H2.3744C1.0624 29.2589 0 30.0845 0 31.1085C0 32.1325 1.0624 32.9517 2.3744 32.9517H26.1824C25.7939 34.0578 25.7674 35.2587 26.1067 36.3808C26.4461 37.503 27.1336 38.488 28.0699 39.1934C29.0062 39.8988 30.1427 40.2881 31.3149 40.3047C32.4871 40.3214 33.6341 39.9647 34.5901 39.2862C35.5461 38.6077 36.2615 37.6427 36.6326 36.5307C37.0037 35.4187 37.0114 34.2174 36.6545 33.1008C36.2977 31.9841 35.5948 31.01 34.6476 30.3193C33.7003 29.6286 32.5579 29.2572 31.3856 29.2589Z" />
</svg>
