<svg width="48" height="48" viewBox="0 0 48 48" fill="none" xmlns="http://www.w3.org/2000/svg">
<path fill-rule="evenodd" clip-rule="evenodd" d="M37.2955 8.96703C36.8034 8.96823 36.312 9.0044 35.825 9.07526C34.4512 7.19295 32.6523 5.66163 30.5748 4.60594C28.4974 3.55024 26.2 3 23.8696 3C21.5393 3 19.2419 3.55024 17.1644 4.60594C15.0869 5.66163 13.2881 7.19295 11.9143 9.07526C10.3374 8.85037 8.72998 8.98927 7.21505 9.48132C5.70013 9.97338 4.31787 10.8055 3.17411 11.9141C2.03035 13.0227 1.15541 14.3783 0.616262 15.8771C0.0771159 17.3759 -0.111937 18.9782 0.0635766 20.5613C0.23909 22.1445 0.774516 23.6664 1.62887 25.0108C2.48322 26.3551 3.63384 27.4861 4.99264 28.3172C6.35145 29.1483 7.88241 29.6575 9.46832 29.8058C11.0542 29.9541 12.6531 29.7375 14.1424 29.1727C16.8302 31.5366 20.2871 32.8404 23.8664 32.8404C27.4458 32.8404 30.9027 31.5366 33.5905 29.1727C34.7733 29.6249 36.0292 29.8558 37.2955 29.8539C38.6887 29.8883 40.0746 29.6436 41.3718 29.1342C42.6689 28.6249 43.851 27.8611 44.8485 26.8879C45.846 25.9148 46.6387 24.7519 47.1799 23.4677C47.7212 22.1835 48 20.804 48 19.4105C48 18.0169 47.7212 16.6374 47.1799 15.3532C46.6387 14.0691 45.846 12.9061 44.8485 11.933C43.851 10.9598 42.6689 10.1961 41.3718 9.68669C40.0746 9.17732 38.6887 8.93263 37.2955 8.96703ZM37.2955 26.8746C35.7603 26.872 34.2636 26.3939 33.0112 25.5059C31.9063 26.8644 30.5125 27.9596 28.9312 28.7118C27.3498 29.4639 25.6207 29.8542 23.8696 29.8542C22.1185 29.8542 20.3894 29.4639 18.8081 28.7118C17.2268 27.9596 15.833 26.8644 14.7281 25.5059C13.7696 26.1797 12.6658 26.618 11.5062 26.7854C10.3466 26.9528 9.16389 26.8445 8.05399 26.4693C6.94409 26.0941 5.93824 25.4626 5.11804 24.626C4.29783 23.7894 3.68636 22.7713 3.33323 21.6542C2.9801 20.5371 2.89525 19.3524 3.08556 18.1964C3.27587 17.0404 3.73598 15.9454 4.42857 15.0005C5.12116 14.0555 6.02673 13.2871 7.07184 12.7576C8.11694 12.228 9.27214 11.9523 10.4437 11.9527C11.4162 11.9524 12.3791 12.1449 13.2766 12.5193C14.2619 10.5548 15.7741 8.90315 17.6443 7.74893C19.5144 6.5947 21.6688 5.98341 23.8664 5.98341C26.0641 5.98341 28.2185 6.5947 30.0886 7.74893C31.9588 8.90315 33.471 10.5548 34.4563 12.5193C35.4761 12.0974 36.5767 11.9071 37.679 11.9619C38.7812 12.0168 39.8575 12.3154 40.8304 12.8364C41.8033 13.3574 42.6484 14.0877 43.305 14.9748C43.9616 15.8618 44.4132 16.8834 44.6273 17.966C44.8415 19.0487 44.8128 20.1653 44.5433 21.2355C44.2738 22.3057 43.7703 23.3027 43.069 24.1548C42.3677 25.007 41.4861 25.6929 40.4877 26.1632C39.4894 26.6335 38.3991 26.8765 37.2955 26.8746Z" fill="#1E293D"/>
<path d="M4 38.5V35H44V38.5H4Z" fill="#1E293D"/>
<path d="M8 44.5V41H40V44.5H8Z" fill="#1E293D"/>
</svg>
