<svg width="49" height="49" viewBox="0 0 49 49" fill="none" xmlns="http://www.w3.org/2000/svg">
<path fill-rule="evenodd" clip-rule="evenodd" d="M38.159 6.62739C37.6697 6.62646 37.1809 6.66015 36.6964 6.72819C35.33 4.86522 33.5409 3.34963 31.4746 2.30478C29.4084 1.25992 27.1234 0.715332 24.8057 0.715332C22.4879 0.715332 20.2029 1.25992 18.1367 2.30478C16.0704 3.34963 14.2813 4.86522 12.9149 6.72819C12.4304 6.6597 11.9416 6.62601 11.4523 6.62739C10.0667 6.59334 8.68822 6.83552 7.39809 7.33965C6.10795 7.84379 4.93222 8.5997 3.94012 9.56287C2.94801 10.526 2.1596 11.677 1.62129 12.948C1.08298 14.219 0.805664 15.5843 0.805664 16.9636C0.805664 18.3428 1.08298 19.7081 1.62129 20.9791C2.1596 22.2501 2.94801 23.4011 3.94012 24.3642C4.93222 25.3274 6.10795 26.0833 7.39809 26.5875C8.68822 27.0916 10.0667 27.3338 11.4523 27.2997C12.7109 27.2957 13.958 27.0607 15.131 26.6067C17.8059 28.9454 21.2449 30.2352 24.8057 30.2352C28.3664 30.2352 31.8054 28.9454 34.4804 26.6067C35.6546 27.0543 36.9016 27.2828 38.159 27.2808C39.5446 27.3149 40.9231 27.0727 42.2132 26.5686C43.5034 26.0644 44.6791 25.3085 45.6712 24.3453C46.6633 23.3822 47.4517 22.2312 47.99 20.9602C48.5283 19.6892 48.8057 18.3239 48.8057 16.9447C48.8057 15.5654 48.5283 14.2001 47.99 12.9291C47.4517 11.6581 46.6633 10.5071 45.6712 9.54397C44.6791 8.5808 43.5034 7.82489 42.2132 7.32075C40.9231 6.81661 39.5446 6.57444 38.159 6.60848V6.62739ZM38.159 24.3447C36.6347 24.3444 35.148 23.8733 33.9042 22.9964C32.8046 24.3411 31.4178 25.425 29.8445 26.1695C28.2712 26.914 26.551 27.3002 24.8088 27.3002C23.0667 27.3002 21.3465 26.914 19.7732 26.1695C18.1999 25.425 16.813 24.3411 15.7135 22.9964C14.66 23.7341 13.4316 24.186 12.1492 24.3075C10.8669 24.429 9.5748 24.2159 8.40038 23.6893C7.22595 23.1626 6.20967 22.3406 5.45167 21.3042C4.69367 20.2677 4.22011 19.0526 4.07765 17.7786C3.93519 16.5046 4.12874 15.2157 4.63924 14.0388C5.14974 12.8619 5.95956 11.8376 6.98893 11.067C8.01829 10.2963 9.23167 9.80579 10.5095 9.6438C11.7873 9.48181 13.0855 9.6539 14.2762 10.1431C15.2551 8.19861 16.7585 6.56352 18.6181 5.42083C20.4776 4.27814 22.6201 3.67293 24.8057 3.67293C26.9912 3.67293 29.1337 4.27814 30.9933 5.42083C32.8529 6.56352 34.3562 8.19861 35.3351 10.1431C36.3482 9.72858 37.4409 9.54253 38.5348 9.59836C39.6287 9.6542 40.6966 9.95053 41.6617 10.466C42.6268 10.9816 43.4651 11.7035 44.1164 12.5799C44.7676 13.4562 45.2157 14.4653 45.4283 15.5346C45.6409 16.6038 45.6128 17.7067 45.346 18.7638C45.0792 19.821 44.5803 20.8062 43.8853 21.6486C43.1902 22.491 42.3162 23.1697 41.3261 23.6359C40.336 24.1021 39.2544 24.3441 38.159 24.3447Z" fill="#1E293D"/>
<path d="M6.08301 38.4201L2.96786 33.9908L6.08301 29.5615L9.19816 33.9908L6.08301 38.4201Z" fill="#1E293D"/>
<path d="M15.4474 43.0387L12.3322 38.6094L15.4474 34.18L18.5625 38.6094L15.4474 43.0387Z" fill="#1E293D"/>
<path d="M24.8056 48.7153L21.6904 44.286L24.8056 39.8504L27.9207 44.286L24.8056 48.7153Z" fill="#1E293D"/>
<path d="M34.1701 43.0387L31.0487 38.6094L34.1701 34.18L37.2853 38.6094L34.1701 43.0387Z" fill="#1E293D"/>
<path d="M43.5281 38.4201L40.413 33.9908L43.5281 29.5615L46.6433 33.9908L43.5281 38.4201Z" fill="#1E293D"/>
</svg>
