<svg width="48" height="48" viewBox="0 0 48 48" fill="none" xmlns="http://www.w3.org/2000/svg">
<path fill-rule="evenodd" clip-rule="evenodd" d="M48 16.0649C47.9966 13.3538 46.8894 10.7546 44.9212 8.83755C42.9531 6.92047 40.2847 5.84201 37.5013 5.83872C37.0068 5.83736 36.5129 5.87068 36.0234 5.93842C34.641 4.09816 32.8326 2.60136 30.745 1.56955C28.6574 0.537735 26.3494 0 24.0084 0C21.6673 0 19.3593 0.537735 17.2717 1.56955C15.1841 2.60136 13.3757 4.09816 11.9933 5.93842C10.4069 5.71617 8.78926 5.85068 7.26443 6.33162C5.73961 6.81256 4.34807 7.62718 3.19649 8.71303C2.04491 9.79888 1.16386 11.1271 0.62086 12.596C0.0778623 14.0648 -0.112661 15.6353 0.0638928 17.1869C0.240447 18.7386 0.779391 20.2303 1.63942 21.5477C2.49944 22.8651 3.65771 23.9732 5.02545 24.7871C6.39319 25.601 7.93408 26.099 9.53002 26.2431C11.126 26.3871 12.7346 26.1733 14.2326 25.6181C16.9355 27.9313 20.4104 29.207 24.0084 29.207C27.6063 29.207 31.0813 27.9313 33.7841 25.6181C35.3723 26.2069 37.0836 26.4109 38.7707 26.2125C40.4578 26.0141 42.0701 25.4194 43.4688 24.4794C44.8675 23.5395 46.0108 22.2825 46.8001 20.8166C47.5895 19.3508 48.0012 17.7201 48 16.0649ZM33.1956 22.0287C32.0845 23.3586 30.6832 24.4307 29.0934 25.167C27.5037 25.9034 25.7655 26.2854 24.0052 26.2854C22.2448 26.2854 20.5066 25.9034 18.9169 25.167C17.3271 24.4307 15.9258 23.3586 14.8148 22.0287C13.7503 22.7583 12.509 23.2052 11.2133 23.3254C9.9175 23.4456 8.61194 23.2348 7.42524 22.714C6.23854 22.1931 5.21164 21.38 4.44572 20.3549C3.6798 19.3298 3.20129 18.128 3.05734 16.868C2.91339 15.6079 3.10897 14.3331 3.6248 13.169C4.14064 12.005 4.95892 10.992 5.99904 10.2297C7.03916 9.46748 8.26522 8.98235 9.55641 8.82213C10.8476 8.66191 12.1594 8.83212 13.3625 9.316C14.3526 7.39301 15.8724 5.77618 17.7519 4.64631C19.6314 3.51643 21.7965 2.91804 24.0052 2.91804C26.2138 2.91804 28.3789 3.51643 30.2584 4.64631C32.1379 5.77618 33.6577 7.39301 34.6478 9.316C35.8521 8.82952 37.1658 8.6573 38.4592 8.81631C39.7527 8.97533 40.9813 9.46009 42.0237 10.2228C43.0661 10.9854 43.8863 11.9997 44.4034 13.1654C44.9205 14.3311 45.1167 15.608 44.9725 16.8701C44.8283 18.1322 44.3488 19.3358 43.5812 20.3623C42.8137 21.3888 41.7846 22.2026 40.5956 22.7234C39.4066 23.2442 38.0987 23.4541 36.8009 23.3322C35.5032 23.2104 34.2606 22.7611 33.1956 22.0287Z" fill="#1E293D"/>
<path fill-rule="evenodd" clip-rule="evenodd" d="M19.6005 36.3057C19.6778 36.2656 19.7459 36.2105 19.8005 36.1437C19.855 36.077 19.8949 36.0001 19.9177 35.9177C19.9405 35.8353 19.9457 35.7493 19.933 35.6648C19.9202 35.5804 19.8898 35.4995 19.8436 35.427L19.0951 34.1807H20.5922C20.767 34.1807 20.9346 34.113 21.0581 33.9927C21.1817 33.8723 21.2512 33.709 21.2512 33.5388C21.2512 33.3686 21.1817 33.2053 21.0581 33.0849C20.9346 32.9645 20.767 32.8969 20.5922 32.8969H19.0951L19.8436 31.6506C19.8898 31.5781 19.9202 31.4971 19.933 31.4127C19.9457 31.3283 19.9405 31.2423 19.9177 31.1599C19.8949 31.0775 19.855 31.0006 19.8005 30.9338C19.7459 30.8671 19.6778 30.812 19.6005 30.7719C19.5261 30.7269 19.443 30.6973 19.3563 30.6849C19.2697 30.6725 19.1813 30.6775 19.0968 30.6997C19.0122 30.7219 18.9332 30.7608 18.8647 30.814C18.7962 30.8671 18.7396 30.9334 18.6984 31.0087L17.9563 32.2551L17.2078 31.0087C17.1229 30.8608 16.9812 30.7518 16.8139 30.7056C16.6465 30.6594 16.4671 30.6799 16.3153 30.7626C16.1634 30.8452 16.0515 30.9832 16.0041 31.1462C15.9567 31.3093 15.9777 31.484 16.0626 31.6319L16.8111 32.8782H15.314C15.1392 32.8782 14.9716 32.9459 14.8481 33.0662C14.7245 33.1866 14.6551 33.3499 14.6551 33.5201C14.6551 33.6903 14.7245 33.8536 14.8481 33.974C14.9716 34.0943 15.1392 34.162 15.314 34.162H16.8111L16.0626 35.4083C15.9777 35.5562 15.9567 35.7309 16.0041 35.8939C16.0515 36.057 16.1634 36.195 16.3153 36.2776C16.4671 36.3603 16.6465 36.3807 16.8139 36.3346C16.9812 36.2884 17.1229 36.1794 17.2078 36.0315L17.9563 34.7851L18.6984 36.0315C18.7361 36.1099 18.7901 36.1799 18.8571 36.2368C18.9241 36.2938 19.0025 36.3366 19.0874 36.3624C19.1723 36.3882 19.2617 36.3964 19.3501 36.3867C19.4384 36.3769 19.5237 36.3493 19.6005 36.3057Z" fill="#1E293D"/>
<path fill-rule="evenodd" clip-rule="evenodd" d="M14.5395 39.8888H13.0424L13.791 38.6424C13.8758 38.4945 13.8968 38.3198 13.8494 38.1568C13.8021 37.9938 13.6901 37.8558 13.5383 37.7731C13.3864 37.6905 13.207 37.67 13.0397 37.7161C12.8723 37.7623 12.7306 37.8713 12.6458 38.0193L11.8972 39.2656L11.1487 38.0193C11.1067 37.9464 11.0504 37.8824 10.9829 37.8307C10.9155 37.7791 10.8383 37.7409 10.7557 37.7183C10.6731 37.6958 10.5868 37.6893 10.5016 37.6992C10.4165 37.7091 10.3342 37.7353 10.2594 37.7762C10.1846 37.8171 10.1189 37.872 10.0658 37.9377C10.0128 38.0034 9.97363 38.0786 9.95046 38.159C9.92729 38.2394 9.92061 38.3235 9.93081 38.4065C9.941 38.4894 9.96787 38.5696 10.0099 38.6424L10.7584 39.8888H9.29333C9.11856 39.8888 8.95095 39.9564 8.82737 40.0768C8.70379 40.1971 8.63436 40.3604 8.63436 40.5306C8.63436 40.7009 8.70379 40.8641 8.82737 40.9845C8.95095 41.1049 9.11856 41.1725 9.29333 41.1725H10.7904L10.0419 42.4188C9.95703 42.5659 9.93566 42.7398 9.98245 42.9023C10.0292 43.0647 10.1404 43.2024 10.2914 43.285C10.4424 43.3677 10.6209 43.3885 10.7877 43.3429C10.9545 43.2973 11.0958 43.1891 11.1807 43.042L11.9292 41.7957L12.6778 43.042C12.7626 43.1899 12.9043 43.299 13.0717 43.3451C13.239 43.3913 13.4184 43.3708 13.5702 43.2882C13.7221 43.2055 13.834 43.0675 13.8814 42.9045C13.9288 42.7415 13.9078 42.5668 13.823 42.4188L13.0744 41.1725H14.5395C14.7143 41.1725 14.8819 41.1049 15.0055 40.9845C15.129 40.8641 15.1985 40.7009 15.1985 40.5306C15.1985 40.3604 15.129 40.1971 15.0055 40.0768C14.8819 39.9564 14.7143 39.8888 14.5395 39.8888Z" fill="#1E293D"/>
<path fill-rule="evenodd" clip-rule="evenodd" d="M40.0476 39.8888H38.5506L39.2991 38.6424C39.3839 38.4945 39.405 38.3198 39.3576 38.1568C39.3102 37.9938 39.1982 37.8558 39.0464 37.7731C38.8945 37.6905 38.7152 37.67 38.5478 37.7161C38.3804 37.7623 38.2387 37.8713 38.1539 38.0193L37.4054 39.2656L36.6632 38.0193C36.5784 37.8713 36.4367 37.7623 36.2693 37.7161C36.1019 37.67 35.9226 37.6905 35.7707 37.7731C35.6189 37.8558 35.5069 37.9938 35.4595 38.1568C35.4121 38.3198 35.4332 38.4945 35.518 38.6424L36.2666 39.8888H34.7695C34.5947 39.8888 34.4271 39.9564 34.3035 40.0768C34.1799 40.1971 34.1105 40.3604 34.1105 40.5306C34.1105 40.7009 34.1799 40.8641 34.3035 40.9845C34.4271 41.1049 34.5947 41.1725 34.7695 41.1725H36.2666L35.518 42.4188C35.4729 42.4911 35.4433 42.5715 35.4312 42.6553C35.419 42.739 35.4244 42.8243 35.4472 42.9059C35.4699 42.9875 35.5095 43.0638 35.5635 43.1301C35.6174 43.1963 35.6847 43.2512 35.7611 43.2913C35.8352 43.3365 35.9179 43.3665 36.0043 43.3793C36.0907 43.3922 36.1789 43.3877 36.2634 43.3661C36.3479 43.3445 36.427 43.3062 36.4958 43.2537C36.5645 43.2012 36.6215 43.1355 36.6632 43.0607L37.4054 41.8144L38.1539 43.0607C38.1956 43.1355 38.2526 43.2012 38.3214 43.2537C38.3901 43.3062 38.4692 43.3445 38.5537 43.3661C38.6383 43.3877 38.7264 43.3922 38.8128 43.3793C38.8992 43.3665 38.9819 43.3365 39.056 43.2913C39.1324 43.2512 39.1997 43.1963 39.2537 43.1301C39.3076 43.0638 39.3472 42.9875 39.3699 42.9059C39.3927 42.8243 39.3981 42.739 39.386 42.6553C39.3738 42.5715 39.3442 42.4911 39.2991 42.4188L38.5506 41.1725H40.0476C40.2224 41.1725 40.39 41.1049 40.5136 40.9845C40.6372 40.8641 40.7066 40.7009 40.7066 40.5306C40.7066 40.3604 40.6372 40.1971 40.5136 40.0768C40.39 39.9564 40.2224 39.8888 40.0476 39.8888Z" fill="#1E293D"/>
<path fill-rule="evenodd" clip-rule="evenodd" d="M32.6968 32.8843H31.2061L31.9547 31.6379C31.9967 31.5647 32.0235 31.4841 32.0335 31.4008C32.0435 31.3174 32.0366 31.233 32.0131 31.1523C31.9897 31.0716 31.9501 30.9961 31.8967 30.9303C31.8433 30.8645 31.7771 30.8095 31.7019 30.7686C31.6267 30.7277 31.544 30.7016 31.4585 30.6918C31.3729 30.682 31.2862 30.6888 31.2034 30.7116C31.1205 30.7345 31.043 30.773 30.9755 30.825C30.9079 30.877 30.8515 30.9415 30.8095 31.0148L30.0609 32.2611L29.3124 31.0148C29.2704 30.9419 29.214 30.8779 29.1466 30.8262C29.0792 30.7746 29.002 30.7364 28.9194 30.7138C28.8368 30.6913 28.7505 30.6848 28.6653 30.6947C28.5802 30.7046 28.4979 30.7308 28.4231 30.7717C28.3483 30.8126 28.2825 30.8675 28.2295 30.9332C28.1765 30.9989 28.1373 31.0741 28.1142 31.1545C28.091 31.2349 28.0843 31.319 28.0945 31.402C28.1047 31.4849 28.1316 31.5651 28.1736 31.6379L28.9221 32.8843H27.425C27.2503 32.8843 27.0827 32.9519 26.9591 33.0723C26.8355 33.1926 26.7661 33.3559 26.7661 33.5261C26.7661 33.6964 26.8355 33.8596 26.9591 33.98C27.0827 34.1004 27.2503 34.168 27.425 34.168H28.9221L28.1736 35.4143C28.1316 35.4872 28.1047 35.5673 28.0945 35.6503C28.0843 35.7332 28.091 35.8173 28.1142 35.8978C28.1373 35.9782 28.1765 36.0534 28.2295 36.1191C28.2825 36.1848 28.3483 36.2396 28.4231 36.2805C28.4979 36.3215 28.5802 36.3476 28.6653 36.3576C28.7505 36.3675 28.8368 36.361 28.9194 36.3384C29.002 36.3158 29.0792 36.2777 29.1466 36.226C29.214 36.1744 29.2704 36.1103 29.3124 36.0375L30.0609 34.7912L30.8095 36.0375C30.8515 36.1107 30.9079 36.1752 30.9755 36.2272C31.043 36.2792 31.1205 36.3178 31.2034 36.3406C31.2862 36.3635 31.3729 36.3702 31.4585 36.3604C31.544 36.3507 31.6267 36.3246 31.7019 36.2837C31.7771 36.2427 31.8433 36.1878 31.8967 36.122C31.9501 36.0561 31.9897 35.9807 32.0131 35.9C32.0366 35.8193 32.0435 35.7348 32.0335 35.6515C32.0235 35.5682 31.9967 35.4876 31.9547 35.4143L31.2061 34.168H32.6968C32.8716 34.168 33.0392 34.1004 33.1628 33.98C33.2863 33.8596 33.3558 33.6964 33.3558 33.5261C33.3558 33.3559 33.2863 33.1926 33.1628 33.0723C33.0392 32.9519 32.8716 32.8843 32.6968 32.8843Z" fill="#1E293D"/>
<path fill-rule="evenodd" clip-rule="evenodd" d="M45.2041 31.4014H42.0052L43.6047 28.6968C43.6731 28.5343 43.679 28.353 43.6212 28.1866C43.5634 28.0201 43.4458 27.8795 43.2901 27.7908C43.1344 27.7021 42.951 27.6711 42.7737 27.7036C42.5964 27.7361 42.4371 27.8299 42.3251 27.9677L40.7257 30.6661L39.1262 27.9677C39.0856 27.8712 39.0241 27.7843 38.946 27.7129C38.8679 27.6414 38.775 27.5872 38.6735 27.5538C38.572 27.5203 38.4643 27.5085 38.3578 27.5191C38.2512 27.5297 38.1482 27.5624 38.0557 27.6151C37.9633 27.6678 37.8835 27.7392 37.8218 27.8245C37.7601 27.9098 37.7179 28.007 37.6981 28.1096C37.6783 28.2121 37.6813 28.3176 37.7069 28.4189C37.7325 28.5202 37.7802 28.615 37.8467 28.6968L39.4461 31.4014H36.2472C36.0487 31.4014 35.8583 31.4782 35.7179 31.6149C35.5776 31.7517 35.4987 31.9371 35.4987 32.1305C35.4987 32.3239 35.5776 32.5093 35.7179 32.6461C35.8583 32.7828 36.0487 32.8596 36.2472 32.8596H39.4461L37.8467 35.5579C37.7782 35.7205 37.7723 35.9017 37.8301 36.0682C37.8879 36.2347 38.0055 36.3752 38.1613 36.464C38.317 36.5527 38.5004 36.5837 38.6777 36.5512C38.855 36.5187 39.0143 36.4249 39.1262 36.287L40.7257 33.5887L42.3251 36.287C42.3658 36.3836 42.4272 36.4705 42.5053 36.5419C42.5834 36.6133 42.6764 36.6676 42.7779 36.701C42.8793 36.7345 42.987 36.7463 43.0936 36.7357C43.2002 36.7251 43.3032 36.6924 43.3956 36.6397C43.4881 36.587 43.5679 36.5156 43.6296 36.4303C43.6913 36.345 43.7335 36.2478 43.7533 36.1452C43.7731 36.0427 43.7701 35.9372 43.7444 35.8359C43.7188 35.7345 43.6711 35.6398 43.6047 35.5579L42.0052 32.8596H45.2041C45.4026 32.8596 45.593 32.7828 45.7334 32.6461C45.8738 32.5093 45.9527 32.3239 45.9527 32.1305C45.9527 31.9371 45.8738 31.7517 45.7334 31.6149C45.593 31.4782 45.4026 31.4014 45.2041 31.4014Z" fill="#1E293D"/>
<path fill-rule="evenodd" clip-rule="evenodd" d="M8.74312 35.5578L7.14368 32.8595H10.3426C10.5411 32.8595 10.7315 32.7827 10.8719 32.646C11.0122 32.5092 11.0911 32.3238 11.0911 32.1304C11.0911 31.937 11.0122 31.7516 10.8719 31.6148C10.7315 31.4781 10.5411 31.4013 10.3426 31.4013H7.14368L8.74312 28.6967C8.81159 28.5341 8.81747 28.3529 8.75967 28.1865C8.70187 28.02 8.58429 27.8794 8.42856 27.7907C8.27282 27.702 8.08943 27.671 7.91212 27.7035C7.73481 27.736 7.57552 27.8298 7.46357 27.9676L5.86413 30.666L4.26468 27.9676C4.15273 27.8298 3.99345 27.736 3.81614 27.7035C3.63883 27.671 3.45543 27.702 3.2997 27.7907C3.14397 27.8794 3.02638 28.02 2.96858 28.1865C2.91078 28.3529 2.91666 28.5341 2.98513 28.6967L4.58457 31.4013H1.38569C1.18716 31.4013 0.996768 31.4781 0.85639 31.6148C0.716011 31.7516 0.637148 31.937 0.637148 32.1304C0.637148 32.3238 0.716011 32.5092 0.85639 32.646C0.996768 32.7827 1.18716 32.8595 1.38569 32.8595H4.58457L2.98513 35.5578C2.91866 35.6397 2.87099 35.7344 2.84536 35.8358C2.81972 35.9371 2.81671 36.0426 2.83652 36.1451C2.85634 36.2477 2.89853 36.3449 2.96023 36.4302C3.02193 36.5155 3.10171 36.5869 3.19417 36.6396C3.28664 36.6923 3.38964 36.725 3.49622 36.7356C3.6028 36.7462 3.71046 36.7344 3.81194 36.7009C3.91343 36.6675 4.00636 36.6132 4.08447 36.5418C4.16257 36.4704 4.22403 36.3835 4.26468 36.2869L5.86413 33.5886L7.46357 36.2869C7.50423 36.3835 7.56568 36.4704 7.64379 36.5418C7.72189 36.6132 7.81483 36.6675 7.91631 36.7009C8.01779 36.7344 8.12546 36.7462 8.23203 36.7356C8.33861 36.725 8.44161 36.6923 8.53408 36.6396C8.62655 36.5869 8.70633 36.5155 8.76803 36.4302C8.82973 36.3449 8.87191 36.2477 8.89173 36.1451C8.91155 36.0426 8.90854 35.9371 8.8829 35.8358C8.85726 35.7344 8.8096 35.6397 8.74312 35.5578Z" fill="#1E293D"/>
<path fill-rule="evenodd" clip-rule="evenodd" d="M28.4867 42.6557H25.2879L26.8873 39.9574C26.9558 39.7948 26.9616 39.6136 26.9038 39.4471C26.846 39.2806 26.7285 39.1401 26.5727 39.0514C26.417 38.9626 26.2336 38.9317 26.0563 38.9642C25.879 38.9967 25.7197 39.0905 25.6077 39.2283L24.0083 41.9391L22.4089 39.2407C22.2969 39.1029 22.1376 39.0091 21.9603 38.9766C21.783 38.9441 21.5996 38.9751 21.4439 39.0638C21.2881 39.1526 21.1706 39.2931 21.1128 39.4596C21.055 39.6261 21.0608 39.8073 21.1293 39.9699L22.7287 42.6557H19.5299C19.3425 42.6726 19.1683 42.757 19.0415 42.8925C18.9146 43.0279 18.8443 43.2046 18.8443 43.3879C18.8443 43.5713 18.9146 43.748 19.0415 43.8834C19.1683 44.0189 19.3425 44.1033 19.5299 44.1202H22.7287L21.1293 46.8185C21.0628 46.9003 21.0152 46.9951 20.9895 47.0964C20.9639 47.1977 20.9609 47.3032 20.9807 47.4058C21.0005 47.5083 21.0427 47.6055 21.1044 47.6908C21.1661 47.7761 21.2459 47.8475 21.3383 47.9002C21.4308 47.9529 21.5338 47.9857 21.6404 47.9962C21.747 48.0068 21.8546 47.995 21.9561 47.9616C22.0576 47.9281 22.1505 47.8739 22.2286 47.8025C22.3067 47.7311 22.3682 47.6441 22.4089 47.5476L24.0083 44.8617L25.6077 47.5601C25.7197 47.6979 25.879 47.7917 26.0563 47.8242C26.2336 47.8567 26.417 47.8257 26.5727 47.737C26.7285 47.6483 26.846 47.5077 26.9038 47.3412C26.9616 47.1748 26.9558 46.9935 26.8873 46.831L25.2879 44.1326H28.4867C28.6878 44.1326 28.8806 44.0548 29.0228 43.9163C29.165 43.7779 29.2449 43.59 29.2449 43.3942C29.2449 43.1983 29.165 43.0105 29.0228 42.872C28.8806 42.7335 28.6878 42.6557 28.4867 42.6557Z" fill="#1E293D"/>
</svg>
