<svg width="49" height="48" viewBox="0 0 49 48" fill="none" xmlns="http://www.w3.org/2000/svg">
<path fill-rule="evenodd" clip-rule="evenodd" d="M38.1738 8.21229C37.6841 8.21349 37.1952 8.24947 36.7106 8.31997C35.3437 6.4471 33.5539 4.92345 31.4868 3.87304C29.4197 2.82263 27.1338 2.27515 24.8152 2.27515C22.4965 2.27515 20.2106 2.82263 18.1435 3.87304C16.0765 4.92345 14.2866 6.4471 12.9197 8.31997C12.4352 8.24923 11.9462 8.21325 11.4565 8.21229C10.0703 8.17807 8.69134 8.42153 7.4007 8.92835C6.11005 9.43516 4.93385 10.1951 3.94136 11.1634C2.94886 12.1317 2.16013 13.2888 1.62161 14.5665C1.08309 15.8442 0.805664 17.2168 0.805664 18.6034C0.805664 19.99 1.08309 21.3626 1.62161 22.6403C2.16013 23.9181 2.94886 25.0751 3.94136 26.0434C4.93385 27.0117 6.11005 27.7717 7.4007 28.2785C8.69134 28.7853 10.0703 29.0288 11.4565 28.9945C12.7144 28.9965 13.962 28.7668 15.1366 28.3168C16.2775 29.2892 17.5588 30.0836 18.9371 30.6731L21.2491 28.3674C19.0926 27.6796 17.1738 26.3974 15.713 24.6683C14.6592 25.41 13.4303 25.8642 12.1474 25.9864C10.8645 26.1085 9.57194 25.8943 8.39705 25.3649C7.22215 24.8354 6.20547 24.009 5.44717 22.9671C4.68887 21.9251 4.21513 20.7036 4.07261 19.4228C3.93009 18.142 4.12372 16.8462 4.63442 15.6631C5.14512 14.4799 5.95527 13.4502 6.98504 12.6755C8.01481 11.9007 9.22867 11.4076 10.507 11.2447C11.7854 11.0819 13.0841 11.2549 14.2752 11.7467C15.2555 9.79213 16.7602 8.14873 18.621 7.00029C20.4818 5.85184 22.6253 5.24361 24.812 5.24361C26.9987 5.24361 29.1422 5.85184 31.003 7.00029C32.8638 8.14873 34.3685 9.79213 35.3488 11.7467C36.5408 11.2515 37.8414 11.0757 39.1222 11.2367C40.4029 11.3976 41.6195 11.8897 42.652 12.6644C43.6845 13.4391 44.4972 14.4696 45.0098 15.6543C45.5224 16.8389 45.7173 18.1368 45.5751 19.4197C45.433 20.7027 44.9588 21.9264 44.1993 22.9702C43.4398 24.0139 42.4213 24.8416 41.2443 25.3715C40.0673 25.9014 38.7724 26.1153 37.4875 25.992C36.2026 25.8686 34.972 25.4124 33.9173 24.6683C32.9393 25.826 31.7534 26.7906 30.4209 27.5123L29.154 31.2495C31.1105 30.6517 32.9221 29.6553 34.4747 28.3231C35.6492 28.7737 36.8968 29.0034 38.1548 29.0009C39.541 29.0351 40.92 28.7916 42.2106 28.2848C43.5013 27.778 44.6775 27.0181 45.67 26.0498C46.6625 25.0815 47.4512 23.9244 47.9897 22.6467C48.5282 21.3689 48.8057 19.9963 48.8057 18.6097C48.8057 17.2232 48.5282 15.8506 47.9897 14.5728C47.4512 13.2951 46.6625 12.138 45.67 11.1697C44.6775 10.2014 43.5013 9.4415 42.2106 8.93468C40.92 8.42786 39.541 8.1844 38.1548 8.21863L38.1738 8.21229Z" fill="#1E293D"/>
<path fill-rule="evenodd" clip-rule="evenodd" d="M19.3678 34.5369L22.3385 37.5076L19.3678 46.4134L28.2799 37.5076L25.3092 34.5369L28.2799 25.6312L19.3678 34.5369Z" fill="#1E293D"/>
<path d="M17.3175 37.1657C17.3175 37.4143 17.2187 37.6528 17.0429 37.8286C16.8671 38.0044 16.6287 38.1032 16.3801 38.1032H8.91847C8.67262 38.0998 8.43808 37.9994 8.26601 37.8238C8.09395 37.6481 7.99833 37.4116 8.00002 37.1657C8.00002 36.9188 8.09812 36.6819 8.27274 36.5073C8.44736 36.3327 8.68419 36.2346 8.93114 36.2346H16.3801C16.5029 36.2338 16.6246 36.2572 16.7383 36.3037C16.852 36.3501 16.9554 36.4185 17.0426 36.5051C17.1297 36.5916 17.1988 36.6945 17.246 36.8079C17.2932 36.9213 17.3175 37.0429 17.3175 37.1657Z" fill="#1E293D"/>
<path d="M14.9678 41.2069C14.7524 41.3259 14.4987 41.3554 14.2617 41.2891C14.0247 41.2227 13.8233 41.0658 13.701 40.8522L9.97018 34.3914C9.84789 34.1786 9.81456 33.9261 9.87742 33.6889C9.94029 33.4517 10.0943 33.2489 10.3059 33.1246C10.4114 33.0634 10.528 33.0238 10.6489 33.0079C10.7699 32.992 10.8927 33.0002 11.0105 33.032C11.1282 33.0638 11.2385 33.1185 11.335 33.1931C11.4315 33.2677 11.5123 33.3607 11.5727 33.4666L15.3035 39.9274C15.4258 40.1402 15.4591 40.3926 15.3963 40.6299C15.3334 40.8671 15.1794 41.0699 14.9678 41.1942V41.2069Z" fill="#1E293D"/>
<path d="M14.9678 33.131C15.1794 33.2553 15.3334 33.4581 15.3963 33.6953C15.4591 33.9326 15.4258 34.185 15.3035 34.3978L11.5917 40.8523C11.4673 41.0637 11.265 41.218 11.0281 41.2819C10.7913 41.3458 10.5388 41.3144 10.3249 41.1943C10.1133 41.07 9.9593 40.8672 9.89643 40.63C9.83357 40.3927 9.8669 40.1403 9.98919 39.9275L13.701 33.473C13.7614 33.3671 13.8422 33.2742 13.9387 33.1996C14.0352 33.125 14.1455 33.0702 14.2632 33.0384C14.381 33.0066 14.5038 32.9984 14.6248 33.0143C14.7457 33.0302 14.8623 33.0699 14.9678 33.131Z" fill="#1E293D"/>
<path d="M40.3175 37.1657C40.3175 37.4143 40.2187 37.6528 40.0429 37.8286C39.8671 38.0044 39.6287 38.1032 39.3801 38.1032H31.9185C31.6726 38.0998 31.4381 37.9994 31.266 37.8238C31.0939 37.6481 30.9983 37.4116 31 37.1657C31 36.9188 31.0981 36.6819 31.2727 36.5073C31.4474 36.3327 31.6842 36.2346 31.9311 36.2346H39.3801C39.5029 36.2338 39.6246 36.2572 39.7383 36.3037C39.852 36.3501 39.9554 36.4185 40.0426 36.5051C40.1297 36.5916 40.1988 36.6945 40.246 36.8079C40.2932 36.9213 40.3175 37.0429 40.3175 37.1657Z" fill="#1E293D"/>
<path d="M37.9678 41.2069C37.7524 41.3259 37.4987 41.3554 37.2617 41.2891C37.0247 41.2227 36.8233 41.0658 36.701 40.8522L32.9702 34.3914C32.8479 34.1786 32.8146 33.9261 32.8774 33.6889C32.9403 33.4517 33.0943 33.2489 33.3059 33.1246C33.4114 33.0634 33.528 33.0238 33.6489 33.0079C33.7699 32.992 33.8927 33.0002 34.0105 33.032C34.1282 33.0638 34.2385 33.1185 34.335 33.1931C34.4315 33.2677 34.5123 33.3607 34.5727 33.4666L38.3035 39.9274C38.4258 40.1402 38.4591 40.3926 38.3963 40.6299C38.3334 40.8671 38.1794 41.0699 37.9678 41.1942V41.2069Z" fill="#1E293D"/>
<path d="M37.9678 33.131C38.1794 33.2553 38.3334 33.4581 38.3963 33.6953C38.4591 33.9326 38.4258 34.185 38.3035 34.3978L34.5917 40.8523C34.4673 41.0637 34.265 41.218 34.0281 41.2819C33.7913 41.3458 33.5388 41.3144 33.3249 41.1943C33.1133 41.07 32.9593 40.8672 32.8964 40.63C32.8336 40.3927 32.8669 40.1403 32.9892 39.9275L36.701 33.473C36.7614 33.3671 36.8422 33.2742 36.9387 33.1996C37.0352 33.125 37.1455 33.0702 37.2632 33.0384C37.381 33.0066 37.5038 32.9984 37.6248 33.0143C37.7457 33.0302 37.8623 33.0699 37.9678 33.131Z" fill="#1E293D"/>
</svg>
