<svg width="48" height="48" viewBox="0 0 48 48" fill="none" xmlns="http://www.w3.org/2000/svg">
<path fill-rule="evenodd" clip-rule="evenodd" d="M40.8235 20.8312C41.2861 20.5028 41.7243 20.1412 42.1345 19.7492C43.3864 18.4936 44.3373 16.9704 44.9157 15.2943C45.0101 15.028 45.0271 14.7404 44.9647 14.4648C44.9024 14.1892 44.7633 13.9369 44.5635 13.7371C44.3638 13.5374 44.1115 13.3983 43.8359 13.3359C43.5603 13.2736 43.2727 13.2906 43.0064 13.385C41.4188 13.9482 39.704 14.0499 38.061 13.6781C36.418 13.3064 34.914 12.4764 33.7235 11.2846C32.533 10.0928 31.7048 8.58788 31.3349 6.94443C30.9649 5.30099 31.0685 3.58635 31.6335 1.99937C31.7307 1.73291 31.7497 1.44424 31.6884 1.16732C31.6271 0.890395 31.488 0.63674 31.2874 0.436186C31.0869 0.235632 30.8332 0.0965193 30.5563 0.0352098C30.2794 -0.0260998 29.9907 -0.00705605 29.7242 0.0901009C26.8837 1.06928 24.5256 3.09845 23.1339 5.76123C21.7421 8.42401 21.4223 11.5185 22.2399 14.4096C20.2449 14.6641 18.3227 15.3224 16.5906 16.3444C14.8584 17.3664 13.3527 18.7306 12.1653 20.3538C11.6804 20.2849 11.1912 20.2509 10.7015 20.252C9.30875 20.2176 7.92319 20.4622 6.6264 20.9715C5.32962 21.4807 4.14782 22.2442 3.15061 23.2171C2.15339 24.19 1.36091 25.3526 0.81983 26.6364C0.278748 27.9203 0 29.2994 0 30.6926C0 32.0857 0.278748 33.4648 0.81983 34.7487C1.36091 36.0325 2.15339 37.1951 3.15061 38.168C4.14782 39.1409 5.32962 39.9044 6.6264 40.4136C7.92319 40.9229 9.30875 41.1675 10.7015 41.1331C11.9658 41.1329 13.2192 40.8999 14.3991 40.4458C15.2696 41.2019 16.2241 41.8554 17.244 42.3932L18.7014 39.7902C17.2752 39.043 16.0101 38.0223 14.9783 36.7863C13.9186 37.5285 12.6839 37.982 11.3958 38.1023C10.1076 38.2225 8.81035 38.0054 7.63159 37.4721C6.45283 36.9389 5.43317 36.1081 4.67294 35.0612C3.91271 34.0144 3.43809 32.7877 3.29577 31.5018C3.15346 30.2159 3.34834 28.9151 3.86126 27.7274C4.37418 26.5396 5.18746 25.5059 6.2211 24.7278C7.25474 23.9498 8.47312 23.4542 9.75639 23.2898C11.0397 23.1255 12.3436 23.2981 13.54 23.7905C14.4844 21.9422 15.8958 20.3731 17.634 19.2388C19.3723 18.1045 21.377 17.4446 23.4491 17.3245C23.6782 17.3245 23.901 17.2736 24.1301 17.2736C26.8374 17.277 29.4607 18.2143 31.5571 19.9274C32.6693 20.8285 33.6112 21.9213 34.3383 23.1541C34.4592 23.3641 34.5992 23.5614 34.7138 23.7905C35.9116 23.2949 37.218 23.12 38.504 23.2831C39.7901 23.4462 41.0114 23.9417 42.0476 24.7207C43.0838 25.4996 43.899 26.5352 44.413 27.7253C44.927 28.9154 45.122 30.2189 44.9787 31.5072C44.8354 32.7956 44.3588 34.0244 43.5959 35.0725C42.833 36.1206 41.8101 36.9517 40.628 37.4839C39.446 38.0162 38.1457 38.2312 36.8552 38.1077C35.5648 37.9843 34.3288 37.5267 33.2691 36.78C32.2804 37.9691 31.0754 38.9603 29.7179 39.7011L31.0798 42.355C32.0724 41.8262 33.0012 41.1856 33.8483 40.4458C35.0302 40.9004 36.2859 41.1334 37.5523 41.1331C40.0328 41.1416 42.4349 40.2643 44.326 38.659C46.2171 37.0537 47.473 34.826 47.8675 32.377C48.262 29.928 47.7691 27.4187 46.4777 25.3008C45.1863 23.1829 43.1812 21.5956 40.8235 20.8248V20.8312Z" fill="#1E293D"/>
<path fill-rule="evenodd" clip-rule="evenodd" d="M20.9481 43.9842C20.9481 44.8282 21.2833 45.6376 21.8801 46.2343C22.4768 46.8311 23.2862 47.1664 24.1302 47.1664C24.9741 47.1664 25.7835 46.8311 26.3803 46.2343C26.977 45.6376 27.3123 44.8282 27.3123 43.9842C27.3123 42.2277 24.1302 37.62 24.1302 37.62C24.1302 37.62 20.9481 42.2468 20.9481 43.9842Z" fill="#1E293D"/>
</svg>
