<svg width="48" height="48" viewBox="0 0 48 48" fill="none" xmlns="http://www.w3.org/2000/svg">
<path fill-rule="evenodd" clip-rule="evenodd" d="M37.3534 7.94113C36.864 7.9402 36.3753 7.97406 35.8908 8.04243C34.5244 6.1703 32.7352 4.64725 30.669 3.59726C28.6027 2.54727 26.3177 2 24 2C21.6823 2 19.3973 2.54727 17.331 3.59726C15.2648 4.64725 13.4756 6.1703 12.1092 8.04243C11.6248 7.9736 11.136 7.93975 10.6466 7.94113C9.26102 7.90691 7.88256 8.15028 6.59242 8.6569C5.30229 9.16351 4.12655 9.92314 3.13445 10.891C2.14235 11.859 1.35393 13.0156 0.815627 14.2928C0.277319 15.5701 0 16.9421 0 18.3281C0 19.7142 0.277319 21.0862 0.815627 22.3634C1.35393 23.6407 2.14235 24.7973 3.13445 25.7652C4.12655 26.7331 5.30229 27.4927 6.59242 27.9994C7.88256 28.506 9.26102 28.7493 10.6466 28.7151C11.9045 28.7155 13.1516 28.4837 14.3253 28.0313C16.9984 30.3854 20.4381 31.684 24 31.684C27.5619 31.684 31.0016 30.3854 33.6747 28.0313C34.8485 28.4832 36.0956 28.715 37.3534 28.7151C38.739 28.7493 40.1174 28.506 41.4076 27.9994C42.6977 27.4927 43.8734 26.7331 44.8655 25.7652C45.8576 24.7973 46.6461 23.6407 47.1844 22.3634C47.7227 21.0862 48 19.7142 48 18.3281C48 16.9421 47.7227 15.5701 47.1844 14.2928C46.6461 13.0156 45.8576 11.859 44.8655 10.891C43.8734 9.92314 42.6977 9.16351 41.4076 8.6569C40.1174 8.15028 38.739 7.90691 37.3534 7.94113ZM37.3534 25.7456C35.8292 25.744 34.3429 25.2707 33.0985 24.3906C31.999 25.7419 30.6121 26.8312 29.0388 27.5793C27.4655 28.3275 25.7453 28.7156 24.0032 28.7156C22.261 28.7156 20.5408 28.3275 18.9675 27.5793C17.3942 26.8312 16.0074 25.7419 14.9078 24.3906C13.9542 25.0589 12.8566 25.4931 11.7039 25.6581C10.5513 25.8231 9.37594 25.7144 8.27314 25.3406C7.17033 24.9668 6.17107 24.3386 5.35629 23.5067C4.5415 22.6748 3.9341 21.6627 3.58328 20.5524C3.23246 19.4421 3.14809 18.2648 3.337 17.1158C3.52591 15.9668 3.98278 14.8784 4.67063 13.9389C5.35847 12.9993 6.25793 12.235 7.29617 11.7078C8.3344 11.1806 9.48222 10.9053 10.6466 10.9043C11.6155 10.9077 12.5745 11.0991 13.4705 11.4678C14.4511 9.51567 15.9551 7.87453 17.8144 6.72772C19.6738 5.58092 21.8154 4.9736 24 4.9736C26.1846 4.9736 28.3262 5.58092 30.1856 6.72772C32.0449 7.87453 33.5489 9.51567 34.5295 11.4678C35.4256 11.0997 36.3845 10.9084 37.3534 10.9043C39.3214 10.9043 41.2089 11.6861 42.6005 13.0778C43.9922 14.4694 44.774 16.3569 44.774 18.325C44.774 20.293 43.9922 22.1805 42.6005 23.5722C41.2089 24.9638 39.3214 25.7456 37.3534 25.7456Z" fill="#1E293D"/>
<path d="M4.70751 38.3579C4.70751 38.6535 4.5901 38.9369 4.38112 39.1459C4.17213 39.3549 3.88869 39.4723 3.59315 39.4723C3.44604 39.474 3.30007 39.4463 3.16376 39.391C3.02744 39.3357 2.90351 39.2538 2.79919 39.15C2.69487 39.0463 2.61225 38.9228 2.55615 38.7868C2.50005 38.6508 2.4716 38.505 2.47245 38.3579V30.9436C2.46818 30.7944 2.4941 30.6458 2.54866 30.5069C2.60323 30.3679 2.68531 30.2414 2.78998 30.135C2.89464 30.0285 3.01974 29.9443 3.15776 29.8875C3.29578 29.8306 3.44387 29.8022 3.59315 29.8039C3.73972 29.8031 3.88501 29.8313 4.02059 29.887C4.15617 29.9427 4.27935 30.0248 4.38299 30.1284C4.48664 30.2321 4.56869 30.3553 4.62439 30.4908C4.6801 30.6264 4.70835 30.7717 4.70751 30.9183V38.3579Z" fill="#1E293D"/>
<path d="M46.1607 38.3582C46.1607 38.6537 46.0433 38.9372 45.8343 39.1462C45.6254 39.3551 45.3419 39.4725 45.0464 39.4725C44.7508 39.4725 44.4674 39.3551 44.2584 39.1462C44.0494 38.9372 43.932 38.6537 43.932 38.3582V30.9439C43.9286 30.7949 43.9551 30.6467 44.01 30.5082C44.0649 30.3696 44.147 30.2435 44.2515 30.1372C44.356 30.0309 44.4807 29.9467 44.6184 29.8895C44.756 29.8323 44.9037 29.8033 45.0527 29.8042C45.2007 29.805 45.347 29.8352 45.4831 29.8932C45.6193 29.9512 45.7425 30.0356 45.8456 30.1417C45.9488 30.2478 46.0298 30.3734 46.0839 30.5111C46.138 30.6488 46.1641 30.7959 46.1607 30.9439V38.3582Z" fill="#1E293D"/>
<path d="M11.6217 41.3275C11.6251 41.476 11.5988 41.6236 11.5443 41.7618C11.4898 41.8999 11.4082 42.0257 11.3044 42.1319C11.2006 42.2381 11.0766 42.3225 10.9397 42.38C10.8029 42.4376 10.6559 42.4673 10.5074 42.4672C10.2118 42.4672 9.92838 42.3498 9.71939 42.1408C9.51041 41.9318 9.39301 41.6484 9.39301 41.3529V33.9069C9.393 33.7608 9.42187 33.6162 9.47795 33.4814C9.53403 33.3465 9.61621 33.2241 9.71978 33.1211C9.82334 33.0182 9.94623 32.9367 10.0814 32.8814C10.2166 32.8261 10.3613 32.798 10.5074 32.7989C10.6534 32.798 10.7982 32.8261 10.9333 32.8814C11.0685 32.9367 11.1914 33.0182 11.295 33.1211C11.3985 33.2241 11.4807 33.3465 11.5368 33.4814C11.5929 33.6162 11.6217 33.7608 11.6217 33.9069V41.3275Z" fill="#1E293D"/>
<path d="M39.2591 41.3275C39.2624 41.476 39.2361 41.6236 39.1816 41.7618C39.1271 41.8999 39.0456 42.0257 38.9418 42.1319C38.838 42.2381 38.714 42.3225 38.5771 42.38C38.4402 42.4376 38.2932 42.4673 38.1447 42.4672C37.8492 42.4672 37.5657 42.3498 37.3567 42.1408C37.1478 41.9318 37.0303 41.6484 37.0303 41.3529V33.9069C37.0303 33.7608 37.0592 33.6162 37.1153 33.4814C37.1714 33.3465 37.2536 33.2241 37.3571 33.1211C37.4607 33.0182 37.5836 32.9367 37.7187 32.8814C37.8539 32.8261 37.9987 32.798 38.1447 32.7989C38.2907 32.798 38.4355 32.8261 38.5707 32.8814C38.7058 32.9367 38.8287 33.0182 38.9323 33.1211C39.0359 33.2241 39.118 33.3465 39.1741 33.4814C39.2302 33.6162 39.2591 33.7608 39.2591 33.9069V41.3275Z" fill="#1E293D"/>
<path d="M18.5295 43.1827C18.5295 43.4782 18.4121 43.7617 18.2031 43.9707C17.9942 44.1796 17.7107 44.297 17.4152 44.297C17.1196 44.297 16.8362 44.1796 16.6272 43.9707C16.4182 43.7617 16.3008 43.4782 16.3008 43.1827V35.762C16.3008 35.4665 16.4182 35.183 16.6272 34.9741C16.8362 34.7651 17.1196 34.6477 17.4152 34.6477C17.7107 34.6477 17.9942 34.7651 18.2031 34.9741C18.4121 35.183 18.5295 35.4665 18.5295 35.762V43.1827Z" fill="#1E293D"/>
<path d="M32.3449 43.1827C32.3458 43.3287 32.3177 43.4735 32.2624 43.6087C32.2071 43.7438 32.1256 43.8667 32.0226 43.9703C31.9197 44.0738 31.7972 44.156 31.6624 44.2121C31.5276 44.2682 31.3829 44.2971 31.2369 44.297C30.9414 44.297 30.6579 44.1796 30.4489 43.9707C30.24 43.7617 30.1225 43.4782 30.1225 43.1827V35.762C30.1225 35.4665 30.24 35.183 30.4489 34.9741C30.6579 34.7651 30.9414 34.6477 31.2369 34.6477C31.3829 34.6477 31.5276 34.6765 31.6624 34.7326C31.7972 34.7887 31.9197 34.8709 32.0226 34.9744C32.1256 35.078 32.2071 35.2009 32.2624 35.3361C32.3177 35.4712 32.3458 35.616 32.3449 35.762V43.1827Z" fill="#1E293D"/>
<path d="M25.4371 45.095C25.4371 45.3894 25.3206 45.6719 25.113 45.8807C24.9054 46.0895 24.6236 46.2077 24.3291 46.2093C24.0336 46.2093 23.7501 46.0919 23.5411 45.8829C23.3321 45.674 23.2147 45.3905 23.2147 45.095V37.6743C23.2147 37.3788 23.3321 37.0953 23.5411 36.8864C23.7501 36.6774 24.0336 36.56 24.3291 36.56C24.6236 36.5616 24.9054 36.6798 25.113 36.8886C25.3206 37.0974 25.4371 37.3799 25.4371 37.6743V45.095Z" fill="#1E293D"/>
</svg>
