<svg width="48" height="48" viewBox="0 0 48 48" fill="none" xmlns="http://www.w3.org/2000/svg">
<path fill-rule="evenodd" clip-rule="evenodd" d="M24.0514 11.1119C21.4884 11.1106 18.9827 11.8693 16.8512 13.292C14.7197 14.7147 13.0581 16.7375 12.0768 19.1045C11.0954 21.4714 10.8383 24.0762 11.338 26.5893C11.8377 29.1023 13.0717 31.4108 14.884 33.2225C16.6962 35.0343 19.0053 36.268 21.519 36.7676C24.0327 37.2671 26.6382 37.0101 29.0058 36.029C31.3734 35.0479 33.3967 33.3868 34.8198 31.2558C36.2429 29.1249 37.0018 26.6198 37.0005 24.0576C36.9954 20.6257 35.6295 17.3359 33.2022 14.9092C30.7748 12.4825 27.4841 11.1169 24.0514 11.1119ZM24.0514 33.31C22.2206 33.3113 20.4307 32.7697 18.9079 31.7538C17.3851 30.7379 16.1978 29.2933 15.4964 27.6028C14.7949 25.9122 14.6107 24.0517 14.9671 22.2565C15.3235 20.4612 16.2044 18.812 17.4985 17.5174C18.7925 16.2228 20.4416 15.3409 22.237 14.9834C24.0325 14.6259 25.8937 14.8087 27.5852 15.5088C29.2766 16.2089 30.7224 17.3948 31.7397 18.9165C32.7569 20.4382 33.2998 22.2274 33.2998 24.0576C33.3041 25.2748 33.068 26.4809 32.6052 27.6067C32.1424 28.7326 31.4619 29.756 30.6028 30.6185C29.7436 31.481 28.7227 32.1655 27.5985 32.6329C26.4743 33.1003 25.2689 33.3413 24.0514 33.3421V33.31Z" fill="#1E293D"/>
<path fill-rule="evenodd" clip-rule="evenodd" d="M24.0513 5.31226e-10C23.8082 -1.46459e-06 23.5675 0.0479749 23.343 0.141178C23.1184 0.234381 22.9145 0.370978 22.7429 0.543134C22.5713 0.71529 22.4354 0.91962 22.3429 1.14441C22.2505 1.36919 22.2033 1.61001 22.2042 1.85305V5.55275C22.232 6.02453 22.439 6.46787 22.783 6.79207C23.1269 7.11628 23.5818 7.29685 24.0545 7.29685C24.5272 7.29685 24.9821 7.11628 25.326 6.79207C25.67 6.46787 25.8771 6.02453 25.9048 5.55275V1.86588C25.9065 1.62145 25.8598 1.37911 25.7675 1.15281C25.6751 0.926501 25.5388 0.720706 25.3665 0.547273C25.1942 0.373841 24.9893 0.236198 24.7636 0.142272C24.5379 0.0483465 24.2958 -5.85266e-06 24.0513 5.31226e-10Z" fill="#1E293D"/>
<path fill-rule="evenodd" clip-rule="evenodd" d="M24.0513 40.7031C23.8082 40.7031 23.5675 40.7511 23.343 40.8443C23.1184 40.9375 22.9145 41.0741 22.7429 41.2463C22.5713 41.4184 22.4354 41.6228 22.3429 41.8476C22.2505 42.0723 22.2033 42.3132 22.2042 42.5562V46.2559C22.232 46.7277 22.439 47.171 22.783 47.4952C23.1269 47.8194 23.5818 48 24.0545 48C24.5272 48 24.9821 47.8194 25.326 47.4952C25.67 47.171 25.8771 46.7277 25.9048 46.2559V42.5562C25.9048 42.0647 25.7096 41.5934 25.362 41.2459C25.0144 40.8984 24.5429 40.7031 24.0513 40.7031Z" fill="#1E293D"/>
<path fill-rule="evenodd" clip-rule="evenodd" d="M41.0538 7.05302C40.7067 6.70884 40.2375 6.51573 39.7486 6.51573C39.2597 6.51573 38.7906 6.70884 38.4435 7.05302L35.8267 9.6691C35.4797 10.016 35.2847 10.4865 35.2847 10.9771C35.2847 11.4677 35.4797 11.9383 35.8267 12.2852C36.1737 12.6321 36.6443 12.827 37.1351 12.827C37.6258 12.827 38.0965 12.6321 38.4435 12.2852L41.0538 9.6691C41.226 9.49754 41.3626 9.29368 41.4559 9.06922C41.5491 8.84476 41.5971 8.6041 41.5971 8.36106C41.5971 8.11802 41.5491 7.87736 41.4559 7.6529C41.3626 7.42844 41.226 7.22458 41.0538 7.05302Z" fill="#1E293D"/>
<path fill-rule="evenodd" clip-rule="evenodd" d="M12.282 35.8299C11.9346 35.4838 11.4641 35.2894 10.9737 35.2894C10.4832 35.2894 10.0127 35.4838 9.66528 35.8299L7.04851 38.4716C6.77703 38.8297 6.64542 39.2744 6.67835 39.7225C6.71128 40.1705 6.90648 40.5913 7.22739 40.9058C7.54831 41.2203 7.97291 41.4071 8.42168 41.4312C8.87044 41.4552 9.31258 41.3148 9.66528 41.0364L12.282 38.4716C12.4566 38.2987 12.5951 38.093 12.6896 37.8663C12.7842 37.6396 12.8329 37.3964 12.8329 37.1508C12.8329 36.9051 12.7842 36.6619 12.6896 36.4352C12.5951 36.2085 12.4566 36.0028 12.282 35.8299Z" fill="#1E293D"/>
<path fill-rule="evenodd" clip-rule="evenodd" d="M0 24.0576C0 24.5491 0.195284 25.0204 0.542891 25.368C0.890498 25.7155 1.36195 25.9107 1.85355 25.9107H5.55422C6.02613 25.8829 6.46958 25.6759 6.79387 25.3321C7.11816 24.9882 7.29878 24.5335 7.29878 24.0609C7.29878 23.5883 7.11816 23.1335 6.79387 22.7897C6.46958 22.4458 6.02613 22.2388 5.55422 22.211H1.85355C1.61044 22.2102 1.36955 22.2573 1.14471 22.3497C0.919864 22.4422 0.71548 22.578 0.543278 22.7496C0.371076 22.9212 0.234443 23.125 0.141215 23.3495C0.0479876 23.574 -1.46547e-06 23.8146 0 24.0576Z" fill="#1E293D"/>
<path fill-rule="evenodd" clip-rule="evenodd" d="M40.7012 24.0576C40.7012 24.5491 40.8965 25.0204 41.2441 25.3679C41.5917 25.7155 42.0632 25.9107 42.5548 25.9107H46.2554C46.7273 25.8829 47.1708 25.6759 47.4951 25.332C47.8194 24.9882 48 24.5334 48 24.0608C48 23.5882 47.8194 23.1335 47.4951 22.7896C47.1708 22.4458 46.7273 22.2388 46.2554 22.211H42.5548C42.0643 22.211 41.5938 22.4053 41.2464 22.7515C40.8989 23.0976 40.7029 23.5673 40.7012 24.0576Z" fill="#1E293D"/>
<path fill-rule="evenodd" clip-rule="evenodd" d="M7.04208 7.05299C6.69741 7.40114 6.50408 7.8712 6.50408 8.36103C6.50408 8.85087 6.69741 9.32092 7.04208 9.66907L9.65885 12.2787C9.83025 12.4505 10.0338 12.5868 10.2579 12.68C10.482 12.7731 10.7223 12.8212 10.965 12.8215C11.2077 12.8218 11.448 12.7743 11.6724 12.6817C11.8967 12.5891 12.1006 12.4533 12.2724 12.2819C12.4442 12.1106 12.5806 11.9071 12.6738 11.683C12.7669 11.459 12.815 11.2188 12.8153 10.9762C12.8156 10.7335 12.7681 10.4932 12.6755 10.269C12.5829 10.0447 12.447 9.84084 12.2756 9.66907L9.65885 7.05299C9.48724 6.88084 9.28333 6.74424 9.05881 6.65104C8.83429 6.55783 8.59357 6.50986 8.35046 6.50986C8.10735 6.50986 7.86664 6.55783 7.64212 6.65104C7.41759 6.74424 7.21368 6.88084 7.04208 7.05299Z" fill="#1E293D"/>
<path fill-rule="evenodd" clip-rule="evenodd" d="M35.8267 35.83C35.4804 36.1773 35.286 36.6476 35.286 37.138C35.286 37.6283 35.4804 38.0987 35.8267 38.446L38.4434 41.0365C38.7961 41.3149 39.2383 41.4553 39.687 41.4312C40.1358 41.4072 40.5604 41.2204 40.8813 40.9059C41.2022 40.5913 41.3974 40.1706 41.4304 39.7225C41.4633 39.2745 41.3317 38.8297 41.0602 38.4717L38.4434 35.8556C38.2735 35.6818 38.071 35.5432 37.8474 35.4477C37.6237 35.3523 37.3835 35.302 37.1404 35.2996C36.8973 35.2972 36.6561 35.3428 36.4306 35.4339C36.2052 35.5249 36 35.6595 35.8267 35.83Z" fill="#1E293D"/>
</svg>
