<svg width="166" height="125" viewBox="0 0 166 125" fill="none" xmlns="http://www.w3.org/2000/svg">
<path d="M154 69.5C154 75.8513 148.851 81 142.5 81C142.332 81 142.166 80.9964 142 80.9893V81H137V107H149V92.0895C158.817 89.2698 166 80.2237 166 69.5C166 56.5213 155.479 46 142.5 46C129.521 46 119 56.5213 119 69.5C119 69.6671 119.002 69.8338 119.005 70H131.011C131.004 69.8342 131 69.6675 131 69.5C131 63.1487 136.149 58 142.5 58C148.851 58 154 63.1487 154 69.5Z" fill="url(#paint0_linear_45_76)"/>
<path d="M137 113H149V125H137V113Z" fill="url(#paint1_linear_45_76)"/>
<path d="M89 99H101V125H89V99Z" fill="white"/>
<path d="M113 99H125V111H113V99Z" fill="white"/>
<path d="M65 99H77V111H65V99Z" fill="white"/>
<path d="M31.0815 34.0417C30.5578 34.014 30.0305 34 29.5 34C13.2076 34 0 47.2076 0 63.5C0 79.6254 12.9382 92.7289 29 92.9958V93H131V81H29.3495L29.1994 80.9975C19.6755 80.8392 12 73.0648 12 63.5C12 53.835 19.835 46 29.5 46C29.8193 46 30.1355 46.0084 30.4485 46.025L42.2695 46.6494L43.055 34.838C43.903 22.088 54.5284 12 67.5 12C76.4112 12 84.2247 16.7502 88.5266 23.9142L94.8921 34.5147L105.297 27.8346C108.091 26.0413 111.405 25 115 25C124.52 25 132.314 32.3909 132.957 41.7479C138.234 40.434 142.489 40.6235 144.924 40.843C143.818 25.2812 130.843 13 115 13C109.682 13 104.687 14.3839 100.355 16.8112C99.8316 17.1046 99.3178 17.4132 98.8143 17.7365C98.4383 17.1104 98.0441 16.4965 97.6324 15.8955C91.0564 6.29719 80.0136 0 67.5 0C48.1677 0 32.3459 15.0296 31.0815 34.0417Z" fill="white"/>
<path d="M41 99H53V125H41V99Z" fill="white"/>
<path d="M17.5 99H29.5V111H17.5V99Z" fill="white"/>
<defs>
<linearGradient id="paint0_linear_45_76" x1="142.5" y1="46" x2="143" y2="167" gradientUnits="userSpaceOnUse">
<stop stop-color="white"/>
<stop offset="1" stop-color="white"/>
</linearGradient>
<linearGradient id="paint1_linear_45_76" x1="142.5" y1="46" x2="143" y2="167" gradientUnits="userSpaceOnUse">
<stop stop-color="white"/>
<stop offset="1" stop-color="white"/>
</linearGradient>
</defs>
</svg>
