<svg width="48" height="49" viewBox="0 0 48 49" fill="none" xmlns="http://www.w3.org/2000/svg">
<mask id="path-1-inside-1_43_1002" fill="white">
<path d="M48 29.6707C46.2446 30.0737 44.4166 30.2866 42.5389 30.2866C29.114 30.2866 18.231 19.4036 18.231 5.97867C18.231 4.10097 18.4439 2.27299 18.8468 0.517569C8.05158 2.99577 0 12.6624 0 24.2096C0 37.6345 10.883 48.5176 24.3079 48.5176C35.8552 48.5176 45.5218 40.466 48 29.6707Z"/>
</mask>
<path d="M48 29.6707L52.8732 30.7895L54.6586 23.0121L46.8813 24.7975L48 29.6707ZM18.8468 0.517578L23.7201 1.63629L25.5055 -6.14106L17.7281 -4.35566L18.8468 0.517578ZM46.8813 24.7975C45.4903 25.1168 44.0375 25.2866 42.5389 25.2866V35.2866C44.7957 35.2866 46.9989 35.0306 49.1187 34.544L46.8813 24.7975ZM42.5389 25.2866C31.8754 25.2866 23.231 16.6422 23.231 5.97868H13.231C13.231 22.165 26.3526 35.2866 42.5389 35.2866V25.2866ZM23.231 5.97868C23.231 4.48007 23.4008 3.02733 23.7201 1.63629L13.9736 -0.601138C13.487 1.51868 13.231 3.72188 13.231 5.97868H23.231ZM5 24.2096C5 15.044 11.3914 7.35913 19.9656 5.39082L17.7281 -4.35566C4.71174 -1.36758 -5 10.2809 -5 24.2096H5ZM24.3079 43.5176C13.6445 43.5176 5 34.8731 5 24.2096H-5C-5 40.396 8.12161 53.5176 24.3079 53.5176V43.5176ZM43.1268 28.552C41.1585 37.1262 33.4736 43.5176 24.3079 43.5176V53.5176C38.2367 53.5176 49.8852 43.8058 52.8732 30.7895L43.1268 28.552Z" fill="#1E293D" mask="url(#path-1-inside-1_43_1002)"/>
</svg>
