<svg width="48" height="48" viewBox="0 0 48 48" fill="none" xmlns="http://www.w3.org/2000/svg">
<path d="M0 29.2579C0 26.604 0.831569 24.2501 2.49471 22.1731C4.15784 20.0962 6.25987 18.7577 8.82387 18.1807C9.53994 15.0191 11.18 12.4345 13.6978 10.4036C16.2156 8.37283 19.1261 7.35742 22.3831 7.35742C25.5707 7.35742 28.4119 8.34975 30.9066 10.3113C33.4013 12.2729 35.0183 14.8114 35.7575 17.9038H36.5197C38.5987 17.9038 40.5159 18.4115 42.2714 19.4038C44.0269 20.3962 45.436 21.7808 46.4524 23.5347C47.4687 25.2886 48 27.1809 48 29.2579C48 31.2887 47.5149 33.181 46.5448 34.9118C45.5746 36.6426 44.2348 38.0273 42.5486 39.0658C40.8624 40.1043 38.9913 40.6581 36.9817 40.7274H11.0876C7.9923 40.5889 5.3821 39.4119 3.23388 37.1965C1.08566 35.0042 0 32.3503 0 29.2579ZM3.94995 29.2579C3.94995 31.2656 4.64293 32.9964 6.02887 34.4734C7.41482 35.9503 9.10106 36.735 11.0876 36.8503H36.9355C38.922 36.758 40.6083 35.9503 41.9942 34.4734C43.4033 32.9964 44.0962 31.2425 44.0962 29.2579C44.0962 27.2271 43.334 25.4963 41.8325 24.0193C40.3311 22.5424 38.5525 21.8039 36.4735 21.8039H32.7777C32.5236 21.8039 32.385 21.6654 32.385 21.3885L32.2233 20.0731C31.9692 17.5807 30.8835 15.4807 28.9894 13.796C27.0953 12.1114 24.9009 11.2575 22.3831 11.2575C19.8653 11.2575 17.6477 12.1114 15.7998 13.796C13.9288 15.4807 12.8662 17.5807 12.6352 20.0731L12.4504 21.3885C12.4504 21.6654 12.2887 21.8039 11.9885 21.8039H10.7642C8.82387 22.0347 7.20693 22.8654 5.91338 24.2732C4.61983 25.6809 3.94995 27.3425 3.94995 29.2579Z" fill="#1E293D"/>
</svg>
