<svg width="48" height="48" viewBox="0 0 48 48" fill="none" xmlns="http://www.w3.org/2000/svg">
<path d="M0 31.8041C0 29.2441 0.773125 26.9931 2.34146 25.007C3.9098 23.0208 5.91993 21.7629 8.39393 21.2112C8.90198 18.9381 9.94017 16.952 11.4864 15.2527C13.0327 13.5534 14.9103 12.3397 17.075 11.6114C18.4445 11.148 19.8583 10.9052 21.3382 10.9052C23.1275 10.9052 24.8725 11.2583 26.5292 11.9645C27.1477 10.9273 27.8767 10.0225 28.7161 9.27215C29.5555 8.52182 30.4169 7.92597 31.3005 7.52873C32.1841 7.1315 33.0676 6.82254 33.907 6.62393C34.7464 6.42531 35.5858 6.33704 36.381 6.33704C37.2204 6.33704 38.1261 6.44738 39.098 6.69013L40.9093 7.24184C41.2186 7.37426 41.3069 7.52873 41.2186 7.72735L40.9093 9.05146C40.7547 9.73558 40.6884 10.3756 40.6884 10.9494C40.6884 11.6335 40.7989 12.3397 41.0198 13.0459C41.2407 13.752 41.5499 14.4362 41.9917 15.1203C42.4114 15.8044 43.0078 16.4003 43.7589 16.952C44.5099 17.5037 45.3493 17.923 46.2991 18.2099L47.6687 18.6954C47.8896 18.7616 48 18.8719 48 19.0485C48 19.0926 47.9779 19.1368 47.9558 19.203L47.5582 20.6816C46.9618 23.065 45.8352 24.9408 44.2448 26.3532C45.1284 27.898 45.6144 29.5531 45.6806 31.2965C45.7027 31.4068 45.7027 31.5613 45.7027 31.8041C45.7027 33.7682 45.2167 35.5999 44.2227 37.2771C43.2508 38.9543 41.9034 40.2784 40.2467 41.2494C38.5679 42.2204 36.7345 42.728 34.7685 42.728H10.89C8.92407 42.728 7.09066 42.2425 5.41187 41.2494C3.73309 40.2563 2.42982 38.9322 1.45789 37.2771C0.485965 35.6219 0 33.7902 0 31.8041ZM3.77727 31.8041C3.77727 33.7682 4.48412 35.4674 5.89784 36.9019C7.31155 38.3364 8.96825 39.0646 10.89 39.0646H34.7685C36.7345 39.0646 38.4133 38.3584 39.8049 36.924C41.1965 35.4895 41.9034 33.7902 41.9034 31.8041C41.9034 29.8621 41.1965 28.2069 39.7828 26.8166C38.3691 25.4263 36.6903 24.7201 34.7464 24.7201H30.8145L30.5936 23.065C30.3728 20.836 29.445 18.9161 27.8104 17.3492C26.1758 15.7824 24.2319 14.8996 22.0009 14.701C21.9347 14.701 21.8242 14.701 21.6696 14.6789C21.515 14.6569 21.4266 14.6569 21.3382 14.6569C20.2117 14.6569 19.0851 14.8775 17.9365 15.2968V15.2527C16.324 15.8706 14.9544 16.8858 13.8721 18.2761C12.7676 19.6664 12.1049 21.2553 11.884 23.065L11.7294 24.6539L10.2273 24.7201C8.37184 24.9408 6.82559 25.7132 5.58859 27.0594C4.35159 28.4055 3.77727 29.9724 3.77727 31.8041ZM29.7322 13.9065C32.0736 15.9148 33.5315 18.254 34.0838 20.9243H34.7906C37.5297 20.9243 39.8711 21.785 41.7929 23.5284C42.5219 22.8443 43.0741 22.0498 43.4717 21.1671C41.4616 20.2181 39.8711 18.7616 38.7004 16.8196C37.5518 14.8775 36.9554 12.8252 36.9554 10.6845V10.1549C36.8449 10.1328 36.6682 10.1328 36.4252 10.1328C35.144 10.1107 33.885 10.4197 32.67 11.1038C31.4551 11.7659 30.4611 12.6928 29.7322 13.9065Z" fill="#1E293D"/>
</svg>
