<svg width="48" height="49" viewBox="0 0 48 49" fill="none" xmlns="http://www.w3.org/2000/svg">
<path d="M0 22.5907C0 19.9304 0.833574 17.5709 2.50072 15.4889C4.16787 13.4069 6.27496 12.0883 8.822 11.4869C9.5398 8.34076 11.1838 5.74986 13.7077 3.71415C16.2315 1.67844 19.1259 0.683716 22.3907 0.683716C25.5861 0.683716 28.411 1.67844 30.9117 3.64475C33.4124 5.61106 35.0333 8.1557 35.7742 11.2555H36.5152C38.576 11.2555 40.4978 11.7645 42.2576 12.7592C44.0174 13.7539 45.4298 15.1419 46.4486 16.8769C47.4674 18.6118 48 20.5319 48 22.5907C48 24.6264 47.5137 26.5002 46.5412 28.2352C45.5687 29.9702 44.2258 31.3582 42.5355 32.3991C40.8451 33.4401 38.9928 33.9953 36.9783 34.0416C36.6773 34.0416 36.5152 33.9028 36.5152 33.6483V30.5716C36.5152 30.294 36.6773 30.1552 36.9783 30.1552C38.9465 30.0627 40.6368 29.2762 42.026 27.7957C43.4153 26.3152 44.11 24.5802 44.11 22.5676C44.11 20.555 43.3459 18.82 41.8408 17.3395C40.3357 15.859 38.5528 15.1187 36.492 15.1187H32.7641C32.4863 15.1187 32.3473 14.98 32.3473 14.7255L32.1621 13.3838C31.9074 10.8854 30.8191 8.78029 28.9436 7.11471C27.0449 5.42599 24.8683 4.5932 22.3444 4.5932C19.8205 4.5932 17.5977 5.42599 15.7453 7.11471C13.8698 8.80342 12.8278 10.8854 12.5962 13.3838L12.4342 14.6098C12.4342 14.8874 12.2721 15.0493 11.9711 15.0493L10.7438 15.1187C8.822 15.3501 7.20116 16.1829 5.88133 17.594C4.5615 19.0051 3.91317 20.6707 3.91317 22.5907C3.91317 24.6033 4.60781 26.3383 5.99711 27.8188C7.3864 29.2993 9.0767 30.0858 11.0449 30.1784C11.2996 30.1784 11.4385 30.3172 11.4385 30.5948V33.6715C11.4385 33.9259 11.2996 34.0647 11.0449 34.0647C7.94211 33.9259 5.32562 32.7461 3.17221 30.5254C1.01881 28.3046 0 25.6674 0 22.5907ZM12.3878 38.0667C12.3878 37.9742 12.411 37.8123 12.4805 37.6041L16.2547 24.2563C16.3936 23.8168 16.6483 23.4698 16.9957 23.2385C17.343 23.0071 17.7135 22.8915 18.0608 22.8915C18.2229 22.8915 18.4081 22.9146 18.6165 22.9609C19.1722 23.0534 19.589 23.3541 19.8669 23.8168C20.1447 24.2794 20.2142 24.7884 20.0521 25.3667L16.2779 38.6219C16 39.6167 15.3517 40.1025 14.3792 40.1025C14.2865 40.1025 14.2171 40.0793 14.1245 40.0562C13.9855 40.0099 13.9161 39.9868 13.8929 39.9868C13.3835 39.848 13.013 39.5935 12.7583 39.2234C12.5036 38.8301 12.3878 38.46 12.3878 38.0667ZM18.4544 44.5671L24.1042 24.2794C24.1968 23.8399 24.4284 23.4929 24.7988 23.2616C25.1693 23.0303 25.5398 22.9146 25.9334 22.9146C26.1418 22.9146 26.3502 22.9377 26.5586 22.984C27.068 23.1228 27.4385 23.4235 27.6932 23.8862C27.9479 24.3488 27.9942 24.8346 27.8553 25.3667L22.2287 45.6775C22.136 46.0708 21.9276 46.3947 21.5572 46.6722C21.1867 46.9498 20.8162 47.0886 20.3763 47.0886C20.1679 47.0886 19.9595 47.0424 19.7974 46.973C19.3343 46.8573 18.9407 46.5566 18.5933 46.0708C18.3386 45.6544 18.2923 45.1686 18.4544 44.5671ZM28.0174 38.113C28.0174 38.0205 28.0405 37.8585 28.11 37.581L31.8842 24.2332C32.0232 23.7936 32.2547 23.4467 32.5789 23.2153C32.9262 22.984 33.2735 22.8683 33.644 22.8683C33.8292 22.8683 34.0376 22.8915 34.246 22.9377C34.7323 23.0765 35.0796 23.3079 35.3111 23.6549C35.5427 24.0018 35.6585 24.372 35.6585 24.7421C35.6585 24.8115 35.6353 24.9272 35.6122 25.066C35.589 25.2048 35.5658 25.2973 35.5658 25.3436L31.7916 38.5988C31.699 39.0383 31.4906 39.4085 31.1433 39.6629C30.7959 39.9174 30.4023 40.0562 29.9624 40.0562L29.4067 39.9405C28.9436 39.8017 28.5962 39.5704 28.3415 39.2003C28.1331 38.8533 28.0174 38.4831 28.0174 38.113Z" fill="#1E293D"/>
</svg>
