<svg width="49" height="48" viewBox="0 0 49 48" fill="none" xmlns="http://www.w3.org/2000/svg">
<path fill-rule="evenodd" clip-rule="evenodd" d="M38.1738 8.21229C37.6841 8.21349 37.1952 8.24947 36.7106 8.31997C35.3437 6.4471 33.5539 4.92345 31.4868 3.87304C29.4197 2.82263 27.1338 2.27515 24.8152 2.27515C22.4965 2.27515 20.2106 2.82263 18.1435 3.87304C16.0765 4.92345 14.2866 6.4471 12.9197 8.31997C12.4352 8.24923 11.9462 8.21325 11.4565 8.21229C10.0703 8.17807 8.69134 8.42153 7.4007 8.92835C6.11005 9.43516 4.93385 10.1951 3.94136 11.1634C2.94886 12.1317 2.16013 13.2888 1.62161 14.5665C1.08309 15.8442 0.805664 17.2168 0.805664 18.6034C0.805664 19.99 1.08309 21.3626 1.62161 22.6403C2.16013 23.9181 2.94886 25.0751 3.94136 26.0434C4.93385 27.0117 6.11005 27.7717 7.4007 28.2785C8.69134 28.7853 10.0703 29.0288 11.4565 28.9945C12.7144 28.9965 13.3253 28.95 14.5 28.5L17.5 25.5C17.5 25.5 13.4303 25.8642 12.1474 25.9864C10.8645 26.1085 9.57194 25.8943 8.39705 25.3649C7.22215 24.8354 6.20547 24.009 5.44717 22.9671C4.68887 21.9251 4.21513 20.7036 4.07261 19.4228C3.93009 18.142 4.12372 16.8462 4.63442 15.6631C5.14512 14.4799 5.95527 13.4502 6.98504 12.6755C8.01481 11.9007 9.22867 11.4076 10.507 11.2447C11.7854 11.0819 13.0841 11.2549 14.2752 11.7467C15.2555 9.79213 16.7602 8.14873 18.621 7.00029C20.4818 5.85184 22.6253 5.24361 24.812 5.24361C26.9987 5.24361 29.1422 5.85184 31.003 7.00029C32.8638 8.14873 34.3685 9.79213 35.3488 11.7467C36.5408 11.2515 37.8414 11.0757 39.1222 11.2367C40.4029 11.3976 41.6195 11.8897 42.652 12.6644C43.6845 13.4391 44.4972 14.4696 45.0098 15.6543C45.5224 16.8389 45.7173 18.1368 45.5751 19.4197C45.433 20.7027 44.9588 21.9264 44.1993 22.9702C43.4398 24.0139 42.4213 24.8416 41.2443 25.3715C40.0673 25.9014 38.7724 26.1153 37.4875 25.992C36.2026 25.8686 34.972 25.4124 33.9173 24.6683C32.9393 25.826 31.7534 26.7906 30.4209 27.5123L29.154 31.2495C31.1105 30.6517 32.9221 29.6553 34.4747 28.3231C35.6492 28.7737 36.8968 29.0034 38.1548 29.0009C39.541 29.0351 40.92 28.7916 42.2106 28.2848C43.5013 27.778 44.6775 27.0181 45.67 26.0498C46.6625 25.0815 47.4512 23.9244 47.9897 22.6467C48.5282 21.3689 48.8057 19.9963 48.8057 18.6097C48.8057 17.2232 48.5282 15.8506 47.9897 14.5728C47.4512 13.2951 46.6625 12.138 45.67 11.1697C44.6775 10.2014 43.5013 9.4415 42.2106 8.93468C40.92 8.42786 39.541 8.1844 38.1548 8.21863L38.1738 8.21229Z" fill="#1E293D"/>
<path fill-rule="evenodd" clip-rule="evenodd" d="M19.3678 34.5369L22.3385 37.5076L19.3678 46.4134L28.2799 37.5076L25.3092 34.5369L28.2799 25.6312L19.3678 34.5369Z" fill="#1E293D"/>
<path fill-rule="evenodd" clip-rule="evenodd" d="M34.0628 32.5797C33.3785 32.5785 32.7092 32.7802 32.1396 33.1595C31.5701 33.5388 31.1258 34.0784 30.8631 34.7103C30.6003 35.3421 30.5309 36.0377 30.6637 36.709C30.7964 37.3803 31.1253 37.9971 31.6087 38.4814C32.0921 38.9657 32.7083 39.2957 33.3794 39.4297C34.0504 39.5636 34.7461 39.4955 35.3784 39.2339C36.0107 38.9724 36.5513 38.5291 36.9316 37.9602C37.3119 37.3913 37.5148 36.7224 37.5148 36.0382C37.5157 35.5843 37.427 35.1347 37.2539 34.7152C37.0808 34.2956 36.8266 33.9143 36.506 33.5931C36.1854 33.2718 35.8045 33.017 35.3853 32.8431C34.966 32.6692 34.5166 32.5797 34.0628 32.5797Z" fill="#1E293D"/>
<path fill-rule="evenodd" clip-rule="evenodd" d="M10.5 34.5369L13.4707 37.5076L10.5 46.4134L19.4121 37.5076L16.4414 34.5369L19.4121 25.6312L10.5 34.5369Z" fill="#1E293D"/>
</svg>
