<svg width="48" height="48" viewBox="0 0 48 48" fill="none" xmlns="http://www.w3.org/2000/svg">
<path fill-rule="evenodd" clip-rule="evenodd" d="M37.3681 8.93715C36.8785 8.93834 36.3895 8.97432 35.905 9.04482C34.538 7.17195 32.7482 5.6483 30.6811 4.59789C28.614 3.54748 26.3282 3 24.0095 3C21.6908 3 19.405 3.54748 17.3379 4.59789C15.2708 5.6483 13.481 7.17195 12.114 9.04482C11.6295 8.97409 11.1405 8.9381 10.6509 8.93715C9.26468 8.90292 7.88568 9.14638 6.59503 9.6532C5.30439 10.16 4.12819 10.9199 3.13569 11.8882C2.1432 12.8565 1.35447 14.0136 0.815949 15.2914C0.277428 16.5691 0 17.9417 0 19.3283C0 20.7149 0.277428 22.0874 0.815949 23.3652C1.35447 24.6429 2.1432 25.8 3.13569 26.7683C4.12819 27.7366 5.30439 28.4965 6.59503 29.0033C7.88568 29.5101 9.26468 29.7536 10.6509 29.7194C11.9088 29.7214 13.1563 29.4916 14.331 29.0416C15.4702 30.0162 16.7519 30.8109 18.1314 31.3979L20.4434 29.0923C18.2869 28.4044 16.3681 27.1223 14.9074 25.3932C13.8535 26.1348 12.6246 26.5891 11.3417 26.7112C10.0588 26.8334 8.76628 26.6192 7.59138 26.0897C6.41649 25.5603 5.39981 24.7339 4.64151 23.6919C3.88321 22.65 3.40946 21.4284 3.26694 20.1477C3.12443 18.8669 3.31806 17.5711 3.82876 16.3879C4.33946 15.2048 5.14961 14.1751 6.17938 13.4003C7.20915 12.6256 8.423 12.1325 9.70135 11.9696C10.9797 11.8067 12.2784 11.9797 13.4695 12.4716C14.4515 10.5189 15.9568 8.87749 17.8174 7.73055C19.6779 6.58361 21.8206 5.97625 24.0063 5.97625C26.192 5.97625 28.3347 6.58361 30.1953 7.73055C32.0559 8.87749 33.5612 10.5189 34.5431 12.4716C35.7363 11.9738 37.0388 11.7959 38.3218 11.9556C39.6048 12.1153 40.8239 12.607 41.8586 13.3822C42.8934 14.1573 43.7079 15.189 44.2218 16.3754C44.7357 17.5618 44.9311 18.8617 44.7888 20.1467C44.6464 21.4318 44.1712 22.6574 43.4101 23.7025C42.649 24.7476 41.6283 25.5761 40.449 26.1059C39.2697 26.6358 37.9725 26.8487 36.6857 26.7237C35.3989 26.5987 34.1669 26.1401 33.1116 25.3932C32.1331 26.5486 30.9472 27.511 29.6152 28.2309L28.3484 31.968C30.3049 31.3702 32.1164 30.3738 33.669 29.0416C34.8435 29.4922 36.0912 29.7219 37.3491 29.7194C38.7353 29.7536 40.1143 29.5101 41.405 29.0033C42.6956 28.4965 43.8718 27.7366 44.8643 26.7683C45.8568 25.8 46.6455 24.6429 47.184 23.3652C47.7226 22.0874 48 20.7149 48 19.3283C48 17.9417 47.7226 16.5691 47.184 15.2914C46.6455 14.0136 45.8568 12.8565 44.8643 11.8882C43.8718 10.9199 42.6956 10.16 41.405 9.6532C40.1143 9.14638 38.7353 8.90292 37.3491 8.93715H37.3681Z" fill="#1E293D"/>
<path d="M21.3493 42.4254C21.2526 42.4375 21.1547 42.4375 21.058 42.4254C20.9044 42.3858 20.7603 42.3159 20.6341 42.2198C20.5079 42.1238 20.4022 42.0035 20.3231 41.866C20.2441 41.7285 20.1933 41.5766 20.1737 41.4193C20.1541 41.2619 20.1662 41.1022 20.2092 40.9495L24.5164 23.6828C24.5928 23.3778 24.7873 23.1158 25.0569 22.9542C25.3265 22.7927 25.6493 22.7449 25.9542 22.8213C26.2591 22.8977 26.5212 23.0922 26.6827 23.3618C26.8443 23.6315 26.8921 23.9543 26.8157 24.2592L22.5021 41.5259C22.4373 41.7827 22.2888 42.0105 22.08 42.1734C21.8713 42.3363 21.6141 42.425 21.3493 42.4254Z" fill="#1E293D"/>
<path d="M35.227 40.8547C35.227 41.1033 35.1283 41.3418 34.9525 41.5176C34.7767 41.6934 34.5382 41.7921 34.2896 41.7921H26.828C26.5822 41.7888 26.3476 41.6884 26.1755 41.5127C26.0035 41.3371 25.9079 41.1005 25.9096 40.8547C25.9096 40.6077 26.0077 40.3709 26.1823 40.1963C26.3569 40.0217 26.5937 39.9236 26.8407 39.9236H34.2896C34.4124 39.9227 34.5342 39.9462 34.6479 39.9926C34.7616 40.039 34.865 40.1075 34.9521 40.194C35.0392 40.2806 35.1084 40.3835 35.1556 40.4969C35.2028 40.6103 35.227 40.7319 35.227 40.8547Z" fill="#1E293D"/>
<path d="M32.8773 44.8958C32.6619 45.0149 32.4083 45.0444 32.1713 44.978C31.9342 44.9117 31.7328 44.7547 31.6105 44.5411L27.8797 38.0803C27.7574 37.8676 27.7241 37.6151 27.787 37.3779C27.8498 37.1406 28.0038 36.9378 28.2154 36.8135C28.321 36.7524 28.4375 36.7127 28.5585 36.6968C28.6794 36.681 28.8023 36.6891 28.92 36.7209C29.0378 36.7527 29.1481 36.8075 29.2445 36.8821C29.341 36.9567 29.4218 37.0496 29.4822 37.1556L33.213 43.6164C33.3353 43.8291 33.3687 44.0816 33.3058 44.3188C33.2429 44.5561 33.089 44.7589 32.8773 44.8832V44.8958Z" fill="#1E293D"/>
<path d="M32.8773 36.82C33.089 36.9443 33.2429 37.1471 33.3058 37.3843C33.3687 37.6215 33.3353 37.874 33.213 38.0868L29.5013 44.5413C29.3768 44.7527 29.1745 44.9069 28.9377 44.9709C28.7008 45.0348 28.4484 45.0034 28.2344 44.8833C28.0228 44.759 27.8688 44.5562 27.806 44.3189C27.7431 44.0817 27.7764 43.8293 27.8987 43.6165L31.6105 37.162C31.6709 37.0561 31.7517 36.9631 31.8482 36.8885C31.9447 36.8139 32.055 36.7592 32.1728 36.7274C32.2905 36.6956 32.4134 36.6874 32.5343 36.7033C32.6552 36.7192 32.7718 36.7588 32.8773 36.82Z" fill="#1E293D"/>
<path d="M44.9121 36.0724C44.9121 36.3193 44.814 36.5562 44.6394 36.7308C44.4648 36.9054 44.2279 37.0035 43.981 37.0035H36.5447C36.2978 37.0035 36.0609 36.9054 35.8863 36.7308C35.7117 36.5562 35.6136 36.3193 35.6136 36.0724C35.6136 35.8254 35.7117 35.5886 35.8863 35.414C36.0609 35.2394 36.2978 35.1413 36.5447 35.1413H44.0063C44.2488 35.1479 44.4792 35.2489 44.6484 35.4228C44.8176 35.5967 44.9122 35.8298 44.9121 36.0724Z" fill="#1E293D"/>
<path d="M42.6066 40.1073C42.501 40.1684 42.3844 40.2081 42.2635 40.224C42.1426 40.2398 42.0197 40.2317 41.902 40.1999C41.7842 40.1681 41.6739 40.1133 41.5774 40.0387C41.4809 39.9641 41.4002 39.8712 41.3397 39.7652L37.6089 33.3044C37.4889 33.0905 37.4574 32.8381 37.5214 32.6012C37.5853 32.3644 37.7396 32.162 37.951 32.0376C38.1649 31.9175 38.4174 31.8861 38.6542 31.95C38.8911 32.014 39.0934 32.1682 39.2178 32.3797L42.9486 38.8405C43.0097 38.946 43.0494 39.0626 43.0653 39.1835C43.0812 39.3044 43.073 39.4273 43.0412 39.545C43.0094 39.6628 42.9546 39.7731 42.88 39.8696C42.8054 39.9661 42.7125 40.0469 42.6066 40.1073Z" fill="#1E293D"/>
<path d="M42.6065 32.0313C42.7124 32.0917 42.8053 32.1725 42.8799 32.269C42.9545 32.3655 43.0093 32.4758 43.0411 32.5935C43.0729 32.7113 43.0811 32.8341 43.0652 32.9551C43.0493 33.076 43.0096 33.1926 42.9485 33.2981L39.2114 39.7652C39.1509 39.8712 39.0702 39.9641 38.9737 40.0387C38.8772 40.1133 38.7669 40.1681 38.6491 40.1999C38.5314 40.2317 38.4085 40.2398 38.2876 40.224C38.1667 40.2081 38.0501 40.1684 37.9445 40.1073C37.7331 39.9829 37.5789 39.7805 37.5149 39.5437C37.451 39.3069 37.4824 39.0544 37.6025 38.8405L41.3333 32.3797C41.4577 32.1682 41.66 32.014 41.8969 31.95C42.1337 31.8861 42.3862 31.9175 42.6001 32.0376L42.6065 32.0313Z" fill="#1E293D"/>
<path d="M11.3417 42.4254C11.3417 43.0225 11.5789 43.5951 12.0011 44.0172C12.4233 44.4394 12.9959 44.6766 13.5929 44.6766C14.19 44.6766 14.7626 44.4394 15.1848 44.0172C15.6069 43.5951 15.8441 43.0225 15.8441 42.4254C15.8441 41.1822 13.5929 37.923 13.5929 37.923C13.5929 37.923 11.3417 41.1822 11.3417 42.4254Z" fill="#1E293D"/>
<path d="M4.64151 36.8885C4.64151 37.4856 4.87869 38.0582 5.30087 38.4804C5.72305 38.9026 6.29565 39.1397 6.89271 39.1397C7.48977 39.1397 8.06236 38.9026 8.48455 38.4804C8.90673 38.0582 9.14391 37.4856 9.14391 36.8885C9.14391 35.6453 6.89271 32.3861 6.89271 32.3861C6.89271 32.3861 4.64151 35.6453 4.64151 36.8885Z" fill="#1E293D"/>
</svg>
