<svg width="48" height="48" viewBox="0 0 48 48" fill="none" xmlns="http://www.w3.org/2000/svg">
<path d="M20.0755 4.93862C20.238 4.93862 20.3988 4.90654 20.5487 4.84423C20.6987 4.78192 20.8349 4.69061 20.9495 4.57552C21.0641 4.46044 21.1548 4.32385 21.2165 4.17361C21.2782 4.02336 21.3096 3.86242 21.3089 3.70001V1.23334C21.3089 0.906236 21.1789 0.592532 20.9476 0.361236C20.7163 0.129941 20.4026 0 20.0755 0C19.7484 0 19.4347 0.129941 19.2034 0.361236C18.9721 0.592532 18.8422 0.906236 18.8422 1.23334V3.70001C18.8415 3.86242 18.8729 4.02336 18.9346 4.17361C18.9962 4.32385 19.087 4.46044 19.2016 4.57552C19.3162 4.69061 19.4524 4.78192 19.6023 4.84423C19.7523 4.90654 19.9131 4.93862 20.0755 4.93862Z" fill="#1E293D"/>
<path d="M29.6682 8.18535L31.4128 6.44076C31.5277 6.32621 31.6189 6.19015 31.6812 6.04035C31.7435 5.89055 31.7757 5.72994 31.7759 5.56769C31.7762 5.40545 31.7445 5.24474 31.6826 5.09475C31.6207 4.94477 31.5299 4.80843 31.4154 4.69353C31.3008 4.57863 31.1648 4.48742 31.015 4.42511C30.8652 4.3628 30.7046 4.3306 30.5423 4.33035C30.3801 4.33011 30.2194 4.36182 30.0694 4.42368C29.9194 4.48555 29.7831 4.57635 29.6682 4.6909L27.9183 6.44603C27.6877 6.67808 27.5586 6.99224 27.5596 7.31942C27.5606 7.64659 27.6915 7.95997 27.9236 8.19062C28.1556 8.42127 28.4698 8.55029 28.797 8.5493C29.1241 8.54832 29.4375 8.4174 29.6682 8.18535Z" fill="#1E293D"/>
<path d="M5.23334 17.2878H7.70528C8.03238 17.2878 8.34609 17.1579 8.57738 16.9266C8.80868 16.6953 8.93862 16.3816 8.93862 16.0545C8.93862 15.7274 8.80868 15.4137 8.57738 15.1824C8.34609 14.9511 8.03238 14.8211 7.70528 14.8211H5.23334C4.90624 14.8211 4.59253 14.9511 4.36124 15.1824C4.12994 15.4137 4 15.7274 4 16.0545C4 16.3816 4.12994 16.6953 4.36124 16.9266C4.59253 17.1579 4.90624 17.2878 5.23334 17.2878Z" fill="#1E293D"/>
<path d="M31.1756 16.0545C31.177 16.382 31.3081 16.6957 31.5402 16.9269C31.7724 17.158 32.0866 17.2878 32.4142 17.2878H34.8809C35.208 17.2878 35.5217 17.1579 35.753 16.9266C35.9843 16.6953 36.1142 16.3816 36.1142 16.0545C36.1142 15.7274 35.9843 15.4137 35.753 15.1824C35.5217 14.9511 35.208 14.8211 34.8809 14.8211H32.4142C32.0866 14.8211 31.7724 14.9509 31.5402 15.182C31.3081 15.4132 31.177 15.7269 31.1756 16.0545Z" fill="#1E293D"/>
<path d="M10.4513 8.18535C10.6826 8.4167 10.9964 8.54667 11.3236 8.54667C11.6508 8.54667 11.9645 8.4167 12.1959 8.18535C12.4272 7.954 12.5572 7.64023 12.5572 7.31306C12.5572 6.98588 12.4272 6.67211 12.1959 6.44076L10.4513 4.69617C10.3368 4.58127 10.2007 4.49006 10.0509 4.42775C9.90109 4.36543 9.74048 4.33323 9.57823 4.33299C9.41599 4.33274 9.25528 4.36446 9.1053 4.42632C8.95531 4.48818 8.81897 4.57898 8.70407 4.69353C8.58918 4.80808 8.49797 4.94414 8.43565 5.09395C8.37334 5.24375 8.34114 5.40436 8.34089 5.5666C8.34065 5.72885 8.37236 5.88955 8.43423 6.03954C8.49609 6.18953 8.58689 6.32586 8.70144 6.44076L10.4513 8.18535Z" fill="#1E293D"/>
<path d="M34.8809 19.7808C34.4734 19.7816 34.0665 19.8116 33.6633 19.8704C32.3832 18.1299 30.6671 16.7574 28.6878 15.8911C28.6757 14.7566 28.4403 13.6357 27.9949 12.5922C27.5496 11.5488 26.9031 10.6033 26.0924 9.80966C24.455 8.2069 22.2481 7.32022 19.957 7.34468C18.8225 7.35679 17.7016 7.59223 16.6581 8.03755C15.6147 8.48288 14.6691 9.12936 13.8755 9.9401C12.2728 11.5775 11.3861 13.7844 11.4106 16.0755C11.4242 17.362 11.7287 18.6287 12.3013 19.7808C10.0569 19.8902 7.94364 20.8704 6.41039 22.513C4.87713 24.1557 4.04472 26.3314 4.09001 28.578C4.1353 30.8245 5.05471 32.9649 6.65293 34.5445C8.25114 36.124 10.4022 37.0181 12.6492 37.037C13.6959 37.0391 14.7341 36.8479 15.7114 36.473C17.9382 38.4295 20.8009 39.5085 23.765 39.5085C26.7291 39.5085 29.5919 38.4295 31.8186 36.473C32.7959 36.8479 33.8341 37.0391 34.8809 37.037C36.0343 37.0655 37.1818 36.8629 38.2557 36.4412C39.3297 36.0194 40.3084 35.3871 41.1343 34.5814C41.9602 33.7757 42.6165 32.8128 43.0646 31.7496C43.5127 30.6864 43.7435 29.5443 43.7435 28.3905C43.7435 27.2367 43.5127 26.0945 43.0646 25.0313C42.6165 23.9681 41.9602 23.0053 41.1343 22.1996C40.3084 21.3938 39.3297 20.7615 38.2557 20.3398C37.1818 19.918 36.0343 19.7155 34.8809 19.7439V19.7808ZM20.0755 9.87724C21.5375 9.88278 22.9499 10.408 24.0603 11.3591C25.1707 12.3101 25.9067 13.6251 26.1368 15.0688C24.0478 14.6389 21.8823 14.7698 19.8603 15.4484C17.8384 16.1271 16.0323 17.3291 14.6257 18.9322C14.145 18.0487 13.8897 17.0603 13.8825 16.0545C13.8825 15.2419 14.0428 14.4374 14.3542 13.6869C14.6657 12.9364 15.1221 12.2547 15.6974 11.6809C16.2726 11.1071 16.9555 10.6524 17.7068 10.3429C18.458 10.0334 19.263 9.87516 20.0755 9.87724ZM34.8809 34.5861C33.6113 34.5846 32.3736 34.1887 31.339 33.4529C30.4231 34.5779 29.2682 35.4847 27.9581 36.1075C26.648 36.7303 25.2156 37.0534 23.765 37.0534C22.3144 37.0534 20.882 36.7303 19.5719 36.1075C18.2618 35.4847 17.1069 34.5779 16.1911 33.4529C15.3973 34.0109 14.4832 34.3739 13.5229 34.5124C12.5626 34.6509 11.5832 34.5611 10.6641 34.2502C9.74501 33.9393 8.91217 33.4161 8.23316 32.723C7.55415 32.03 7.04808 31.1867 6.75604 30.2614C6.464 29.3362 6.3942 28.3551 6.55231 27.3979C6.71042 26.4406 7.09199 25.5341 7.66604 24.7519C8.2401 23.9697 8.99048 23.3339 9.85629 22.896C10.7221 22.4581 11.6789 22.2305 12.6492 22.2317C13.2287 22.2392 13.8041 22.3315 14.3569 22.5058C14.5736 22.5564 14.7866 22.6216 14.9946 22.7008C15.3378 22.0463 15.7513 21.4313 16.228 20.8666C17.6583 19.1254 19.6474 17.933 21.8572 17.492C24.067 17.051 26.3613 17.3886 28.3505 18.4473C30.1586 19.3996 31.6305 20.8844 32.567 22.7008C33.4114 22.3515 34.3226 22.1939 35.2352 22.2393C36.1478 22.2847 37.0389 22.532 37.8444 22.9634C38.6499 23.3947 39.3496 23.9994 39.8933 24.7338C40.4369 25.4682 40.8108 26.3141 40.9881 27.2104C41.1653 28.1067 41.1416 29.0312 40.9185 29.9173C40.6954 30.8033 40.2785 31.6289 39.6978 32.3344C39.1172 33.0398 38.3873 33.6078 37.5607 33.9971C36.7341 34.3865 35.8315 34.5877 34.9178 34.5861H34.8809Z" fill="#1E293D"/>
<path fill-rule="evenodd" clip-rule="evenodd" d="M13.5557 45.3647C13.5557 45.7107 13.6239 46.0534 13.7563 46.3732C13.8888 46.6929 14.0829 46.9834 14.3276 47.2281C14.5723 47.4728 14.8628 47.667 15.1826 47.7994C15.5023 47.9318 15.845 48 16.1911 48C16.5371 48 16.8798 47.9318 17.1996 47.7994C17.5193 47.667 17.8098 47.4728 18.0545 47.2281C18.2992 46.9834 18.4934 46.6929 18.6258 46.3732C18.7582 46.0534 18.8264 45.7107 18.8264 45.3647C18.8264 43.91 16.1911 40.094 16.1911 40.094C16.1911 40.094 13.5557 43.91 13.5557 45.3647Z" fill="#1E293D"/>
<path d="M35.9561 44.0259C35.9561 44.2473 35.8685 44.4596 35.7125 44.6166C35.5565 44.7737 35.3447 44.8626 35.1233 44.864H28.4296C28.2073 44.864 27.9941 44.7757 27.837 44.6185C27.6798 44.4613 27.5915 44.2482 27.5915 44.0259C27.5915 43.8037 27.6798 43.5905 27.837 43.4333C27.9941 43.2762 28.2073 43.1879 28.4296 43.1879H35.1233C35.3447 43.1893 35.5565 43.2782 35.7125 43.4352C35.8685 43.5922 35.9561 43.8046 35.9561 44.0259Z" fill="#1E293D"/>
<path d="M33.8689 47.6679C33.6766 47.7788 33.4482 47.8089 33.2338 47.7516C33.0194 47.6943 32.8365 47.5543 32.7252 47.3623L29.3783 41.5645C29.3228 41.4699 29.2867 41.3652 29.272 41.2565C29.2574 41.1478 29.2645 41.0372 29.2929 40.9313C29.3213 40.8254 29.3706 40.7262 29.4377 40.6394C29.5048 40.5527 29.5886 40.4801 29.684 40.426C29.8762 40.3152 30.1046 40.2851 30.3191 40.3424C30.5335 40.3997 30.7164 40.5397 30.8277 40.7317L34.1746 46.5295C34.2855 46.7217 34.3156 46.9501 34.2583 47.1646C34.2009 47.379 34.0609 47.5619 33.8689 47.6732V47.6679Z" fill="#1E293D"/>
<path d="M33.8689 40.426C33.9643 40.4801 34.048 40.5527 34.1152 40.6394C34.1823 40.7262 34.2315 40.8254 34.26 40.9313C34.2884 41.0372 34.2955 41.1478 34.2809 41.2565C34.2662 41.3652 34.2301 41.4699 34.1746 41.5645L30.8277 47.3623C30.7164 47.5543 30.5335 47.6943 30.3191 47.7516C30.1046 47.8089 29.8762 47.7788 29.684 47.6679C29.5884 47.6133 29.5046 47.5403 29.4374 47.4531C29.3702 47.3659 29.3209 47.2662 29.2925 47.1599C29.2641 47.0535 29.257 46.9426 29.2717 46.8334C29.2865 46.7243 29.3227 46.6192 29.3783 46.5242L32.7252 40.7265C32.8365 40.5345 33.0194 40.3944 33.2338 40.3371C33.4482 40.2798 33.6766 40.3099 33.8689 40.4208V40.426Z" fill="#1E293D"/>
</svg>
