<svg width="48" height="48" viewBox="0 0 48 48" fill="none" xmlns="http://www.w3.org/2000/svg">
<path d="M38.5214 18.2227C38.9311 17.9372 39.3183 17.6207 39.6796 17.2761C40.7725 16.1755 41.6042 14.8433 42.113 13.3781C42.1981 13.145 42.2147 12.8924 42.1611 12.6501C42.1074 12.4078 41.9857 12.1859 41.8102 12.0104C41.6348 11.835 41.4128 11.7132 41.1705 11.6596C40.9282 11.6059 40.6757 11.6226 40.4425 11.7076C39.0531 12.2019 37.552 12.292 36.1135 11.9673C34.675 11.6427 33.358 10.9167 32.3156 9.87368C31.2731 8.83062 30.5478 7.51327 30.224 6.07456C29.9002 4.63586 29.9911 3.13481 30.4862 1.74569C30.5687 1.51269 30.5836 1.26105 30.5291 1.01994C30.4746 0.778818 30.3528 0.558077 30.178 0.383275C30.0032 0.208473 29.7825 0.0867606 29.5414 0.0322318C29.3003 -0.022297 29.0486 -0.00741156 28.8156 0.0751643C26.3266 0.929815 24.259 2.70466 23.0371 5.03551C21.8153 7.36636 21.5318 10.0765 22.2449 12.6097C20.5041 12.8353 18.8273 13.4128 17.3167 14.3069C15.8061 15.201 14.4932 16.3931 13.4579 17.8106C13.0318 17.7503 12.6019 17.7205 12.1716 17.7215C10.8291 17.7166 9.50203 18.0075 8.28473 18.5735C7.06743 19.1396 5.98982 19.967 5.12852 20.9967C4.26722 22.0265 3.64341 23.2334 3.30144 24.5316C2.95947 25.8298 2.90774 27.1874 3.14994 28.5078C3.39214 29.8283 3.92232 31.0792 4.70276 32.1715C5.48321 33.2638 6.49475 34.1707 7.66545 34.8278C8.83615 35.4848 10.1372 35.8759 11.4762 35.9731C12.8152 36.0703 14.1591 35.8713 15.4124 35.3902C17.761 37.4608 20.7844 38.6033 23.9154 38.6033C27.0464 38.6033 30.0698 37.4608 32.4184 35.3902C33.5519 35.82 34.7597 36.0195 35.9712 35.9769C37.1826 35.9342 38.3734 35.6504 39.4739 35.142C40.5744 34.6336 41.5624 33.9108 42.3801 33.0159C43.1978 32.1209 43.8288 31.0719 44.2361 29.9302C44.6435 28.7885 44.819 27.577 44.7525 26.3666C44.686 25.1561 44.3786 23.9712 43.8486 22.881C43.3185 21.7908 42.5763 20.8173 41.6654 20.0174C40.7545 19.2176 39.6932 18.6074 38.5437 18.2227H38.5214ZM35.6592 33.38C34.3162 33.3784 33.0068 32.9601 31.9117 32.1827C30.9464 33.3728 29.7276 34.3325 28.3442 34.9916C26.9608 35.6507 25.4478 35.9928 23.9154 35.9928C22.383 35.9928 20.87 35.6507 19.4866 34.9916C18.1032 34.3325 16.8845 33.3728 15.9191 32.1827C14.9927 32.8347 13.9123 33.2341 12.7845 33.3415C11.6567 33.4489 10.5204 33.2605 9.48752 32.7951C8.45465 32.3297 7.56086 31.6031 6.89423 30.6871C6.22759 29.7712 5.81111 28.6973 5.68582 27.5713C5.56054 26.4454 5.73076 25.3062 6.17972 24.2661C6.62869 23.2259 7.34091 22.3207 8.24619 21.6396C9.15148 20.9585 10.2186 20.525 11.3424 20.3818C12.4662 20.2387 13.608 20.3908 14.6551 20.8231C15.4788 19.2025 16.7126 17.8259 18.2338 16.8303C19.7549 15.8348 21.5103 15.2551 23.3252 15.1489C23.5256 15.1489 23.7149 15.1099 23.9154 15.1099C24.9387 15.1096 25.9561 15.2635 26.9335 15.5665C28.2017 15.9585 29.3831 16.5898 30.4138 17.4264C31.3812 18.2252 32.1978 19.1908 32.8249 20.2774C32.9363 20.4612 33.0588 20.6338 33.1534 20.8343C34.0455 20.4653 35.0082 20.2988 35.9724 20.3468C36.9365 20.3947 37.878 20.656 38.729 21.1117C39.5799 21.5674 40.3192 22.2063 40.8935 22.9821C41.4679 23.758 41.8629 24.6517 42.0502 25.5987C42.2375 26.5456 42.2124 27.5224 41.9767 28.4585C41.741 29.3946 41.3005 30.2667 40.6871 31.0121C40.0736 31.7574 39.3025 32.3574 38.4292 32.7688C37.5559 33.1802 36.6023 33.3927 35.637 33.3911L35.6592 33.38Z" fill="#1E293D"/>
<path fill-rule="evenodd" clip-rule="evenodd" d="M13.2074 45.1518C13.2074 45.9072 13.5075 46.6316 14.0417 47.1658C14.5758 47.6999 15.3003 48 16.0557 48C16.8111 48 17.5356 47.6999 18.0697 47.1658C18.6039 46.6316 18.9039 45.9072 18.9039 45.1518C18.9039 43.5815 16.0585 39.472 16.0585 39.472C16.0585 39.472 13.2074 43.5648 13.2074 45.1518Z" fill="#1E293D"/>
<path d="M37.3688 43.7152C37.3644 43.9511 37.2672 44.1757 37.0984 44.3404C36.9295 44.5051 36.7025 44.5966 36.4667 44.5951H29.2277C28.9996 44.5852 28.7839 44.4886 28.6245 44.3251C28.4652 44.1616 28.3742 43.9435 28.3702 43.7152C28.3702 43.476 28.4652 43.2465 28.6344 43.0774C28.8036 42.9082 29.033 42.8132 29.2723 42.8132H36.5112C36.6297 42.8132 36.747 42.8365 36.8564 42.8818C36.9659 42.9272 37.0653 42.9936 37.1491 43.0774C37.2329 43.1611 37.2993 43.2606 37.3446 43.37C37.39 43.4795 37.4133 43.5968 37.4133 43.7152H37.3688Z" fill="#1E293D"/>
<path d="M35.1137 47.624C34.9068 47.7433 34.6611 47.7756 34.4305 47.7141C34.1998 47.6525 34.0029 47.502 33.883 47.2955L30.2691 41.0421C30.1504 40.8346 30.1188 40.5884 30.1815 40.3577C30.2441 40.1269 30.3958 39.9305 30.6032 39.8115C30.7055 39.7517 30.8185 39.7128 30.9359 39.697C31.0533 39.6811 31.1726 39.6887 31.287 39.7192C31.4015 39.7498 31.5087 39.8027 31.6026 39.8749C31.6964 39.9472 31.775 40.0373 31.8339 40.14L35.4422 46.3878C35.5617 46.5955 35.5942 46.842 35.5327 47.0736C35.4711 47.3052 35.3205 47.5031 35.1137 47.624Z" fill="#1E293D"/>
<path d="M35.1138 39.8115C35.2165 39.8703 35.3067 39.949 35.3789 40.0428C35.4511 40.1367 35.504 40.2439 35.5346 40.3583C35.5651 40.4728 35.5727 40.5921 35.5569 40.7095C35.541 40.8268 35.5021 40.9399 35.4423 41.0421L31.834 47.2955C31.713 47.5008 31.5162 47.6504 31.2859 47.7119C31.0557 47.7733 30.8105 47.7418 30.6033 47.624C30.3955 47.504 30.2437 47.3065 30.1811 47.0749C30.1185 46.8432 30.1502 46.5962 30.2692 46.3878L33.8831 40.14C33.942 40.0373 34.0206 39.9472 34.1144 39.8749C34.2083 39.8027 34.3155 39.7498 34.43 39.7192C34.5444 39.6887 34.6637 39.6811 34.7811 39.697C34.8985 39.7128 35.0115 39.7517 35.1138 39.8115Z" fill="#1E293D"/>
</svg>
