<svg width="48" height="48" viewBox="0 0 48 48" fill="none" xmlns="http://www.w3.org/2000/svg">
<path d="M19.897 5.48636C20.0779 5.48408 20.2566 5.44599 20.4227 5.37427C20.5889 5.30256 20.7391 5.19865 20.8649 5.06854C20.9906 4.93843 21.0894 4.7847 21.1554 4.61622C21.2214 4.44775 21.2534 4.26786 21.2495 4.08696V1.37013C21.2495 1.00675 21.1052 0.658249 20.8482 0.4013C20.5913 0.144352 20.2428 0 19.8794 0C19.516 0 19.1675 0.144352 18.9106 0.4013C18.6536 0.658249 18.5093 1.00675 18.5093 1.37013V4.08696C18.5053 4.27082 18.5384 4.4536 18.6066 4.62439C18.6748 4.79519 18.7767 4.95051 18.9062 5.0811C19.0357 5.21168 19.1901 5.31486 19.3604 5.38449C19.5306 5.45411 19.7131 5.48876 19.897 5.48636Z" />
<path d="M30.5535 9.09909L32.4916 7.161C32.7494 6.904 32.8945 6.55511 32.895 6.1911C32.8956 5.82709 32.7515 5.47777 32.4945 5.21999C32.2375 4.96221 31.8886 4.81708 31.5246 4.81653C31.1606 4.81598 30.8113 4.96006 30.5535 5.21706L28.6096 7.161C28.3526 7.41878 28.2085 7.7681 28.209 8.13211C28.2096 8.49612 28.3547 8.84501 28.6125 9.10201C28.8703 9.35902 29.2196 9.5031 29.5836 9.50255C29.9476 9.502 30.2965 9.35687 30.5535 9.09909Z" />
<path d="M3.40867 19.2109H6.15478C6.34263 19.2232 6.531 19.1968 6.70824 19.1334C6.88548 19.0699 7.04782 18.9708 7.1852 18.8421C7.32259 18.7134 7.4321 18.5578 7.50697 18.3851C7.58184 18.2124 7.62047 18.0261 7.62047 17.8379C7.62047 17.6496 7.58184 17.4634 7.50697 17.2907C7.4321 17.1179 7.32259 16.9624 7.1852 16.8337C7.04782 16.705 6.88548 16.6059 6.70824 16.5424C6.531 16.479 6.34263 16.4526 6.15478 16.4648H3.40867C3.06001 16.4876 2.73308 16.6422 2.4942 16.8972C2.25532 17.1522 2.1224 17.4885 2.1224 17.8379C2.1224 18.1873 2.25532 18.5236 2.4942 18.7786C2.73308 19.0336 3.06001 19.1882 3.40867 19.2109Z" />
<path d="M32.228 17.835C32.228 18.1999 32.373 18.5499 32.631 18.8079C32.8891 19.066 33.2391 19.2109 33.604 19.2109H36.3442C36.5321 19.2232 36.7205 19.1968 36.8977 19.1334C37.0749 19.0699 37.2373 18.9708 37.3747 18.8421C37.5121 18.7134 37.6216 18.5578 37.6964 18.3851C37.7713 18.2124 37.8099 18.0261 37.8099 17.8379C37.8099 17.6496 37.7713 17.4634 37.6964 17.2907C37.6216 17.1179 37.5121 16.9624 37.3747 16.8337C37.2373 16.705 37.0749 16.6059 36.8977 16.5424C36.7205 16.479 36.5321 16.4526 36.3442 16.4648H33.604C33.2401 16.4648 32.891 16.609 32.6331 16.8658C32.3752 17.1226 32.2296 17.471 32.228 17.835Z" />
<path d="M9.20521 9.09892C9.46222 9.35593 9.81079 9.50032 10.1743 9.50032C10.5377 9.50032 10.8863 9.35593 11.1433 9.09892C11.4003 8.84192 11.5447 8.49334 11.5447 8.12988C11.5447 7.76642 11.4003 7.41785 11.1433 7.16084L9.20521 5.2169C9.07982 5.07961 8.9279 4.96916 8.75863 4.89222C8.58936 4.81527 8.40625 4.77344 8.22036 4.76923C8.03447 4.76502 7.84966 4.79854 7.67708 4.86774C7.50451 4.93695 7.34774 5.04042 7.21627 5.17189C7.08479 5.30337 6.98132 5.46013 6.91212 5.63271C6.84291 5.80528 6.8094 5.9901 6.8136 6.17599C6.81781 6.36188 6.85965 6.54498 6.93659 6.71425C7.01353 6.88352 7.12398 7.03544 7.26127 7.16084L9.20521 9.09892Z" />
<path d="M36.3444 21.9513C35.8917 21.9524 35.4397 21.9857 34.9918 22.0509C33.5697 20.1173 31.6633 18.5926 29.4645 17.6302C29.4373 15.085 28.4001 12.6548 26.5812 10.8743C24.7622 9.09375 22.3105 8.10873 19.7653 8.1359C17.2201 8.16308 14.7899 9.20022 13.0094 11.0192C11.2288 12.8381 10.2438 15.2899 10.271 17.8351C10.2785 19.2783 10.617 20.7005 11.2605 21.9923C8.74212 22.0791 6.35905 23.1536 4.62651 24.9834C2.89397 26.8132 1.95118 29.2514 2.00195 31.7708C2.05272 34.2902 3.09298 36.6884 4.89783 38.4469C6.70269 40.2054 9.12711 41.183 11.647 41.1682C12.8102 41.1686 13.9635 40.9542 15.0489 40.5359C16.0852 41.4376 16.015 41.6132 17.2446 42.1636L18.48 40.085C18.4786 39.9415 18.4923 39.7982 18.521 39.6576C17.4102 38.999 16.4201 38.1554 15.5934 37.1632C14.6434 37.8572 13.5317 38.2967 12.364 38.4398C11.1963 38.583 10.0114 38.4251 8.92194 37.9811C7.83246 37.5372 6.87465 36.8219 6.13955 35.9034C5.40445 34.9849 4.91651 33.8936 4.72211 32.7334C4.5277 31.5731 4.6333 30.3824 5.02887 29.2744C5.42443 28.1665 6.09681 27.1781 6.98208 26.4033C7.86735 25.6285 8.93609 25.093 10.0867 24.8477C11.2373 24.6024 12.4315 24.6555 13.5558 25.0019C13.7975 25.0617 14.0359 25.134 14.2701 25.2186C14.6484 24.4912 15.1059 23.8078 15.6344 23.1809C17.2234 21.2466 19.433 19.922 21.8879 19.4321C24.3429 18.9422 26.8917 19.3172 29.1014 20.4934C31.1113 21.5497 32.7468 23.1996 33.7856 25.2186C34.8886 24.7584 36.0926 24.594 37.2786 24.7416C38.4646 24.8892 39.5915 25.3438 40.548 26.0603C41.5046 26.7768 42.2575 27.7306 42.7326 28.8272C43.2076 29.9239 43.3883 31.1256 43.2567 32.3135C43.1251 33.5013 42.6858 34.6343 41.9822 35.6004C41.2787 36.5665 40.3352 37.3323 39.245 37.8221C38.1549 38.3119 36.9557 38.5088 35.7662 38.3932C34.5767 38.2777 33.4379 37.8537 32.4623 37.1632C31.5484 38.2584 30.4334 39.1686 29.1776 39.845C29.1833 39.9249 29.1833 40.0051 29.1776 40.085L30.5477 42.3042C31.9178 41.7186 31.83 41.5254 32.9718 40.5476C34.0573 40.9654 35.2105 41.1798 36.3736 41.1799C38.922 41.1799 41.3659 40.1676 43.1679 38.3657C44.9698 36.5638 45.9821 34.1198 45.9821 31.5715C45.9821 29.0232 44.9698 26.5792 43.1679 24.7773C41.3659 22.9754 38.922 21.963 36.3736 21.963L36.3444 21.9513ZM23.9957 16.465C22.0768 16.4659 20.1798 16.8734 18.4298 17.6606C16.6798 18.4478 15.1164 19.5969 13.8427 21.0321C13.3087 20.0505 13.0251 18.9524 13.0171 17.8351C13.0167 16.113 13.6649 14.454 14.8327 13.1883C16.0004 11.9226 17.602 11.1431 19.3185 11.0051C21.035 10.867 22.7406 11.3805 24.0956 12.4433C25.4506 13.5061 26.3557 15.0402 26.6305 16.7402C25.7633 16.5629 24.8808 16.4707 23.9957 16.465Z" />
<path d="M29.482 43.0945C29.482 43.3849 29.3666 43.6634 29.1613 43.8687C28.956 44.0741 28.6775 44.1894 28.3871 44.1894H19.6042C19.3138 44.1894 19.0353 44.0741 18.83 43.8687C18.6246 43.6634 18.5093 43.3849 18.5093 43.0945C18.5085 42.9502 18.5363 42.8072 18.5909 42.6737C18.6456 42.5402 18.7261 42.4188 18.8279 42.3165C18.9296 42.2142 19.0506 42.133 19.1838 42.0776C19.3171 42.0222 19.4599 41.9937 19.6042 41.9937H28.3871C28.5313 41.9937 28.6742 42.0222 28.8074 42.0776C28.9407 42.133 29.0616 42.2142 29.1634 42.3165C29.2651 42.4188 29.3456 42.5402 29.4003 42.6737C29.455 42.8072 29.4828 42.9502 29.482 43.0945Z" />
<path d="M26.7418 47.8491C26.4892 47.9935 26.1898 48.032 25.909 47.9563C25.6281 47.8806 25.3886 47.6968 25.2428 47.4451L20.8514 39.8333C20.7789 39.7088 20.7317 39.5712 20.7124 39.4284C20.6932 39.2856 20.7024 39.1404 20.7393 39.0012C20.7763 38.8619 20.8404 38.7313 20.928 38.6169C21.0155 38.5025 21.1248 38.4064 21.2496 38.3343C21.3741 38.2618 21.5117 38.2146 21.6544 38.1954C21.7972 38.1761 21.9424 38.1853 22.0817 38.2223C22.2209 38.2593 22.3515 38.3234 22.4659 38.4109C22.5804 38.4985 22.6764 38.6077 22.7485 38.7325L27.1399 46.3443C27.2124 46.4688 27.2597 46.6064 27.2789 46.7492C27.2981 46.892 27.289 47.0372 27.252 47.1764C27.215 47.3157 27.1509 47.4463 27.0633 47.5607C26.9758 47.6751 26.8665 47.7711 26.7418 47.8432V47.8491Z" />
<path d="M26.7417 38.3401C26.8665 38.4122 26.9757 38.5082 27.0633 38.6226C27.1508 38.7371 27.215 38.8677 27.2519 39.0069C27.2889 39.1462 27.2981 39.2913 27.2788 39.4341C27.2596 39.5769 27.2124 39.7145 27.1399 39.839L22.7484 47.4508C22.6027 47.7026 22.3632 47.8864 22.0823 47.9621C21.8015 48.0378 21.502 47.9992 21.2495 47.8548C20.9988 47.7081 20.8162 47.4682 20.7416 47.1874C20.667 46.9066 20.7065 46.6077 20.8514 46.3559L25.2428 38.7441C25.3149 38.6194 25.4109 38.5101 25.5253 38.4225C25.6398 38.335 25.7704 38.2709 25.9096 38.2339C26.0489 38.1969 26.194 38.1877 26.3368 38.207C26.4796 38.2262 26.6172 38.2734 26.7417 38.3459V38.3401Z" />
</svg>
