<svg width="48" height="48" viewBox="0 0 48 48" fill="none" xmlns="http://www.w3.org/2000/svg">
<path  d="M37.6437 6.25088C37.1465 6.25167 36.65 6.28981 36.158 6.36501C34.763 4.38549 32.9402 2.77743 30.8378 1.67147C28.7355 0.565517 26.4128 -0.00712791 24.0585 6.69688e-05C21.7042 0.00726185 19.3848 0.594094 17.2886 1.71288C15.1925 2.83167 13.3788 4.45085 11.9949 6.43885C11.5024 6.36945 11.0061 6.33357 10.5092 6.33144C7.71006 6.3439 5.03032 7.5165 3.05949 9.59127C1.08865 11.666 -0.011844 14.473 9.61564e-05 17.3947C0.0120363 20.3164 1.13543 23.1135 3.12316 25.1707C5.11088 27.2278 7.8001 28.3765 10.5992 28.364C11.8798 28.3599 13.1487 28.1096 14.3424 27.6256C17.0643 30.1113 20.5608 31.4764 24.1774 31.4653C27.794 31.4542 31.2828 30.0676 33.9906 27.5652C35.1851 28.0431 36.4545 28.2845 37.7337 28.2768C40.487 28.1983 43.1018 26.9996 45.0199 24.9365C46.9381 22.8733 48.0075 20.1092 48 17.2343C47.9924 14.3594 46.9085 11.6015 44.9795 9.5494C43.0506 7.49727 40.4295 6.31352 37.6759 6.25088H37.6437ZM37.6952 25.135C36.1441 25.1323 34.6312 24.6333 33.3603 23.7051C32.2486 25.1432 30.8434 26.3042 29.2472 27.1036C27.651 27.9029 25.9041 28.3203 24.1337 28.3255C22.3633 28.3306 20.6142 27.9233 19.0138 27.1333C17.4133 26.3433 16.002 25.1904 14.8826 23.7588C13.8143 24.5516 12.5664 25.0398 11.262 25.1754C9.95772 25.311 8.64206 25.0892 7.44494 24.5319C6.24781 23.9747 5.2106 23.1012 4.43568 21.9977C3.66076 20.8942 3.17491 19.5989 3.02609 18.2396C2.87728 16.8802 3.07064 15.5039 3.58708 14.2464C4.10353 12.9889 4.92522 11.8937 5.97104 11.0689C7.01686 10.2441 8.25066 9.7182 9.55067 9.54315C10.8507 9.3681 12.1719 9.54992 13.3841 10.0707C14.3752 7.99799 15.8986 6.25355 17.7843 5.03203C19.6699 3.81051 21.8437 3.15997 24.063 3.15301C26.2824 3.14605 28.4599 3.78294 30.3526 4.9926C32.2452 6.20227 33.7787 7.93711 34.7817 10.0035C35.8105 9.55652 36.9215 9.35319 38.0347 9.40817C39.1478 9.46315 40.2355 9.77507 41.2192 10.3215C42.203 10.8679 43.0585 11.6352 43.7241 12.5682C44.3897 13.5011 44.8488 14.5765 45.0683 15.7169C45.2879 16.8574 45.2625 18.0344 44.9939 19.1633C44.7254 20.2922 44.2203 21.345 43.5152 22.2457C42.81 23.1464 41.9223 23.8727 40.9159 24.3723C39.9095 24.8719 38.8096 25.1324 37.6952 25.135Z" />
<path  d="M21.1662 44.8515C21.1662 45.6866 21.484 46.4874 22.0497 47.0778C22.6153 47.6683 23.3826 48 24.1826 48C24.9826 48 25.7498 47.6683 26.3155 47.0778C26.8811 46.4874 27.1989 45.6866 27.1989 44.8515C27.1989 43.1128 24.1633 38.568 24.1633 38.568C24.1633 38.568 21.1662 43.1128 21.1662 44.8515Z" />
<path  d="M32.762 37.7354C32.7432 38.1606 32.8072 38.5855 32.9501 38.9842C33.093 39.3829 33.3119 39.7472 33.5936 40.055C33.8752 40.3629 34.2138 40.608 34.5888 40.7754C34.9637 40.9429 35.3673 41.0292 35.7752 41.0292C36.183 41.0292 36.5866 40.9429 36.9616 40.7754C37.3365 40.608 37.6751 40.3629 37.9567 40.055C38.2384 39.7472 38.4573 39.3829 38.6002 38.9842C38.7432 38.5855 38.8072 38.1606 38.7883 37.7354C38.7883 35.9967 35.7591 31.4519 35.7591 31.4519C35.7591 31.4519 32.7556 35.9967 32.762 37.7354Z" />
<path  d="M9.53821 37.8024C9.51938 38.2277 9.58337 38.6525 9.7263 39.0512C9.86923 39.4499 10.0881 39.8142 10.3698 40.1221C10.6514 40.43 10.99 40.675 11.365 40.8425C11.7399 41.0099 12.1435 41.0962 12.5514 41.0962C12.9592 41.0962 13.3628 41.0099 13.7378 40.8425C14.1127 40.675 14.4513 40.43 14.7329 40.1221C15.0146 39.8142 15.2335 39.4499 15.3764 39.0512C15.5194 38.6525 15.5834 38.2277 15.5645 37.8024C15.5581 36.0771 12.5289 31.5055 12.5289 31.5055C12.5289 31.5055 9.53178 36.0771 9.53821 37.8024Z" />
</svg>
