<svg width="48" height="48" viewBox="0 0 48 48" fill="none" xmlns="http://www.w3.org/2000/svg">
<path d="M40.5343 20.2816C40.9905 19.9632 41.4218 19.6106 41.8247 19.2269C43.0423 18.0008 43.9689 16.5166 44.5358 14.8842C44.6279 14.625 44.6442 14.3449 44.5826 14.0767C44.5211 13.8086 44.3843 13.5636 44.1884 13.3705C43.9964 13.1748 43.7522 13.0386 43.4848 12.9781C43.2175 12.9176 42.9384 12.9354 42.6808 13.0293C41.1316 13.584 39.4566 13.6872 37.8509 13.3268C36.2453 12.9665 34.7751 12.1574 33.6115 10.9938C32.4479 9.83017 31.6388 8.35994 31.2784 6.7543C30.918 5.14865 31.0212 3.47367 31.576 1.92441C31.6673 1.66856 31.6837 1.39196 31.6233 1.12711C31.5628 0.862253 31.428 0.620158 31.2347 0.429279C31.0422 0.234496 30.7983 0.0984271 30.5314 0.0369201C30.2645 -0.0245869 29.9856 -0.00900097 29.7272 0.0818632C28.0941 0.647257 26.6096 1.57398 25.3845 2.79294C23.9342 4.24243 22.894 6.0504 22.3698 8.03271C21.8457 10.015 21.8562 12.1008 22.4005 14.0777C20.4626 14.3251 18.5954 14.9641 16.9124 15.956C15.2294 16.9479 13.7659 18.2718 12.6108 19.8473C11.0741 19.6282 9.5076 19.7635 8.03127 20.243C6.55493 20.7226 5.20789 21.5335 4.09326 22.6139C2.97863 23.6942 2.12598 25.0152 1.60056 26.4759C1.07515 27.9365 0.890914 29.498 1.06196 31.0408C1.233 32.5836 1.75479 34.0668 2.58738 35.3769C3.41996 36.687 4.54127 37.7892 5.86547 38.5991C7.18966 39.4091 8.68162 39.9053 10.2271 40.0498C11.7727 40.1943 13.3308 39.9833 14.7821 39.4329C15.6345 40.1572 16.5671 40.7817 17.5615 41.294L18.9821 38.7628C17.5898 38.0324 16.3545 37.0353 15.3467 35.8284C14.3145 36.5548 13.1109 36.9997 11.8544 37.1194C10.5979 37.239 9.33189 37.0292 8.18116 36.5107C7.03043 35.9921 6.03466 35.1827 5.29195 34.1622C4.54925 33.1416 4.08525 31.9452 3.94566 30.6908C3.80607 29.4364 3.99572 28.1672 4.49592 27.0084C4.99612 25.8496 5.7896 24.841 6.79819 24.0822C7.80678 23.3234 8.99568 22.8404 10.2477 22.6809C11.4998 22.5214 12.7718 22.6909 13.9384 23.1726C14.8612 21.3723 16.2387 19.8446 17.9342 18.7411C19.6297 17.6376 21.5843 16.9967 23.604 16.8819C23.8211 16.8819 24.0383 16.8322 24.2616 16.8322C26.9007 16.8356 29.4579 17.7493 31.5015 19.4193C32.5761 20.3101 33.4854 21.3832 34.1878 22.5894C34.3119 22.7941 34.4483 22.9865 34.5538 23.2098C35.7216 22.7255 36.9954 22.554 38.2497 22.7123C39.5039 22.8706 40.6952 23.3532 41.706 24.1125C42.7168 24.8718 43.5122 25.8815 44.0137 27.042C44.5151 28.2025 44.7053 29.4737 44.5655 30.7301C44.4257 31.9866 43.9607 33.1849 43.2164 34.2067C42.4721 35.2286 41.4742 36.0388 40.3213 36.5573C39.1683 37.0758 37.9 37.2847 36.6416 37.1634C35.3833 37.0421 34.1783 36.5948 33.1455 35.8656C32.1819 37.0233 31.0071 37.9875 29.6838 38.707L31.0114 41.294C31.9786 40.7748 32.8857 40.1507 33.7163 39.4329C34.8666 39.8741 36.0886 40.0992 37.3207 40.0967C39.7512 40.1252 42.1113 39.2806 43.9717 37.7163C45.8322 36.152 47.0694 33.972 47.4585 31.5727C47.8477 29.1734 47.3628 26.714 46.0921 24.642C44.8214 22.5699 42.8493 21.0226 40.5343 20.2816Z" fill="#1E293D"/>
<path d="M28.9084 41.6474H26.2718L27.5932 39.3706C27.7286 39.1046 27.7568 38.7967 27.6721 38.5105C27.5874 38.2243 27.3961 37.9815 27.1378 37.832C26.8794 37.6825 26.5735 37.6378 26.2832 37.7071C25.9928 37.7763 25.7401 37.9543 25.577 38.2043L24.2618 40.4873L22.9403 38.2043C22.7857 37.9377 22.5315 37.7435 22.2336 37.6644C21.9358 37.5853 21.6187 37.6277 21.3522 37.7824C21.0856 37.9371 20.8914 38.1913 20.8123 38.4891C20.7332 38.787 20.7756 39.104 20.9303 39.3706L22.2517 41.6474H19.6151C19.4552 41.6357 19.2946 41.6571 19.1433 41.7103C18.9921 41.7634 18.8534 41.8472 18.736 41.9564C18.6186 42.0655 18.5249 42.1977 18.4609 42.3447C18.3968 42.4917 18.3638 42.6503 18.3638 42.8106C18.3638 42.9709 18.3968 43.1295 18.4609 43.2765C18.5249 43.4235 18.6186 43.5557 18.736 43.6649C18.8534 43.774 18.9921 43.8578 19.1433 43.911C19.2946 43.9641 19.4552 43.9855 19.6151 43.9738H22.2517L20.9303 46.2568C20.8541 46.3888 20.8047 46.5345 20.7848 46.6856C20.765 46.8367 20.775 46.9902 20.8145 47.1374C20.854 47.2846 20.922 47.4226 21.0148 47.5434C21.1076 47.6643 21.2233 47.7658 21.3553 47.8419C21.4872 47.9181 21.6329 47.9675 21.784 47.9874C21.9351 48.0073 22.0886 47.9972 22.2358 47.9577C22.383 47.9183 22.521 47.8502 22.6419 47.7574C22.7627 47.6646 22.8642 47.5489 22.9403 47.417L24.2618 45.1339L25.577 47.417C25.7308 47.6843 25.9846 47.8796 26.2824 47.9599C26.5803 48.0402 26.8978 47.9989 27.1652 47.845C27.4325 47.6912 27.6278 47.4374 27.7081 47.1396C27.7884 46.8418 27.7471 46.5242 27.5932 46.2568L26.2718 43.9738H28.9084C29.0683 43.9855 29.2289 43.9641 29.3802 43.911C29.5314 43.8578 29.6701 43.774 29.7875 43.6649C29.905 43.5557 29.9986 43.4235 30.0627 43.2765C30.1267 43.1295 30.1598 42.9709 30.1598 42.8106C30.1598 42.6503 30.1267 42.4917 30.0627 42.3447C29.9986 42.1977 29.905 42.0655 29.7875 41.9564C29.6701 41.8472 29.5314 41.7634 29.3802 41.7103C29.2289 41.6571 29.0683 41.6357 28.9084 41.6474Z" fill="#1E293D"/>
</svg>
