<svg width="48" height="48" viewBox="0 0 48 48" fill="none" xmlns="http://www.w3.org/2000/svg">
<path d="M37.3026 6.96944C36.811 6.96829 36.3199 7.00231 35.8331 7.07123C34.4602 5.19017 32.6625 3.65987 30.5864 2.60487C28.5103 1.54988 26.2144 1 23.8856 1C21.5569 1 19.261 1.54988 17.1849 2.60487C15.1088 3.65987 13.3111 5.19017 11.9382 7.07123C10.5176 6.86518 9.06977 6.95431 7.68517 7.33306C6.30057 7.71181 5.00895 8.37203 3.89103 9.27248C2.7731 10.1729 1.85288 11.2943 1.18787 12.5664C0.522854 13.8385 0.127338 15.2341 0.0260317 16.666C-0.0752751 18.0979 0.119804 19.5353 0.59908 20.8884C1.07836 22.2415 1.83153 23.4812 2.81154 24.5301C3.79156 25.579 4.97735 26.4145 6.29483 26.9844C7.61231 27.5543 9.03317 27.8464 10.4686 27.8424C11.7321 27.845 12.9852 27.6143 14.1648 27.1617C16.8525 29.5232 20.3079 30.8255 23.8856 30.8255C27.4634 30.8255 30.9187 29.5232 33.6064 27.1617C34.7862 27.6137 36.0392 27.8444 37.3026 27.8424C38.6949 27.8768 40.0799 27.6323 41.3762 27.1233C42.6724 26.6142 43.8538 25.851 44.8506 24.8785C45.8474 23.9059 46.6396 22.7438 47.1805 21.4605C47.7214 20.1772 48 18.7986 48 17.4059C48 16.0133 47.7214 14.6347 47.1805 13.3514C46.6396 12.0681 45.8474 10.9059 44.8506 9.93342C43.8538 8.9609 42.6724 8.19765 41.3762 7.68862C40.0799 7.17959 38.6949 6.93506 37.3026 6.96944ZM37.3026 24.8588C35.7691 24.858 34.2735 24.3824 33.0212 23.4973C31.9163 24.8551 30.5229 25.9495 28.9421 26.7012C27.3613 27.4529 25.6329 27.843 23.8825 27.843C22.132 27.843 20.4036 27.4529 18.8228 26.7012C17.242 25.9495 15.8486 24.8551 14.7438 23.4973C13.6849 24.2418 12.4504 24.6976 11.1618 24.8198C9.87323 24.9419 8.57506 24.7262 7.39521 24.194C6.21535 23.6617 5.19455 22.8311 4.43339 21.7842C3.67222 20.7373 3.19696 19.5102 3.05444 18.2237C2.91191 16.9372 3.10704 15.6358 3.6206 14.4476C4.13416 13.2595 4.94843 12.2257 5.98316 11.4481C7.01789 10.6704 8.23738 10.1758 9.52146 10.013C10.8055 9.85009 12.1099 10.0246 13.306 10.5193C14.2896 8.55592 15.8001 6.90495 17.6685 5.75117C19.537 4.59739 21.6897 3.98631 23.8856 3.98631C26.0816 3.98631 28.2343 4.59739 30.1027 5.75117C31.9712 6.90495 33.4817 8.55592 34.4653 10.5193C35.4831 10.1007 36.5811 9.91288 37.6802 9.96926C38.7793 10.0256 39.8523 10.3248 40.822 10.8454C41.7917 11.3659 42.634 12.0948 43.2884 12.9797C43.9427 13.8646 44.3929 14.8835 44.6066 15.9631C44.8202 17.0427 44.792 18.1563 44.5239 19.2237C44.2558 20.2911 43.7545 21.2859 43.0562 22.1365C42.3578 22.987 41.4796 23.6723 40.4848 24.143C39.49 24.6137 38.4032 24.8582 37.3026 24.8588Z" fill="#1E293D"/>
<path d="M27.7026 41.4374H25.5269L26.6021 39.5798C26.7215 39.3625 26.7511 39.107 26.6845 38.8682C26.6178 38.6294 26.4602 38.4262 26.2455 38.3022C26.0308 38.1782 25.776 38.1432 25.5358 38.2049C25.2957 38.2665 25.0892 38.4198 24.9607 38.6319L23.8856 40.4959L22.8104 38.6319C22.682 38.4198 22.4755 38.2665 22.2353 38.2049C21.9951 38.1432 21.7404 38.1782 21.5256 38.3022C21.3109 38.4262 21.1533 38.6294 21.0867 38.8682C21.02 39.107 21.0496 39.3625 21.1691 39.5798L22.2442 41.4374H20.1003C19.8472 41.4374 19.6045 41.5379 19.4255 41.7169C19.2466 41.8959 19.146 42.1386 19.146 42.3917C19.146 42.6448 19.2466 42.8875 19.4255 43.0664C19.6045 43.2454 19.8472 43.3459 20.1003 43.3459H22.2442L21.1691 45.2036C21.1037 45.3115 21.0606 45.4313 21.0421 45.5561C21.0237 45.6809 21.0303 45.8081 21.0617 45.9303C21.093 46.0525 21.1485 46.1672 21.2247 46.2677C21.301 46.3682 21.3965 46.4525 21.5058 46.5156C21.615 46.5787 21.7358 46.6193 21.8609 46.6351C21.9861 46.651 22.1131 46.6417 22.2346 46.6077C22.3561 46.5738 22.4697 46.516 22.5685 46.4377C22.6674 46.3593 22.7496 46.262 22.8104 46.1515L23.8856 44.2811L24.9607 46.1388C25.0215 46.2493 25.1037 46.3466 25.2026 46.4249C25.3015 46.5033 25.415 46.5611 25.5365 46.595C25.658 46.6289 25.7851 46.6382 25.9102 46.6224C26.0354 46.6066 26.1561 46.5659 26.2654 46.5029C26.3746 46.4398 26.4702 46.3555 26.5464 46.255C26.6227 46.1545 26.6781 46.0398 26.7095 45.9176C26.7408 45.7954 26.7475 45.6682 26.729 45.5434C26.7106 45.4186 26.6674 45.2987 26.6021 45.1908L25.5269 43.3332H27.7026C27.9557 43.3332 28.1985 43.2327 28.3774 43.0537C28.5564 42.8748 28.6569 42.632 28.6569 42.3789C28.6569 42.1259 28.5564 41.8831 28.3774 41.7042C28.1985 41.5252 27.9557 41.4247 27.7026 41.4247V41.4374Z" fill="#1E293D"/>
<path d="M16.1877 34.7259H14.0375L15.1126 32.8619C15.2196 32.6456 15.24 32.3966 15.1698 32.1657C15.0995 31.9349 14.9439 31.7395 14.7346 31.6194C14.5253 31.4994 14.278 31.4636 14.0433 31.5195C13.8086 31.5755 13.604 31.7188 13.4713 31.9203L12.3961 33.778L11.3273 31.9203C11.27 31.8043 11.1895 31.7013 11.0908 31.6176C10.9921 31.5339 10.8774 31.4713 10.7536 31.4337C10.6298 31.396 10.4996 31.3841 10.371 31.3986C10.2425 31.4132 10.1182 31.4539 10.006 31.5183C9.89375 31.5827 9.79588 31.6693 9.71841 31.773C9.64095 31.8766 9.58552 31.995 9.55554 32.1209C9.52556 32.2468 9.52167 32.3774 9.5441 32.5049C9.56654 32.6323 9.61483 32.7538 9.68599 32.8619L10.7611 34.7259H8.61721C8.36413 34.7259 8.12141 34.8264 7.94245 35.0054C7.76349 35.1843 7.66295 35.427 7.66295 35.6801C7.66295 35.9332 7.76349 36.1759 7.94245 36.3549C8.12141 36.5339 8.36413 36.6344 8.61721 36.6344H10.7675L9.69236 38.4984C9.62119 38.6065 9.5729 38.7279 9.55047 38.8554C9.52803 38.9828 9.53192 39.1135 9.5619 39.2394C9.59188 39.3652 9.64731 39.4836 9.72478 39.5873C9.80224 39.6909 9.90011 39.7776 10.0123 39.842C10.1246 39.9064 10.2488 39.9471 10.3774 39.9616C10.506 39.9762 10.6361 39.9643 10.7599 39.9266C10.8837 39.8889 10.9985 39.8263 11.0972 39.7426C11.1958 39.6589 11.2763 39.5559 11.3337 39.4399L12.4025 37.5823L13.4776 39.4399C13.6103 39.6415 13.8149 39.7848 14.0497 39.8407C14.2844 39.8966 14.5316 39.8609 14.7409 39.7408C14.9503 39.6207 15.1059 39.4254 15.1761 39.1945C15.2464 38.9637 15.2259 38.7147 15.119 38.4984L14.0438 36.6344H16.1877C16.4408 36.6344 16.6835 36.5339 16.8625 36.3549C17.0415 36.1759 17.142 35.9332 17.142 35.6801C17.142 35.427 17.0415 35.1843 16.8625 35.0054C16.6835 34.8264 16.4408 34.7259 16.1877 34.7259Z" fill="#1E293D"/>
<path d="M39.1539 34.7259H37.01L38.0851 32.8619C38.1921 32.6456 38.2126 32.3966 38.1423 32.1657C38.0721 31.9349 37.9164 31.7395 37.7071 31.6194C37.4978 31.4994 37.2506 31.4636 37.0159 31.5195C36.7811 31.5755 36.5765 31.7188 36.4438 31.9203L35.375 33.778L34.2999 31.9203C34.2425 31.8043 34.162 31.7013 34.0634 31.6176C33.9647 31.5339 33.8499 31.4713 33.7261 31.4337C33.6023 31.396 33.4721 31.3841 33.3436 31.3986C33.215 31.4132 33.0908 31.4539 32.9785 31.5183C32.8663 31.5827 32.7684 31.6693 32.691 31.773C32.6135 31.8766 32.5581 31.995 32.5281 32.1209C32.4981 32.2468 32.4942 32.3774 32.5167 32.5049C32.5391 32.6323 32.5874 32.7538 32.6586 32.8619L33.7337 34.7259H31.5834C31.3303 34.7259 31.0876 34.8264 30.9086 35.0054C30.7297 35.1843 30.6291 35.427 30.6291 35.6801C30.6291 35.9332 30.7297 36.1759 30.9086 36.3549C31.0876 36.5339 31.3303 36.6344 31.5834 36.6344H33.7337L32.6586 38.4984C32.5874 38.6065 32.5391 38.7279 32.5167 38.8554C32.4942 38.9828 32.4981 39.1135 32.5281 39.2394C32.5581 39.3652 32.6135 39.4836 32.691 39.5873C32.7684 39.6909 32.8663 39.7776 32.9785 39.842C33.0908 39.9064 33.215 39.9471 33.3436 39.9616C33.4721 39.9762 33.6023 39.9643 33.7261 39.9266C33.8499 39.8889 33.9647 39.8263 34.0634 39.7426C34.162 39.6589 34.2425 39.5559 34.2999 39.4399L35.375 37.5823L36.4438 39.4399C36.5012 39.5559 36.5817 39.6589 36.6803 39.7426C36.779 39.8263 36.8938 39.8889 37.0176 39.9266C37.1414 39.9643 37.2715 39.9762 37.4001 39.9616C37.5287 39.9471 37.6529 39.9064 37.7652 39.842C37.8774 39.7776 37.9753 39.6909 38.0527 39.5873C38.1302 39.4836 38.1856 39.3652 38.2156 39.2394C38.2456 39.1135 38.2495 38.9828 38.227 38.8554C38.2046 38.7279 38.1563 38.6065 38.0851 38.4984L37.01 36.6344H39.1539C39.407 36.6344 39.6497 36.5339 39.8287 36.3549C40.0077 36.1759 40.1082 35.9332 40.1082 35.6801C40.1082 35.427 40.0077 35.1843 39.8287 35.0054C39.6497 34.8264 39.407 34.7259 39.1539 34.7259Z" fill="#1E293D"/>
</svg>
