<svg width="50" height="48" viewBox="0 0 50 48" fill="none" xmlns="http://www.w3.org/2000/svg">
<path d="M13.2622 21.8844L13.2628 21.8838C14.6682 20.6026 16.3167 19.9719 18.1964 19.9719C20.1299 19.9719 21.8144 20.6206 23.2378 21.9022L23.2384 21.9027C24.6789 23.1839 25.4677 24.7602 25.6434 26.6556L25.6433 26.6556L25.6438 26.659L25.7688 27.6938L25.7685 27.6938L25.7699 27.7012C25.7916 27.8208 25.8433 27.9262 25.9341 28.0006C26.0246 28.0749 26.1401 28.1071 26.2679 28.1071H29.1429C30.6801 28.1071 32.0058 28.6641 33.1259 29.7832C34.2464 30.9026 34.8036 32.2092 34.8036 33.7445C34.8036 35.3349 34.2452 36.6772 33.1431 37.7957C32.0415 38.9137 30.6986 39.4711 29.1607 39.4711H9.80357C8.26707 39.4711 6.95964 38.9147 5.83948 37.7783C4.73661 36.6414 4.17857 35.2988 4.17857 33.7267C4.17857 32.2591 4.667 31.0049 5.64561 29.9399C6.62378 28.8754 7.84477 28.2644 9.31473 28.0888L10.2004 28.0357C10.3253 28.0351 10.4434 28.0033 10.5312 27.9223C10.6197 27.8407 10.659 27.7262 10.6607 27.5981L10.7847 26.6423C11.0309 24.7444 11.8564 23.1484 13.2622 21.8844ZM16.353 13.0436L16.3528 13.0438L16.3595 13.0503L17.538 14.1921L17.5434 14.1973L17.5494 14.2018C18.0023 14.5457 18.4076 14.7114 18.7747 14.6733C19.1879 14.6713 19.5384 14.4913 19.841 14.1702C20.1497 13.8425 20.3036 13.4366 20.3036 12.9783C20.3036 12.5182 20.1303 12.1286 19.8026 11.837L18.7539 10.6649L18.7491 10.6596L18.7437 10.6548C18.4011 10.3506 18.015 10.1951 17.5714 10.1951C17.113 10.1951 16.7059 10.3488 16.3773 10.6764C16.0474 10.9872 15.8929 11.3776 15.8929 11.8366C15.8929 12.2955 16.0471 12.6997 16.353 13.0436ZM31.1212 11.5175L31.1212 11.5175L31.1241 11.5147C31.4383 11.2007 31.5714 10.8092 31.5714 10.3201V6.66286C31.5714 6.20211 31.4158 5.83116 31.1062 5.52185C30.7924 5.20836 30.401 5.07495 29.9286 5.07495C29.468 5.07495 29.0982 5.22995 28.7896 5.51905C28.4729 5.81567 28.3393 6.20888 28.3393 6.66286V10.3201C28.3393 10.813 28.4924 11.2012 28.7838 11.5118C29.0807 11.8282 29.4743 11.9616 29.9286 11.9616C30.4218 11.9616 30.8103 11.8086 31.1212 11.5175ZM38.6231 15.5972L38.6303 15.6048L38.6386 15.6111C39.029 15.9084 39.43 16.0648 39.8214 16.0648C40.1797 16.0648 40.563 15.9063 40.9507 15.6111L40.9574 15.606L40.9633 15.6001L43.5169 13.0489L43.5171 13.0491L43.522 13.0436C43.8284 12.6992 43.9821 12.2948 43.9821 11.8187C43.9821 11.3596 43.8276 10.9703 43.5169 10.6599C43.2068 10.35 42.8174 10.1951 42.375 10.1951C41.9157 10.1951 41.5432 10.3495 41.2502 10.6606L38.6272 13.2098L38.6213 13.2155L38.6162 13.222C38.3316 13.5822 38.1964 13.9661 38.1964 14.4056C38.1964 14.8943 38.3293 15.284 38.6231 15.5972ZM40.0877 36.7383L40.0876 36.7384L40.0916 36.7423L41.2502 37.8642C41.5433 38.1753 41.9158 38.3296 42.375 38.3296C42.8349 38.3296 43.226 38.1748 43.5374 37.8443C43.8456 37.5171 44 37.1294 44 36.6525C44 36.2274 43.8444 35.8386 43.5348 35.5293L42.3741 34.3697C42.0656 34.0616 41.6949 33.9049 41.2679 33.9049C40.8091 33.9049 40.4199 34.0588 40.1094 34.3683C39.7822 34.6766 39.6071 35.0657 39.6071 35.5285C39.6071 35.9879 39.7617 36.3935 40.0877 36.7383ZM0.875 33.7267C0.875 35.3537 1.27339 36.8562 2.07042 38.2316C2.86709 39.6063 3.95423 40.6925 5.33027 41.4884C6.7066 42.2844 8.19249 42.6826 9.80357 42.6826H29.1429C30.7537 42.6826 32.2575 42.2846 33.634 41.4884C35.0094 40.6928 36.1147 39.607 36.9117 38.2316C37.7083 36.857 38.125 35.3547 38.125 33.7267C38.125 32.5541 37.8808 31.366 37.3941 30.1799C38.7394 28.5259 39.4107 26.537 39.4107 24.2713C39.4107 22.9877 39.1573 21.7583 38.669 20.5839C38.1803 19.4084 37.4922 18.4136 36.6419 17.5641C35.7918 16.7148 34.7963 16.0275 33.6201 15.5393C32.4429 15.0327 31.2119 14.7979 29.9286 14.7979C27.2784 14.7979 24.9655 15.8256 22.9771 17.8708C21.5994 17.1054 19.9986 16.7247 18.1786 16.7247C15.6323 16.7247 13.3903 17.5194 11.4395 19.0894C9.50935 20.6428 8.24992 22.6398 7.69872 25.0596C5.70665 25.5378 4.08218 26.5644 2.81261 28.1722C1.5276 29.7996 0.875 31.6465 0.875 33.7267ZM36.1607 24.2713C36.1607 25.3052 35.8898 26.3414 35.3449 27.3502C33.6135 25.691 31.5497 24.8599 29.1429 24.8599H28.6705C28.2166 22.9668 27.2413 21.2605 25.7326 19.7418C26.9221 18.628 28.3242 18.0808 29.9286 18.0808C31.6643 18.0808 33.1322 18.6749 34.3402 19.8818C35.5491 21.0895 36.1607 22.5386 36.1607 24.2713ZM42.2321 24.2713C42.2321 24.7188 42.4092 25.0894 42.7344 25.3958C43.046 25.7063 43.4535 25.8592 43.9107 25.8592H47.5536C47.9971 25.8592 48.3667 25.7036 48.6747 25.4151C48.9914 25.1185 49.125 24.7253 49.125 24.2713C49.125 23.8126 48.9709 23.4248 48.6804 23.1153C48.3892 22.805 47.9992 22.6299 47.5536 22.6299H43.9107C43.4507 22.6299 43.0619 22.7846 42.7344 23.1111C42.3881 23.4384 42.2321 23.828 42.2321 24.2713Z" fill="#1E293D" stroke="#1E293D" stroke-width="0.25"/>
</svg>
