<svg width="48" height="48" viewBox="0 0 48 48" fill="none" xmlns="http://www.w3.org/2000/svg">
<path d="M0 26.0647C0 26.608 0.181284 27.0508 0.563995 27.413C0.946706 27.7752 1.43013 27.9362 2.01427 27.9362H5.41838C5.96223 27.9362 6.42551 27.7551 6.80822 27.3929C7.19094 27.0306 7.39236 26.5879 7.39236 26.0647C7.39236 25.4811 7.21108 24.9981 6.82837 24.6359C6.44566 24.2737 5.98238 24.0724 5.43852 24.0724H2.01427C1.43013 24.0724 0.946706 24.2536 0.563995 24.6359C0.181284 24.978 0 25.461 0 26.0647ZM3.56525 38.5012C3.56525 40.4532 4.27025 42.1435 5.70038 43.5723C7.13051 45.0011 8.80235 45.7054 10.7562 45.7054H24.5741C26.5279 45.7054 28.1997 45.0011 29.5896 43.5925C30.9794 42.1838 31.6844 40.4934 31.6844 38.5012C31.6844 37.5352 31.5434 36.7101 31.2614 36.0259C32.9333 34.9594 34.2627 33.5306 35.2295 31.7597C36.1964 29.9888 36.7 28.0771 36.7 26.0446C36.7 24.4145 36.3777 22.8449 35.7331 21.3557C35.0885 19.8666 34.2224 18.5787 33.1548 17.5121C32.0873 16.4455 30.7982 15.5802 29.3076 14.9363C27.817 14.2923 26.266 13.9703 24.6345 13.9703C22.4389 13.9703 20.4045 14.5137 18.5514 15.6003C16.6983 16.687 15.2279 18.1561 14.1603 19.9873C13.0927 21.8387 12.569 23.8511 12.569 26.0446V26.7288C10.5548 27.8758 9.22535 29.5461 8.58078 31.7396C7.04994 32.2225 5.84138 33.0677 4.93496 34.2953C4.02854 35.5228 3.56525 36.9315 3.56525 38.5012ZM6.70751 10.006C6.70751 10.5694 6.8888 11.0323 7.23122 11.3542L10.4742 14.7552C11.4209 15.4796 12.3676 15.4796 13.3143 14.7552C13.697 14.3728 13.8783 13.91 13.8783 13.3465C13.8783 12.8032 13.697 12.3403 13.3143 11.9378L9.99077 8.61742C9.56777 8.23507 9.08435 8.03383 8.58078 8.03383C8.01679 8.03383 7.5535 8.21494 7.21108 8.59729C6.86865 8.97964 6.70751 9.44249 6.70751 10.006ZM7.5535 38.5012C7.5535 37.656 7.81536 36.9315 8.35921 36.3278C8.90306 35.7241 9.58791 35.382 10.4138 35.3015L11.6626 35.1405C11.9245 35.1405 12.0655 34.9795 12.0655 34.6776L12.2467 33.5507C12.3877 32.3835 12.8712 31.4176 13.7172 30.6529C14.5632 29.8681 15.5501 29.4857 16.6983 29.4857C17.8666 29.4857 18.8938 29.8681 19.7398 30.6529C20.606 31.4377 21.1095 32.4037 21.2505 33.5507L21.4117 34.8588C21.5325 35.1606 21.6937 35.3216 21.8951 35.3216H24.5539C25.4201 35.3216 26.1653 35.6436 26.8099 36.2674C27.4545 36.8913 27.7566 37.6358 27.7566 38.5213C27.7566 39.4268 27.4343 40.1915 26.8099 40.8355C26.1855 41.4795 25.4201 41.8014 24.5539 41.8014H10.7562C9.84977 41.8014 9.08435 41.4795 8.48007 40.8355C7.85564 40.1915 7.5535 39.4067 7.5535 38.5012ZM16.4566 25.6421C16.5976 23.4486 17.4436 21.5972 19.0147 20.0879C20.5657 18.5988 22.4591 17.8341 24.6345 17.8341C26.8703 17.8341 28.7839 18.639 30.355 20.2288C31.9261 21.8186 32.7117 23.7706 32.7117 26.0446C32.7117 27.4532 32.3693 28.7613 31.6844 29.9687C30.9996 31.1761 30.073 32.1421 28.9047 32.8866C27.7163 31.9006 26.3466 31.4176 24.8158 31.4176C24.2316 29.6467 23.1842 28.2582 21.7138 27.2117C20.2434 26.1653 18.5715 25.6421 16.7184 25.6421H16.4566ZM22.6807 8.03383C22.6807 8.57717 22.8821 9.06014 23.2648 9.44249C23.6475 9.82484 24.1108 10.0261 24.6546 10.0261C25.2186 10.0261 25.6819 9.82484 26.0646 9.44249C26.4473 9.06014 26.6488 8.59729 26.6488 8.03383V3.32488C26.6488 2.80166 26.4473 2.35894 26.0646 1.99671C25.6819 1.63448 25.2186 1.45337 24.6546 1.45337C24.1108 1.45337 23.6475 1.63448 23.2648 1.99671C22.8821 2.35894 22.6807 2.80166 22.6807 3.32488V8.03383ZM35.4108 38.6823C35.4108 39.2256 35.5921 39.6884 35.9547 40.0909L39.2581 43.351C40.1041 44.1962 41.0508 44.1962 42.0982 43.351C42.4608 43.0089 42.6219 42.5661 42.6219 41.9826C42.6219 41.4392 42.4406 40.9965 42.0982 40.6343L38.6941 37.2736C38.3315 36.9315 37.8682 36.7705 37.3244 36.7705C36.7604 36.7705 36.3172 36.9516 35.9547 37.3139C35.5921 37.6761 35.4108 38.1389 35.4108 38.6823ZM35.4108 13.3062C35.4108 13.8697 35.5921 14.3527 35.9547 14.7552C36.3172 15.1174 36.7805 15.2985 37.3244 15.2985C37.8682 15.2985 38.3315 15.1174 38.6941 14.7552L42.0982 11.3542C42.4608 11.0121 42.6219 10.5694 42.6219 10.006C42.6219 9.44249 42.4205 8.97964 42.0378 8.61742C41.6551 8.25519 41.1918 8.05395 40.6278 8.05395C40.1041 8.05395 39.6408 8.25519 39.2581 8.63754L35.9547 11.9177C35.5921 12.2799 35.4108 12.7428 35.4108 13.3062ZM40.6076 26.0647C40.6076 26.608 40.7889 27.0508 41.1716 27.413C41.5543 27.7752 42.0378 27.9362 42.6219 27.9362H46.026C46.5699 27.9362 47.0331 27.7551 47.4159 27.3929C47.7986 27.0306 48 26.5879 48 26.0647C48 25.4811 47.8187 24.9981 47.436 24.6359C47.0533 24.2737 46.59 24.0724 46.0462 24.0724H42.642C42.0579 24.0724 41.5745 24.2536 41.1918 24.6359C40.8091 24.978 40.6076 25.461 40.6076 26.0647Z" fill="#1E293D"/>
</svg>
