<svg width="48" height="48" viewBox="0 0 48 48" fill="none" xmlns="http://www.w3.org/2000/svg">
<path d="M40.7919 22.9227C41.2622 22.5949 41.7067 22.2317 42.1215 21.836C43.3775 20.5737 44.3324 19.0442 44.9149 17.3615C45.0097 17.094 45.0268 16.8051 44.9642 16.5283C44.9016 16.2516 44.7619 15.9982 44.5612 15.7975C44.3606 15.5968 44.1072 15.4571 43.8304 15.3945C43.5536 15.3319 43.2647 15.349 42.9972 15.4438C41.4016 16.0146 39.6767 16.1206 38.0232 15.7494C36.3697 15.3783 34.8555 14.5453 33.6569 13.3473C32.4583 12.1494 31.6244 10.6357 31.2524 8.98238C30.8803 7.32908 30.9853 5.60411 31.5552 4.00816C31.6528 3.74052 31.6719 3.45058 31.6103 3.17244C31.5488 2.89431 31.409 2.63954 31.2076 2.4381C31.0062 2.23667 30.7514 2.09694 30.4733 2.03536C30.1951 1.97379 29.9052 1.99291 29.6375 2.0905C26.777 3.07019 24.4013 5.11005 23.0003 7.78956C21.5993 10.4691 21.2798 13.584 22.1075 16.4921C20.1047 16.7478 18.175 17.4091 16.4363 18.4356C14.6976 19.4621 13.1864 20.8323 11.9951 22.4624C10.4092 22.2325 8.79173 22.3689 7.26679 22.8612C5.74185 23.3535 4.34998 24.1887 3.198 25.3026C2.04602 26.4165 1.16456 27.7796 0.621268 29.2871C0.0779789 30.7946 -0.112696 32.4066 0.0638773 33.9993C0.240451 35.592 0.779578 37.1231 1.63988 38.475C2.50019 39.8269 3.65879 40.9638 5.02679 41.7983C6.39478 42.6328 7.93579 43.1429 9.53154 43.2892C11.1273 43.4356 12.7354 43.2144 14.2323 42.6426C16.931 45.0192 20.4036 46.3303 23.9996 46.3303C27.5956 46.3303 31.0682 45.0192 33.7669 42.6426C34.9594 43.1046 36.2275 43.3409 37.5063 43.3394C39.9978 43.348 42.4104 42.4667 44.3099 40.8544C46.2093 39.2421 47.4707 37.0046 47.8669 34.5449C48.2631 32.0851 47.7681 29.5647 46.471 27.4375C45.174 25.3103 43.1601 23.7161 40.7919 22.9419V22.9227ZM27.2916 7.0061C27.5335 6.76512 27.7897 6.53886 28.0587 6.32853C27.957 8.01291 28.214 9.69969 28.8125 11.2774C29.4109 12.8552 30.3374 14.288 31.5306 15.4812C32.7238 16.6744 34.1566 17.6009 35.7344 18.1993C37.3121 18.7978 38.9989 19.0548 40.6833 18.9531C39.4346 20.5325 37.6772 21.6304 35.7101 22.0597C34.4464 20.4474 32.8626 19.1142 31.0584 18.1439C29.2543 17.1736 27.2688 16.5873 25.2269 16.4218C24.6413 14.8183 24.5245 13.0812 24.8902 11.4137C25.2558 9.74628 26.0888 8.21743 27.2916 7.0061ZM37.5191 40.3223C35.9783 40.3215 34.4755 39.8437 33.2172 38.9543C32.1071 40.3185 30.707 41.4183 29.1186 42.1735C27.5303 42.9288 25.7936 43.3207 24.0348 43.3207C22.276 43.3207 20.5393 42.9288 18.9509 42.1735C17.3626 41.4183 15.9625 40.3185 14.8524 38.9543C13.788 39.7043 12.5466 40.164 11.2505 40.288C9.9544 40.4119 8.64835 40.196 7.46113 39.6614C6.27391 39.1268 5.24651 38.292 4.48023 37.2394C3.71396 36.1867 3.23526 34.9525 3.09133 33.6585C2.94741 32.3644 3.14323 31.0552 3.65949 29.8599C4.17575 28.6646 4.99461 27.6245 6.03536 26.8421C7.07611 26.0597 8.30279 25.562 9.59448 25.3982C10.8862 25.2344 12.1982 25.41 13.4014 25.9078C14.3479 24.0495 15.7636 22.4709 17.5083 21.3283C19.2529 20.1858 21.2659 19.5191 23.3476 19.3942C23.5713 19.3942 23.7951 19.3494 24.0252 19.3494C26.0987 19.3628 28.1329 19.917 29.9266 20.9574C31.7204 21.9977 33.2115 23.4882 34.2527 25.2814C34.3806 25.4924 34.5212 25.6905 34.6299 25.9206C35.6538 25.4971 36.759 25.3059 37.8658 25.361C38.9726 25.4161 40.0533 25.716 41.0302 26.2391C42.0071 26.7622 42.8557 27.4956 43.515 28.3862C44.1743 29.2769 44.6278 30.3028 44.8428 31.3898C45.0578 32.4769 45.0289 33.5981 44.7584 34.6727C44.4878 35.7473 43.9822 36.7485 43.278 37.6041C42.5738 38.4597 41.6886 39.1485 40.6861 39.6207C39.6837 40.093 38.5889 40.3369 37.4808 40.335L37.5191 40.3223Z" />
</svg>
