<svg width="49" height="48" viewBox="0 0 49 48" fill="none" xmlns="http://www.w3.org/2000/svg">
<path d="M0 22.269C0 25.3567 1.09942 28.0234 3.27485 30.2456C5.45029 32.4912 8.09357 33.6608 11.1813 33.7544C11.462 33.7544 11.6023 33.614 11.6023 33.3567V30.2456C11.6023 29.9649 11.462 29.8246 11.1813 29.8246C9.21637 29.731 7.50877 28.9357 6.10526 27.4386C4.70175 25.9415 3.97661 24.2339 3.97661 22.2456C3.97661 20.2807 4.63158 18.5731 5.96491 17.1228C7.29824 15.6725 8.91228 14.8538 10.8772 14.6901L12.117 14.5263C12.3977 14.5263 12.5614 14.386 12.5614 14.1053L12.7251 12.9357C12.9591 10.386 14.0117 8.23392 15.9064 6.50292C17.8012 4.77193 20.0234 3.90643 22.5965 3.90643C25.1228 3.90643 27.345 4.77193 29.2398 6.47953C31.1345 8.18713 32.2339 10.2924 32.5146 12.8187L32.6784 14.1754C32.6784 14.4561 32.8187 14.5965 33.1228 14.5965H36.8655C38.9708 14.5965 40.7719 15.345 42.2924 16.8655C43.7895 18.3626 44.5614 20.1637 44.5614 22.2456C44.5614 24.2105 43.8596 25.9415 42.4561 27.4386C41.0526 28.9123 39.345 29.7076 37.3567 29.8246C37.0526 29.8246 36.8889 29.9649 36.8889 30.2456V33.3567C36.8889 33.614 37.0526 33.7544 37.3567 33.7544C40.4678 33.6608 43.1111 32.4912 45.2632 30.2456C47.4152 28 48.4912 25.3567 48.4912 22.2456C48.4912 20.1637 47.9766 18.2222 46.924 16.4444C45.8947 14.6667 44.4678 13.2632 42.6901 12.2339C40.9123 11.2047 38.9708 10.6901 36.8889 10.6901H36.1637C35.3918 7.55556 33.7544 5.00585 31.2281 2.99415C28.7251 1.00585 25.848 0 22.6199 0C19.3216 0 16.3977 1.02924 13.848 3.06433C11.2982 5.09942 9.66082 7.7193 8.93567 10.9006C6.2924 11.5789 4.16374 12.9591 2.50292 15.0409C0.842105 17.1228 0 19.5556 0 22.269ZM12.6316 38.6901C12.6316 39.0877 12.7485 39.4854 13.0058 39.883C13.2632 40.2807 13.6374 40.538 14.1053 40.7018C14.6433 40.8655 15.1345 40.8421 15.6023 40.6082C16.0468 40.3977 16.3743 39.9532 16.5146 39.2982L16.8421 37.8713C16.9591 37.3333 16.8889 36.8421 16.6316 36.3977C16.3743 35.9532 15.9766 35.6257 15.4152 35.462C14.9006 35.2982 14.386 35.3684 13.9181 35.6491C13.4503 35.9298 13.1228 36.3509 12.9825 36.8889L12.655 38.269C12.655 38.3392 12.6316 38.4795 12.6316 38.6901ZM14.4094 31.9064C14.4094 32.3977 14.5965 32.8421 14.9942 33.2398C15.3684 33.6374 15.7895 33.8246 16.3041 33.8246C16.8655 33.8246 17.3333 33.6374 17.7076 33.2632C18.0819 32.8889 18.269 32.4444 18.269 31.883C18.269 31.345 18.0819 30.8772 17.7076 30.5029C17.3333 30.1287 16.8655 29.9415 16.3041 29.9415C15.7661 29.9415 15.3216 30.1287 14.9474 30.4795C14.5965 30.9006 14.4094 31.3684 14.4094 31.9064ZM15.8363 26.5965C15.8129 26.9708 15.9064 27.3216 16.1637 27.6491C16.3977 28 16.7719 28.2339 17.2865 28.3977C17.7778 28.538 18.2456 28.4912 18.7368 28.2339C19.2281 27.9766 19.5322 27.5789 19.6959 27.0409L20.3509 24.9357C20.5146 24.3743 20.4678 23.8597 20.1871 23.4152C19.9064 22.9708 19.4854 22.6667 18.924 22.5029C18.4094 22.3392 17.9181 22.386 17.4503 22.6667C16.9825 22.924 16.655 23.3216 16.4912 23.8363L15.9298 25.9883C15.9298 26.0351 15.9064 26.1287 15.883 26.269C15.8596 26.386 15.8363 26.5029 15.8363 26.5965ZM18.5731 45.9883C18.5731 46.4094 18.6901 46.7836 18.924 47.1579C19.1579 47.5322 19.5322 47.7895 20.0468 47.9298C20.2339 47.9766 20.4444 48 20.6316 48C21.6374 48 22.2456 47.5322 22.4795 46.5731L22.807 45.193C22.9474 44.5848 22.8772 44.0702 22.6199 43.6023C22.3392 43.1345 21.9415 42.8538 21.4035 42.7368C20.9123 42.5731 20.4211 42.6199 19.9298 42.9006C19.4386 43.1813 19.1345 43.579 18.9708 44.0936L18.6433 45.4737C18.5965 45.6842 18.5731 45.848 18.5731 45.9883ZM20.3743 39.2047C20.3743 39.7193 20.5614 40.1637 20.9591 40.5614C21.3333 40.9357 21.7778 41.1228 22.2924 41.1228C22.8538 41.1228 23.2982 40.9357 23.6725 40.5848C24.0468 40.2105 24.2105 39.7661 24.2105 39.2047C24.2105 38.6667 24.0234 38.2222 23.6725 37.848C23.2982 37.4737 22.8538 37.3099 22.2924 37.3099C21.731 37.3099 21.2866 37.4971 20.9123 37.848C20.538 38.1988 20.3743 38.6667 20.3743 39.2047ZM21.848 33.8947C21.8246 34.2456 21.9181 34.6199 22.152 34.9942C22.386 35.3684 22.7368 35.6023 23.2047 35.6959C23.7427 35.8363 24.2339 35.7895 24.7018 35.5556C25.1696 35.3216 25.4737 34.8772 25.6608 34.2456L26.2924 32.1404C26.4561 31.6257 26.4094 31.1345 26.1287 30.6667C25.848 30.1988 25.4503 29.8947 24.8889 29.731C24.3743 29.5673 23.883 29.6374 23.3918 29.9181C22.9006 30.1988 22.5965 30.6199 22.4327 31.1579L21.8947 33.2632C21.8713 33.4503 21.848 33.6608 21.848 33.8947ZM28.3041 38.924C28.3041 39.2982 28.4211 39.6725 28.655 40.0468C28.8889 40.4211 29.2632 40.6784 29.731 40.8187C29.8012 40.8187 29.9181 40.8421 30.0585 40.8655C30.1988 40.8889 30.2924 40.9123 30.386 40.9123C31.345 40.9123 31.9298 40.3977 32.1637 39.3684L32.4912 37.9649C32.655 37.4737 32.6082 36.9825 32.3275 36.4912C32.0702 36 31.6725 35.6959 31.1345 35.5322C30.5497 35.3918 30.0117 35.4386 29.5439 35.7193C29.076 36 28.7485 36.3977 28.5848 36.9591L28.3743 38.3392C28.3743 38.386 28.3509 38.5029 28.3275 38.6199C28.3041 38.7368 28.3041 38.8304 28.3041 38.924ZM30.0351 32C30.0351 32.5146 30.2222 32.9825 30.6199 33.3333C30.9708 33.7076 31.4152 33.8947 31.9532 33.8947C32.5146 33.8947 32.9591 33.7076 33.3333 33.3567C33.7076 33.0059 33.8713 32.538 33.8713 32C33.8713 31.4386 33.6842 30.9942 33.3333 30.6199C32.9825 30.2456 32.5146 30.0819 31.9532 30.0819C31.3918 30.0819 30.9474 30.269 30.5731 30.6199C30.2222 30.9942 30.0351 31.4386 30.0351 32ZM31.462 26.5965C31.462 26.9942 31.5789 27.3684 31.8363 27.7193C32.0936 28.0702 32.4678 28.3275 32.9825 28.4678C33.0292 28.4678 33.1228 28.4912 33.2632 28.5146C33.4035 28.538 33.5205 28.5614 33.5906 28.5614C33.8246 28.5614 34.1053 28.4912 34.4327 28.3509C34.924 28.0936 35.2515 27.6725 35.3918 27.1345L35.9532 25.0292C36.0936 24.4912 36.0468 24 35.7661 23.5556C35.5088 23.0877 35.1111 22.7836 34.5731 22.6199C34.0351 22.4561 33.5439 22.5029 33.076 22.7602C32.6316 23.0175 32.3041 23.3918 32.1637 23.9532L31.5088 26.0819C31.5088 26.1287 31.4854 26.2222 31.462 26.3626V26.5965Z" fill="#1E293D"/>
</svg>
