<svg width="48" height="49" viewBox="0 0 48 49" fill="none" xmlns="http://www.w3.org/2000/svg">
<path d="M0 22.7466C0 20.0747 0.829971 17.7023 2.48991 15.6294C4.14986 13.5564 6.27089 12.1974 8.80692 11.6216C9.52161 8.46607 11.1354 5.88637 13.6484 3.85946C16.1614 1.83255 19.0663 0.819092 22.3401 0.819092C24.2075 0.819092 25.9135 1.11852 27.4121 1.74041C27.4121 1.76345 27.4121 1.76345 27.4352 1.78648C29.3718 2.52354 31.0778 3.72126 32.5303 5.35661H32.5994C34.1671 7.03802 35.2046 9.0419 35.7579 11.3913H36.4726C38.9625 11.3913 41.1297 12.0592 42.9971 13.3721V13.3491C44.219 14.1783 45.2565 15.1917 46.0865 16.4125C46.9164 17.6332 47.4697 18.9692 47.7695 20.4202C47.8617 20.9039 47.9078 21.2955 47.9539 21.6179V21.7562C47.9539 21.7792 47.9539 21.8943 47.9769 22.1477C48 22.4011 48 22.5853 48 22.7005V22.7696C48 24.7965 47.5159 26.6852 46.5245 28.4127C45.5562 30.1402 44.219 31.5452 42.513 32.5817C40.83 33.6182 38.9625 34.171 36.9337 34.2401C36.634 34.2401 36.4726 34.1019 36.4726 33.8485V30.7621C36.4726 30.4627 36.634 30.3245 36.9337 30.3245C38.9164 30.2323 40.5764 29.4492 41.9597 27.9751C43.3429 26.501 44.0346 24.7735 44.0346 22.7696C44.0346 20.7197 43.2968 18.9692 41.7983 17.495C40.3228 16.0209 38.5475 15.2839 36.4726 15.2839H32.7608C32.4841 15.2839 32.3458 15.1457 32.3458 14.8923L32.1614 13.5333C31.9308 11.23 30.9625 9.24919 29.2334 7.56778C29.2104 7.54475 29.2104 7.52171 29.1873 7.49868C29.1643 7.47565 29.1412 7.45262 29.1412 7.42958C29.1182 7.40655 29.0951 7.38352 29.049 7.38352C29.049 7.33745 29.0259 7.31442 29.0029 7.31442C27.3199 5.79423 25.3602 4.91898 23.1009 4.73471C22.9395 4.71168 22.6859 4.71168 22.317 4.71168C19.781 4.71168 17.5908 5.5639 15.7233 7.24532C13.8559 8.92673 12.7954 11.0227 12.5648 13.5103L12.3804 14.8693C12.3112 15.0766 12.1268 15.1917 11.8732 15.1917L10.7435 15.2608C8.80692 15.4912 7.17003 16.3203 5.87896 17.7254C4.5879 19.1304 3.94236 20.8118 3.94236 22.7466V22.8387H4.01153C4.03458 23.9443 4.26513 24.9808 4.70317 25.9482C5.16426 26.9386 5.76369 27.7678 6.54755 28.4588C7.0317 28.8734 7.58501 29.2419 8.2536 29.5644V29.5874C9.17579 30.025 10.098 30.2784 11.0432 30.3245C11.2968 30.3245 11.4352 30.4627 11.4352 30.739V33.8255C11.4352 34.0788 11.2968 34.217 11.0432 34.217C9.84438 34.1479 8.7147 33.9176 7.63112 33.526V33.5491C5.71758 32.8811 4.08069 31.7755 2.76657 30.2554C1.45245 28.7352 0.576368 26.9386 0.207492 24.9347V24.8656C0.184437 24.8426 0.184438 24.8195 0.184438 24.7735C0.0461093 24.1746 0 23.4836 0 22.7466ZM12.6801 39.2613C12.6801 39.1922 12.7032 39.1 12.7262 38.9619C12.7493 38.8467 12.7723 38.7546 12.7723 38.6855L12.9798 37.3265C13.1412 36.7737 13.4409 36.3821 13.9251 36.1058C14.4092 35.8294 14.9164 35.7833 15.4928 35.9215C16.0231 36.0827 16.3919 36.4052 16.6686 36.8658C16.9222 37.3495 16.9683 37.8332 16.83 38.3169L16.5072 39.6989C16.2767 40.7124 15.7003 41.2191 14.755 41.2191C14.6859 41.2191 14.5706 41.1961 14.4323 41.173C14.2939 41.15 14.2017 41.127 14.1095 41.127C13.6254 40.9888 13.2795 40.7354 13.049 40.3669C12.7954 40.0214 12.6801 39.6528 12.6801 39.2613ZM14.3862 32.4896C14.3862 31.9368 14.5706 31.4991 14.9164 31.1306C15.2622 30.7621 15.7233 30.6008 16.2767 30.6008C16.83 30.6008 17.268 30.7851 17.6369 31.1306C18.0058 31.4761 18.1671 31.9368 18.1671 32.4896C18.1671 33.0193 17.9827 33.4569 17.6369 33.8255C17.2911 34.194 16.83 34.3552 16.2767 34.3552C15.7464 34.3552 15.3084 34.171 14.9625 33.8024C14.5937 33.4339 14.3862 32.9963 14.3862 32.4896ZM18.1671 46.2864C18.1671 46.1942 18.1902 46.033 18.2594 45.7566L18.5591 44.3977C18.7205 43.8679 19.0432 43.4763 19.5043 43.223C19.9885 42.9466 20.4726 42.9005 20.9568 43.0617C21.487 43.1539 21.902 43.4533 22.1787 43.914C22.4553 44.3746 22.5245 44.9044 22.3631 45.4802L22.0634 46.8392C21.8329 47.7835 21.2104 48.2442 20.219 48.2442C20.0576 48.2442 19.8501 48.2211 19.6657 48.1751C19.1585 48.0369 18.7896 47.7835 18.536 47.415C18.3055 47.0465 18.1671 46.6779 18.1671 46.2864ZM19.9885 39.5837C19.9885 39.054 20.1729 38.5933 20.5187 38.2478C20.8876 37.8793 21.3256 37.7181 21.879 37.7181C22.4323 37.7181 22.8703 37.9023 23.2392 38.2478C23.6081 38.6164 23.7695 39.054 23.7695 39.5837C23.7695 40.1365 23.585 40.5742 23.2392 40.9427C22.8703 41.3112 22.4323 41.4725 21.879 41.4725C21.3487 41.4725 20.9107 41.2882 20.5418 40.9197C20.1729 40.5511 19.9885 40.1135 19.9885 39.5837ZM21.4179 34.3552C21.4179 34.1249 21.4409 33.9176 21.487 33.7333L22.0173 31.6604C22.1787 31.1306 22.5014 30.716 22.9625 30.4396C23.4467 30.1632 23.9308 30.0941 24.438 30.2554C24.9914 30.4166 25.3833 30.716 25.6599 31.1767C25.9366 31.6373 25.9827 32.121 25.8213 32.6278L25.2219 34.7007C25.0375 35.3457 24.7147 35.7603 24.2767 35.9906C23.8386 36.2209 23.3314 36.267 22.8012 36.1288C22.3401 36.0367 21.9942 35.8063 21.7637 35.4378C21.487 35.0693 21.3948 34.7007 21.4179 34.3552ZM27.781 39.2843C27.781 39.2152 27.781 39.1001 27.804 38.9849C27.8271 38.8697 27.8271 38.7776 27.8271 38.7315L28.0346 37.3726C28.196 36.8198 28.4957 36.4282 28.9798 36.1518C29.464 35.8754 29.9712 35.8294 30.5476 35.9676C31.0778 36.1288 31.4697 36.4512 31.7233 36.9119C32 37.3956 32.0461 37.8793 31.8847 38.363L31.562 39.745C31.3314 40.7584 30.755 41.2652 29.8098 41.2652C29.7406 41.2652 29.6254 41.2421 29.487 41.2191C29.3487 41.1961 29.2334 41.173 29.1643 41.173C28.7032 41.0348 28.3574 40.7815 28.1268 40.4129C27.9193 40.0444 27.781 39.6759 27.781 39.2843ZM29.487 32.5126C29.487 31.9598 29.6715 31.5222 30.0173 31.1536C30.3862 30.7851 30.8242 30.6239 31.3775 30.6239C31.9308 30.6239 32.3689 30.8081 32.7378 31.1536C33.1066 31.5222 33.268 31.9598 33.268 32.5126C33.268 33.0424 33.0836 33.503 32.7378 33.8485C32.3919 34.194 31.9539 34.3783 31.4006 34.3783C30.8473 34.3783 30.4092 34.194 30.0634 33.8255C29.6945 33.48 29.487 33.0424 29.487 32.5126Z" fill="#1E293D"/>
</svg>
