<svg width="48" height="48" viewBox="0 0 48 48" fill="none" xmlns="http://www.w3.org/2000/svg">
<path d="M0 22.4994C0 19.8134 0.811202 17.4515 2.45678 15.3676C4.10237 13.2836 6.21149 11.9406 8.80734 11.2922C9.52583 8.14308 11.1482 5.54967 13.6746 3.512C16.2009 1.47432 19.098 0.478638 22.366 0.478638C25.5645 0.478638 28.3921 1.47432 30.8952 3.44253C33.3984 5.41074 35.0208 7.95783 35.7624 11.0607H36.5041C38.5669 11.0607 40.4906 11.5701 42.2521 12.5889C44.0135 13.6078 45.4273 14.9971 46.4471 16.7569C47.4669 18.5167 48 20.4386 48 22.4994C48 25.5559 46.9338 28.2188 44.7784 30.4186C42.6461 32.6415 40.027 33.7993 36.9445 33.8919C36.6432 33.8919 36.4809 33.753 36.4809 33.4982V30.4186C36.4809 30.1407 36.6432 30.0018 36.9445 30.0018C38.9145 29.9092 40.6065 29.1219 41.9971 27.6399C43.3877 26.158 44.0831 24.4445 44.0831 22.4763C44.0831 20.4154 43.3414 18.6556 41.8349 17.1505C40.3283 15.6454 38.5437 14.9045 36.4578 14.9045H32.7262C32.4481 14.9045 32.309 14.7655 32.309 14.5108L32.1236 13.1678C31.8687 10.667 30.7793 8.55987 28.902 6.86953C27.0015 5.17918 24.8228 4.32244 22.2965 4.32244C19.747 4.32244 17.5451 5.17918 15.6678 6.89268C13.7904 8.60619 12.7243 10.7133 12.4925 13.2604L12.3535 14.4182C12.3535 14.6961 12.1912 14.8581 11.8899 14.8581L10.6615 15.0202C8.73781 15.1823 7.1154 15.9696 5.7943 17.4284C4.4732 18.8872 3.82424 20.5544 3.82424 22.4994C3.82424 24.4676 4.51956 26.1811 5.91019 27.6631C7.30082 29.145 8.99276 29.9092 10.9628 30.0249C11.2178 30.0249 11.3568 30.1639 11.3568 30.4417V33.5214C11.3568 33.7761 11.2178 33.915 10.9628 33.915C7.85707 33.8224 5.23805 32.6646 3.08257 30.4417C1.06615 28.2188 0 25.5559 0 22.4994ZM14.7407 31.9237C14.7407 31.4143 14.9261 30.9512 15.297 30.5807C15.6678 30.2102 16.1082 30.0249 16.6644 30.0249C17.1975 30.0249 17.661 30.2102 18.0319 30.5807C18.4027 30.9512 18.5881 31.4143 18.5881 31.9237C18.5881 32.4794 18.4027 32.9425 18.0319 33.313C17.661 33.7066 17.2207 33.8919 16.6644 33.8919C16.1313 33.8919 15.6678 33.7066 15.297 33.313C14.9261 32.9425 14.7407 32.4794 14.7407 31.9237ZM14.7407 40.3291C14.7407 39.7734 14.9261 39.3102 15.297 38.9398C15.6678 38.5924 16.1082 38.4072 16.6412 38.4072C17.1743 38.4072 17.6379 38.5924 18.0087 38.9398C18.3795 39.3102 18.5649 39.7502 18.5649 40.3059C18.5649 40.8617 18.3795 41.3016 18.0087 41.6721C17.6379 42.0426 17.1975 42.2047 16.6412 42.2047C16.1082 42.2047 15.6446 42.0194 15.2738 41.6721C14.9261 41.3248 14.7407 40.8617 14.7407 40.3291ZM22.1342 36.3927C22.1342 35.8601 22.3197 35.3738 22.7137 34.957C23.0845 34.5865 23.5249 34.4013 24.0348 34.4013C24.5678 34.4013 25.0314 34.6097 25.4254 35.0033C25.8194 35.397 26.028 35.8601 26.028 36.3927C26.028 36.9252 25.8426 37.3884 25.4486 37.782C25.0546 38.1756 24.591 38.3609 24.0348 38.3609C23.5017 38.3609 23.0613 38.1756 22.6905 37.782C22.3197 37.3884 22.1342 36.9252 22.1342 36.3927ZM22.1342 28.0104C22.1342 27.4778 22.3197 27.0147 22.7137 26.6211C23.1309 26.2506 23.5712 26.0654 24.0348 26.0654C24.591 26.0654 25.0546 26.2506 25.4486 26.6442C25.8426 27.0379 26.028 27.4778 26.028 28.0336C26.028 28.5661 25.8426 29.0293 25.4486 29.3997C25.0546 29.7702 24.591 29.9555 24.0348 29.9555C23.5017 29.9555 23.0613 29.7702 22.6905 29.3997C22.3197 29.0061 22.1342 28.543 22.1342 28.0104ZM22.1342 44.8676C22.1342 44.335 22.3197 43.8719 22.7137 43.4551C23.0845 43.0846 23.5249 42.8993 24.0348 42.8993C24.591 42.8993 25.0546 43.0846 25.4486 43.4782C25.8426 43.8719 26.028 44.335 26.028 44.8676C26.028 45.4001 25.8426 45.8632 25.4486 46.2337C25.0546 46.6042 24.591 46.7894 24.0348 46.7894C23.5017 46.7894 23.0613 46.6042 22.6905 46.2337C22.3197 45.8401 22.1342 45.4001 22.1342 44.8676ZM29.5973 31.9237C29.5973 31.4143 29.7827 30.9743 30.1767 30.5807C30.5707 30.187 31.0343 30.0018 31.5674 30.0018C32.1004 30.0018 32.564 30.187 32.9348 30.5575C33.3057 30.928 33.4911 31.3911 33.4911 31.9005C33.4911 32.4563 33.3057 32.9194 32.9348 33.2898C32.564 33.6835 32.1236 33.8687 31.5674 33.8687C31.0111 33.8687 30.5476 33.6835 30.1767 33.2898C29.8059 32.9194 29.5973 32.4563 29.5973 31.9237ZM29.5973 40.3291C29.5973 39.8197 29.7827 39.3566 30.1767 38.9398C30.5476 38.5924 31.0111 38.4072 31.5674 38.4072C32.1236 38.4072 32.564 38.5924 32.9348 38.9398C33.3057 39.2871 33.4679 39.7502 33.4679 40.3059C33.4679 40.8617 33.2825 41.3016 32.9348 41.6721C32.564 42.0426 32.1236 42.2047 31.5674 42.2047C31.0111 42.2047 30.5476 42.0194 30.1767 41.6489C29.8059 41.3016 29.5973 40.8617 29.5973 40.3291Z" fill="#1E293D"/>
</svg>
