<svg width="48" height="48" viewBox="0 0 48 48" fill="none" xmlns="http://www.w3.org/2000/svg">
<path d="M0 23.9774C0 23.4356 0.180791 22.9614 0.564972 22.5776C0.949152 22.2164 1.42373 22.0357 1.9209 22.0357H6.53107C7.05085 22.0357 7.48023 22.2164 7.84181 22.6002C8.18079 22.984 8.36158 23.4356 8.36158 23.9774C8.36158 24.5193 8.20339 24.9708 7.86441 25.3547C7.52542 25.7385 7.07345 25.9191 6.55367 25.9191H1.9435C1.42373 25.9191 0.971752 25.7385 0.587571 25.3547C0.20339 24.9708 0 24.5193 0 23.9774ZM6.46328 39.6237C6.46328 39.1044 6.64407 38.6529 6.98305 38.2465L10.3051 35.0179C10.6441 34.6566 11.096 34.4986 11.6384 34.4986C12.1808 34.4986 12.6328 34.6792 12.9943 35.0179C13.3559 35.3565 13.5367 35.7855 13.5367 36.3048C13.5367 36.8467 13.3559 37.3434 12.9943 37.7498L9.78531 40.9558C8.85876 41.6783 7.9322 41.6783 7.00565 40.9558C6.64407 40.5945 6.46328 40.143 6.46328 39.6237ZM6.46328 8.37629C6.46328 7.85701 6.64407 7.40546 6.98305 6.99906C7.43503 6.61524 7.9096 6.43462 8.42938 6.43462C8.92655 6.43462 9.37853 6.61524 9.76271 6.97648L12.9943 10.2954C13.3559 10.6341 13.5367 11.0856 13.5367 11.6275C13.5367 12.1693 13.3559 12.6209 12.9943 12.9821C12.6328 13.3434 12.1808 13.524 11.6384 13.524C11.096 13.524 10.6441 13.3434 10.3051 12.9821L7.00565 9.75353C6.64407 9.39229 6.46328 8.91816 6.46328 8.37629ZM12.226 23.9774C12.226 21.8777 12.7458 19.9135 13.8079 18.1072C14.8701 16.301 16.2938 14.8561 18.1243 13.7949C19.9548 12.7338 21.8983 12.2145 24 12.2145C25.5819 12.2145 27.096 12.5306 28.565 13.1627C30.0113 13.7949 31.2768 14.6303 32.3164 15.6914C33.3785 16.7526 34.2147 17.9944 34.8249 19.4393C35.435 20.8843 35.7514 22.4196 35.7514 24C35.7514 26.1223 35.2316 28.0865 34.1695 29.8928C33.1073 31.699 31.6836 33.1214 29.8757 34.1825C28.0678 35.2436 26.1017 35.7629 23.9774 35.7629C21.8531 35.7629 19.887 35.2436 18.0791 34.1825C16.2712 33.1214 14.8475 31.699 13.7853 29.8928C12.7684 28.064 12.226 26.0997 12.226 23.9774ZM16.0678 23.9774C16.0678 26.19 16.8362 28.064 18.3955 29.6218C19.9322 31.1797 21.8079 31.9699 24.0226 31.9699C26.2373 31.9699 28.113 31.1797 29.6723 29.6218C31.2316 28.064 32.0226 26.19 32.0226 23.9774C32.0226 21.81 31.2316 19.9586 29.6723 18.4008C28.113 16.8655 26.2373 16.0978 24.0226 16.0978C21.8305 16.0978 19.9548 16.8655 18.4181 18.4008C16.8362 19.9586 16.0678 21.81 16.0678 23.9774ZM22.0791 41.5428C22.0791 41.0009 22.2599 40.5494 22.6441 40.1881C23.0282 39.8269 23.4802 39.6463 24 39.6463C24.5424 39.6463 25.0169 39.8269 25.3785 40.1881C25.7401 40.5494 25.9209 41.0009 25.9209 41.5428V46.0357C25.9209 46.5776 25.7401 47.0517 25.3559 47.4356C24.9717 47.8194 24.5198 48 24 48C23.4802 48 23.0056 47.8194 22.6441 47.4356C22.2599 47.0517 22.0791 46.5776 22.0791 46.0357V41.5428ZM22.0791 6.54751V1.94167C22.0791 1.42239 22.2599 0.970838 22.6441 0.587018C23.0282 0.203199 23.4802 0 24.0226 0C24.565 0 24.9943 0.180621 25.3785 0.56444C25.7627 0.94826 25.9435 1.39981 25.9435 1.9191V6.54751C25.9435 7.06679 25.7627 7.49577 25.3785 7.85701C24.9943 8.21825 24.5424 8.37629 24.0226 8.37629C23.5028 8.37629 23.0282 8.19567 22.6667 7.85701C22.3051 7.51834 22.0791 7.06679 22.0791 6.54751ZM34.5537 36.3048C34.5537 35.7855 34.7345 35.3565 35.0734 35.0405C35.4124 34.6792 35.8418 34.5212 36.339 34.5212C36.8814 34.5212 37.3333 34.7018 37.6949 35.0405L40.9943 38.2691C41.3559 38.6529 41.5367 39.127 41.5367 39.6463C41.5367 40.1656 41.3559 40.6171 40.9943 40.9784C40.0904 41.6783 39.1864 41.6783 38.2825 40.9784L35.0734 37.7723C34.7345 37.3659 34.5537 36.8918 34.5537 36.3048ZM34.5537 11.65C34.5537 11.0856 34.7345 10.6341 35.0734 10.318L38.2825 6.99906C38.6667 6.63782 39.1186 6.4572 39.6158 6.4572C40.1582 6.4572 40.6102 6.63782 40.9717 7.02164C41.3559 7.40546 41.5367 7.85701 41.5367 8.37629C41.5367 8.94073 41.3559 9.41486 40.9943 9.7761L37.6949 13.0047C37.2881 13.3659 36.8362 13.5466 36.339 13.5466C35.8192 13.5466 35.4124 13.3659 35.0734 13.0047C34.7345 12.6435 34.5537 12.1919 34.5537 11.65ZM39.661 23.9774C39.661 23.4356 39.8418 22.984 40.2034 22.5776C40.565 22.2164 40.9943 22.0357 41.4915 22.0357H46.0565C46.5763 22.0357 47.0282 22.2389 47.4124 22.6228C47.7966 23.0066 48 23.4581 48 23.9774C48 24.4967 47.7966 24.9483 47.4124 25.3321C47.0282 25.7159 46.5763 25.8965 46.0565 25.8965H41.4915C40.9717 25.8965 40.5198 25.7159 40.1808 25.3321C39.8418 24.9483 39.661 24.5193 39.661 23.9774Z" fill="#1E293D"/>
</svg>
