<svg width="48" height="48" viewBox="0 0 48 48" fill="none" xmlns="http://www.w3.org/2000/svg">
<path  d="M37.3534 7.94113C36.864 7.9402 36.3753 7.97406 35.8908 8.04243C34.5244 6.1703 32.7352 4.64725 30.669 3.59726C28.6027 2.54727 26.3177 2 24 2C21.6823 2 19.3973 2.54727 17.331 3.59726C15.2648 4.64725 13.4756 6.1703 12.1092 8.04243C11.6248 7.9736 11.136 7.93975 10.6466 7.94113C9.26102 7.90691 7.88256 8.15028 6.59242 8.6569C5.30229 9.16351 4.12655 9.92314 3.13445 10.891C2.14235 11.859 1.35393 13.0156 0.815627 14.2928C0.277319 15.5701 0 16.9421 0 18.3281C0 19.7142 0.277319 21.0862 0.815627 22.3634C1.35393 23.6407 2.14235 24.7973 3.13445 25.7652C4.12655 26.7331 5.30229 27.4927 6.59242 27.9994C7.88256 28.506 9.26102 28.7493 10.6466 28.7151C11.9025 28.7252 13.1495 28.5041 14.3253 28.063C15.4641 29.0372 16.7453 29.8315 18.1243 30.4183L20.4353 28.063C18.2803 27.3777 16.3637 26.0956 14.9078 24.3653C13.8544 25.1067 12.6259 25.5608 11.3436 25.6829C10.0612 25.8049 8.76914 25.5908 7.59471 25.0616C6.42028 24.5324 5.404 23.7063 4.646 22.6647C3.888 21.6232 3.41444 20.4021 3.27198 19.1219C3.12952 17.8416 3.32308 16.5463 3.83358 15.3636C4.34407 14.1809 5.1539 13.1517 6.18326 12.3772C7.21262 11.6027 8.426 11.1098 9.70384 10.9471C10.9817 10.7843 12.2799 10.9572 13.4705 11.4488C14.4494 9.49475 15.9528 7.85162 17.8124 6.70331C19.672 5.555 21.8144 4.94682 24 4.94682C26.1856 4.94682 28.328 5.555 30.1876 6.70331C32.0472 7.85162 33.5506 9.49475 34.5295 11.4488C35.721 10.9538 37.0211 10.7781 38.3013 10.939C39.5816 11.0998 40.7977 11.5917 41.8298 12.3661C42.8619 13.1405 43.6742 14.1706 44.1866 15.3548C44.699 16.539 44.8938 17.8364 44.7517 19.1188C44.6097 20.4013 44.1356 21.6245 43.3765 22.6678C42.6173 23.7112 41.5992 24.5385 40.4226 25.0682C39.2461 25.5979 37.9517 25.8117 36.6673 25.6884C35.3829 25.5652 34.1529 25.1091 33.0985 24.3653C32.1218 25.52 30.936 26.4802 29.6035 27.1955L28.3372 30.9375C30.2954 30.3575 32.1127 29.3788 33.6747 28.063C34.8518 28.4977 36.0987 28.7123 37.3534 28.6961C38.739 28.7304 40.1174 28.487 41.4076 27.9804C42.6977 27.4738 43.8734 26.7141 44.8655 25.7462C45.8576 24.7783 46.6461 23.6217 47.1844 22.3444C47.7227 21.0672 48 19.6952 48 18.3091C48 16.9231 47.7227 15.5511 47.1844 14.2738C46.6461 12.9966 45.8576 11.84 44.8655 10.8721C43.8734 9.90415 42.6977 9.14452 41.4076 8.6379C40.1174 8.13129 38.739 7.88792 37.3534 7.92213V7.94113Z" />
<path  d="M18.2002 34.6544L21.1697 37.6175L18.2002 46.5261L27.1025 37.6175L24.1393 34.6544L27.1025 25.7458L18.2002 34.6544Z" />
<path  d="M28.8183 37.6427C28.8183 38.4303 29.1311 39.1856 29.688 39.7425C30.2449 40.2994 31.0002 40.6123 31.7878 40.6123C32.5754 40.6123 33.3307 40.2994 33.8876 39.7425C34.4445 39.1856 34.7573 38.4303 34.7573 37.6427C34.7573 36.0028 31.7878 31.71 31.7878 31.71C31.7878 31.71 28.8183 36.0028 28.8183 37.6427Z" />
<path  d="M10.5517 37.6427C10.5331 38.0438 10.5961 38.4445 10.7368 38.8205C10.8775 39.1966 11.0931 39.5402 11.3703 39.8305C11.6476 40.1209 11.9809 40.3521 12.35 40.51C12.7192 40.6679 13.1165 40.7493 13.518 40.7493C13.9195 40.7493 14.3169 40.6679 14.686 40.51C15.0551 40.3521 15.3884 40.1209 15.6657 39.8305C15.943 39.5402 16.1585 39.1966 16.2992 38.8205C16.4399 38.4445 16.5029 38.0438 16.4844 37.6427C16.4844 36.0028 13.5212 31.71 13.5212 31.71C13.5212 31.71 10.5517 36.0028 10.5517 37.6427Z" />
</svg>
