<svg width="49" height="49" viewBox="0 0 49 49" fill="none" xmlns="http://www.w3.org/2000/svg">
<path d="M0.227539 22.6686C0.227539 25.2376 0.992017 27.5289 2.52097 29.5424C4.04993 31.556 6.01905 32.9446 8.45148 33.6853L6.94569 37.5735C6.87619 37.8975 6.99202 38.0827 7.27001 38.0827H12.2044L9.79511 46.8312H10.4438L19.6407 34.7499C19.7333 34.6573 19.7333 34.5416 19.687 34.4259C19.6407 34.3102 19.5248 34.2639 19.3627 34.2639H14.3125L20.0577 23.5249C20.1966 23.2009 20.104 23.0389 19.7333 23.0389H12.9225C12.714 23.0389 12.5287 23.1546 12.4129 23.3629L9.88777 30.0053C8.24298 29.5887 6.87619 28.6861 5.78738 27.3206C4.69858 25.9551 4.16576 24.4044 4.16576 22.6686C4.16576 20.7476 4.81441 19.0813 6.11171 17.6695C7.40901 16.2577 9.03063 15.4476 10.9766 15.2162L12.1812 15.0542C12.4824 15.0542 12.6445 14.9153 12.6445 14.6607L12.8067 13.4572C13.0384 10.9576 14.0808 8.85151 15.9573 7.16198C17.8337 5.47245 20.0345 4.61611 22.5596 4.61611C25.0847 4.61611 27.2855 5.47245 29.1619 7.16198C31.0615 8.85151 32.1272 10.9576 32.4051 13.4572L32.5441 14.7996C32.5441 15.0773 32.6831 15.2162 32.9843 15.2162H36.714C38.8221 15.2162 40.6059 15.9568 42.0885 17.4149C43.5712 18.873 44.3125 20.6319 44.3125 22.6918C44.3125 24.659 43.6175 26.3717 42.2507 27.8066C40.8839 29.2416 39.1928 30.0285 37.1773 30.1905C36.8762 30.1905 36.714 30.3294 36.714 30.6302V33.801C36.714 34.0556 36.8762 34.1944 37.1773 34.1944C38.6831 34.1481 40.1194 33.801 41.4862 33.1761C42.853 32.5512 44.0345 31.718 45.0075 30.6997C45.9804 29.6813 46.7681 28.4778 47.3472 27.066C47.9264 25.6774 48.2275 24.2193 48.2275 22.7149C48.2275 20.6319 47.7179 18.7109 46.6754 16.952C45.6329 15.193 44.243 13.8044 42.4824 12.786C40.7217 11.7677 38.799 11.2585 36.7372 11.2585H35.9959C35.2314 8.18032 33.6098 5.6576 31.1078 3.71349C28.6059 1.76937 25.7797 0.77417 22.5827 0.77417C19.3163 0.77417 16.3974 1.79252 13.8723 3.80606C11.3472 5.81961 9.72561 8.41177 9.00746 11.5825C6.4592 12.1843 4.35109 13.5035 2.68314 15.5865C1.01518 17.6695 0.227539 20.007 0.227539 22.6686ZM19.131 45.4888C19.131 45.8591 19.2468 46.2063 19.4785 46.5535C19.7102 46.9006 20.0808 47.1552 20.5441 47.2941C20.8685 47.3635 21.0538 47.4098 21.1233 47.4098C21.3318 47.4098 21.6098 47.3404 22.0036 47.1783C22.4901 46.97 22.8144 46.5535 22.9766 45.9748L23.6252 43.5447C23.7642 43.0355 23.7179 42.5495 23.4399 42.0866C23.1619 41.6237 22.7681 41.3229 22.2121 41.1609C21.7024 41.022 21.216 41.0683 20.7526 41.346C20.2893 41.6237 19.965 42.0172 19.8028 42.5726L19.1773 44.8871C19.1542 45.2805 19.131 45.4888 19.131 45.4888ZM22.2353 34.449C22.2353 34.773 22.3511 35.1202 22.5827 35.4674C22.8144 35.8145 23.1619 36.0691 23.6252 36.2311C24.1349 36.3931 24.6445 36.37 25.1078 36.1154C25.5712 35.8608 25.8723 35.4674 26.0345 34.9119L26.7295 32.5049C26.8685 31.9957 26.799 31.5097 26.5441 31.0468C26.2661 30.5839 25.8492 30.2599 25.3163 30.0979C24.7835 29.959 24.297 30.0053 23.8106 30.2831C23.3241 30.5608 23.0229 30.9542 22.8607 31.4866L22.3048 33.8241C22.2584 34.2176 22.2353 34.4259 22.2353 34.449ZM28.7681 38.2678C28.7681 38.6613 28.8839 39.0547 29.1387 39.4482C29.3936 39.8416 29.7642 40.0962 30.2275 40.2582C30.2739 40.2582 30.3665 40.2814 30.5055 40.3045C30.6214 40.3277 30.714 40.3508 30.7835 40.3508C31.0847 40.3508 31.3858 40.3045 31.6638 40.1656C32.104 40.0036 32.4283 39.5639 32.6136 38.8464L33.1928 36.5089C33.355 35.9765 33.3086 35.4674 33.0538 34.9813C32.799 34.4953 32.4051 34.1713 31.8955 34.0093C31.3163 33.8704 30.7835 33.9398 30.3202 34.1944C29.8569 34.4722 29.5557 34.8888 29.4631 35.4211L28.8376 37.8049C28.7912 37.9438 28.7681 38.1058 28.7681 38.2678ZM31.9187 27.1817C31.8955 27.552 32.0113 27.8992 32.2661 28.2695C32.521 28.6398 32.8916 28.9176 33.4013 29.149C33.5866 29.2416 33.7719 29.2879 34.0036 29.2879C34.2584 29.2879 34.5133 29.2184 34.7912 29.1027C35.2777 28.8713 35.6021 28.4315 35.8105 27.7835L36.4824 25.3996C36.5287 25.0988 36.5519 24.9367 36.5519 24.8905C36.5519 24.497 36.436 24.1267 36.1812 23.7564C35.9264 23.3861 35.5557 23.1315 35.0461 22.9926C34.9997 22.9926 34.9071 22.9695 34.7912 22.9463C34.6522 22.8769 34.5596 22.8769 34.4901 22.8769C34.0963 22.8769 33.7256 22.9926 33.355 23.2241C32.9843 23.4555 32.7295 23.8258 32.5905 24.335L31.965 26.6726C31.9418 26.8577 31.9187 27.0197 31.9187 27.1817Z" fill="#1E293D"/>
</svg>
