<svg width="48" height="50" viewBox="0 0 48 50" fill="none" xmlns="http://www.w3.org/2000/svg">
<path d="M0 25.708C0 28.1475 0.725939 30.3232 2.17782 32.2353C3.6297 34.1473 5.52154 35.466 7.85334 36.1692L6.42346 39.9054C6.33547 40.2131 6.42346 40.3669 6.73144 40.3669H11.3951L8.55729 49.5535H9.17324L18.4785 37.2022C18.5665 37.1143 18.5665 37.0044 18.5225 36.8945C18.4565 36.7846 18.3685 36.7406 18.2145 36.7406H13.4189L18.8524 26.5431C19.0064 26.2354 18.9184 26.0596 18.5665 26.0596H12.055C11.857 26.0596 11.703 26.1695 11.571 26.3893L9.21723 32.7188C7.65536 32.3232 6.35747 31.4661 5.30156 30.1474C4.24565 28.8288 3.73969 27.3563 3.73969 25.7299C3.73969 23.9058 4.35564 22.3234 5.60953 20.9608C6.86343 19.6202 8.4033 18.829 10.2291 18.6092L11.3951 18.4554C11.681 18.4554 11.835 18.3235 11.835 18.0598L11.989 16.9389C12.231 14.5654 13.2209 12.5654 15.0027 10.9611C16.7846 9.35671 18.8744 8.54355 21.2722 8.54355C23.67 8.54355 25.7599 9.35671 27.5637 10.9611C29.3676 12.5654 30.3795 14.5654 30.6434 16.917L30.7974 18.1697C30.7974 18.4334 30.9294 18.5873 31.1714 18.5873H34.7351C36.7369 18.5873 38.4308 19.2905 39.8607 20.6751C41.2906 22.0597 41.9945 23.752 41.9945 25.686C41.9945 27.5541 41.3346 29.1804 40.0147 30.543C38.6948 31.9056 37.0889 32.6748 35.1751 32.8067C34.9111 32.8067 34.7571 32.9385 34.7571 33.2242V36.2132C34.7571 36.4769 34.8891 36.6088 35.1751 36.6088C38.1008 36.5209 40.5866 35.4 42.6324 33.2902C44.6783 31.1584 45.6902 28.631 45.6902 25.708C45.6902 23.7959 45.2062 22.0157 44.2383 20.3235C45.9102 18.6971 47.0321 16.7851 47.56 14.5654L47.978 13.0709C48 13.0489 48 13.005 48 12.9171C48 12.7412 47.89 12.6314 47.67 12.5654L46.3061 12.1918C45.0522 11.8182 43.9743 11.2028 43.0944 10.3457C42.2145 9.48858 41.5985 8.5875 41.2246 7.66445C40.8506 6.74139 40.6746 5.81834 40.6966 4.89529C40.6966 4.27992 40.7626 3.66455 40.9166 3.0272L41.1586 1.68657C41.2026 1.4668 41.1146 1.29098 40.8506 1.18109L39.0907 0.653632C38.0568 0.455835 37.1549 0.345948 36.363 0.345948C35.549 0.323971 34.7131 0.41188 33.8772 0.609677C33.0412 0.785497 32.1613 1.09318 31.2594 1.48878C30.3575 1.88437 29.4995 2.47776 28.6636 3.225C27.8277 3.97223 27.1017 4.85133 26.4858 5.86229C24.6599 5.18099 22.9221 4.85133 21.2942 4.85133C18.1925 4.85133 15.4207 5.81834 13.0229 7.75236C10.6251 9.68638 9.06324 12.1479 8.3813 15.1368C5.9395 15.7082 3.93767 16.9829 2.3538 18.9609C0.791933 20.9169 0 23.1805 0 25.708ZM17.9725 47.3997C17.9725 47.7514 18.0825 48.081 18.3025 48.4327C18.5225 48.7843 18.8524 49.0261 19.2924 49.1579C19.6444 49.2239 19.8423 49.2678 19.8863 49.2678C20.0843 49.2678 20.3703 49.2019 20.7003 49.048C21.1622 48.8283 21.4702 48.4546 21.6242 47.8832L22.2401 45.5756C22.3721 45.0921 22.3281 44.6306 22.0642 44.191C21.8002 43.7515 21.4262 43.4438 20.8983 43.2899C20.4143 43.1581 19.9523 43.224 19.5124 43.4658C19.0724 43.7295 18.7644 44.1251 18.6104 44.6306L18.0165 46.8283L17.9725 47.3997ZM20.9203 36.9384C20.9203 37.8835 21.3602 38.4329 22.2621 38.5868C22.5701 38.6527 22.7681 38.6966 22.8561 38.6966C23.692 38.6966 24.242 38.2351 24.55 37.3121L25.2099 35.0704C25.3419 34.5869 25.2759 34.1253 25.0339 33.6858C24.7919 33.2462 24.374 32.9385 23.868 32.7847C23.3841 32.6309 22.9001 32.6748 22.4601 32.9385C22.0202 33.2023 21.7122 33.5759 21.5582 34.1033L21.0082 36.3231C20.9423 36.5209 20.9203 36.7187 20.9203 36.9384ZM27.1017 40.6087C27.1237 40.9823 27.2557 41.3339 27.4977 41.6636C27.7397 41.9933 28.0917 42.257 28.5536 42.4108C28.9056 42.4987 29.1476 42.5427 29.2796 42.5427C30.0275 42.5427 30.5555 42.0372 30.8414 41.0482L31.3694 38.8065C31.5234 38.301 31.4794 37.8175 31.2374 37.356C30.9954 36.8945 30.6215 36.6088 30.1375 36.4549C29.5875 36.3231 29.0816 36.389 28.6416 36.6308C28.2017 36.8945 27.9157 37.2901 27.8277 37.7956L27.1897 40.0592C27.1897 40.1032 27.1677 40.1911 27.1457 40.323C27.1017 40.4768 27.1017 40.5647 27.1017 40.6087ZM29.6975 7.86225C30.4235 6.63151 31.4134 5.68647 32.6453 5.02715C33.8772 4.36783 35.1751 4.03816 36.517 4.03816H37.0009V4.74144C37.0009 6.148 37.2429 7.5106 37.7489 8.82925C38.2548 10.1479 38.9808 11.3567 39.9927 12.4775C40.9826 13.5984 42.1705 14.4775 43.5344 15.1368C43.1604 15.9719 42.6105 16.7192 41.8625 17.4005C39.8607 15.6862 37.5069 14.8291 34.7791 14.8291H34.0532C33.4152 12.0599 31.9633 9.73033 29.6975 7.86225ZM30.1155 30.0595C30.1155 31.0045 30.5995 31.6199 31.5454 31.8616C31.8533 31.9056 32.0733 31.9496 32.2053 31.9496C32.9972 31.9496 33.5472 31.4661 33.8332 30.521L34.4491 28.2354C34.4711 28.1255 34.4711 27.9716 34.4711 27.7519C34.4931 27.3782 34.4051 27.0266 34.1632 26.675C33.9212 26.3233 33.5692 26.0816 33.0852 25.9497C33.0632 25.9497 32.9753 25.9497 32.8653 25.9277C32.7553 25.9057 32.6453 25.9057 32.5793 25.9057C32.2273 25.9057 31.8753 26.0156 31.5234 26.2354C31.1714 26.4552 30.9294 26.8068 30.7974 27.2684L30.1595 29.5101C30.1595 29.532 30.1595 29.598 30.1375 29.7298C30.1375 29.8837 30.1155 29.9936 30.1155 30.0595Z" fill="#1E293D"/>
</svg>
