<svg width="120" height="120" viewBox="0 0 120 120" fill="none" xmlns="http://www.w3.org/2000/svg">
<path fill-rule="evenodd" clip-rule="evenodd" d="M93.3834 19.8528C92.1601 19.8505 90.9382 19.9351 89.7269 20.1061C86.3109 15.4257 81.8381 11.6181 76.6725 8.99315C71.5068 6.36817 65.7943 5 60 5C54.2057 5 48.4932 6.36817 43.3276 8.99315C38.1619 11.6181 33.6891 15.4257 30.2731 20.1061C29.0619 19.934 27.8399 19.8494 26.6166 19.8528C23.1525 19.7673 19.7064 20.3757 16.4811 21.6422C13.2557 22.9088 10.3164 24.8079 7.83613 27.2276C5.35588 29.6474 3.38484 32.5389 2.03907 35.732C0.693296 38.9251 0 42.3552 0 45.8203C0 49.2854 0.693296 52.7155 2.03907 55.9086C3.38484 59.1017 5.35588 61.9933 7.83613 64.413C10.3164 66.8328 13.2557 68.7319 16.4811 69.9984C19.7064 71.265 23.1525 71.8734 26.6166 71.7878C29.7612 71.7888 32.879 71.2093 35.8133 70.0783C42.496 75.9634 51.0953 79.2101 60 79.2101C68.9047 79.2101 77.504 75.9634 84.1867 70.0783C87.1214 71.2079 90.2389 71.7874 93.3834 71.7878C96.8475 71.8734 100.294 71.265 103.519 69.9984C106.744 68.7319 109.684 66.8328 112.164 64.413C114.644 61.9933 116.615 59.1017 117.961 55.9086C119.307 52.7155 120 49.2854 120 45.8203C120 42.3552 119.307 38.9251 117.961 35.732C116.615 32.5389 114.644 29.6474 112.164 27.2276C109.684 24.8079 106.744 22.9088 103.519 21.6422C100.294 20.3757 96.8475 19.7673 93.3834 19.8528ZM93.3834 64.364C89.573 64.36 85.8573 63.1767 82.7463 60.9766C79.9974 64.3548 76.5303 67.078 72.5971 68.9484C68.6638 70.8187 64.3632 71.7891 60.0079 71.7891C55.6526 71.7891 51.3521 70.8187 47.4188 68.9484C43.4855 67.078 40.0184 64.3548 37.2695 60.9766C34.8855 62.6471 32.1415 63.7327 29.2599 64.1452C26.3782 64.5578 23.4398 64.2859 20.6828 63.3515C17.9258 62.417 15.4277 60.8464 13.3907 58.7667C11.3537 56.6871 9.83524 54.1569 8.95819 51.3811C8.08115 48.6053 7.87022 45.6619 8.34249 42.7894C8.81477 39.9169 9.95696 37.1961 11.6766 34.8472C13.3962 32.4983 15.6448 30.5875 18.2404 29.2695C20.836 27.9515 23.7055 27.2633 26.6166 27.2608C29.0388 27.2694 31.4364 27.7478 33.6763 28.6696C36.1277 23.7892 39.8877 19.6863 44.5361 16.8193C49.1846 13.9523 54.5385 12.434 60 12.434C65.4615 12.434 70.8155 13.9523 75.4639 16.8193C80.1124 19.6863 83.8723 23.7892 86.3237 28.6696C88.5641 27.7493 90.9613 27.271 93.3834 27.2608C98.3036 27.2608 103.022 29.2153 106.501 32.6944C109.98 36.1735 111.935 40.8922 111.935 45.8124C111.935 50.7326 109.98 55.4513 106.501 58.9304C103.022 62.4095 98.3036 64.364 93.3834 64.364Z" />
<path d="M11.7688 95.8948C11.7688 96.6337 11.4753 97.3423 10.9528 97.8647C10.4303 98.3872 9.72173 98.6807 8.98287 98.6807C8.6151 98.6849 8.25018 98.6159 7.9094 98.4775C7.56861 98.3392 7.25878 98.1344 6.99798 97.8751C6.73718 97.6158 6.53063 97.3071 6.39038 96.9671C6.25014 96.6271 6.179 96.2626 6.18113 95.8948V77.359C6.17044 76.986 6.23524 76.6146 6.37165 76.2672C6.50806 75.9198 6.71327 75.6036 6.97494 75.3375C7.23661 75.0714 7.54936 74.8609 7.8944 74.7186C8.23945 74.5764 8.60968 74.5054 8.98287 74.5098C9.3493 74.5077 9.71251 74.5783 10.0515 74.7176C10.3904 74.8568 10.6984 75.062 10.9575 75.3211C11.2166 75.5802 11.4217 75.8882 11.561 76.2271C11.7002 76.5661 11.7709 76.9293 11.7688 77.2957V95.8948Z" />
<path d="M115.402 95.8955C115.402 96.6343 115.108 97.3429 114.586 97.8654C114.063 98.3879 113.355 98.6814 112.616 98.6814C111.877 98.6814 111.168 98.3879 110.646 97.8654C110.124 97.3429 109.83 96.6343 109.83 95.8955V77.3597C109.822 76.9872 109.888 76.6168 110.025 76.2704C110.162 75.924 110.368 75.6087 110.629 75.343C110.89 75.0773 111.202 74.8668 111.546 74.7238C111.89 74.5808 112.259 74.5082 112.632 74.5105C113.002 74.5125 113.367 74.5881 113.708 74.733C114.048 74.8779 114.356 75.0891 114.614 75.3543C114.872 75.6196 115.074 75.9335 115.21 76.2778C115.345 76.6221 115.41 76.9899 115.402 77.3597V95.8955Z" />
<path d="M29.0543 103.319C29.0628 103.69 28.9969 104.059 28.8607 104.404C28.7245 104.75 28.5206 105.064 28.2611 105.33C28.0015 105.595 27.6916 105.806 27.3494 105.95C27.0072 106.094 26.6397 106.168 26.2684 106.168C25.5296 106.168 24.8209 105.875 24.2985 105.352C23.776 104.83 23.4825 104.121 23.4825 103.382V84.7672C23.4825 84.4021 23.5547 84.0406 23.6949 83.7035C23.8351 83.3664 24.0405 83.0603 24.2994 82.8028C24.5583 82.5454 24.8656 82.3417 25.2035 82.2034C25.5414 82.0652 25.9033 81.995 26.2684 81.9971C26.6335 81.995 26.9954 82.0652 27.3334 82.2034C27.6713 82.3417 27.9785 82.5454 28.2374 82.8028C28.4963 83.0603 28.7018 83.3664 28.842 83.7035C28.9822 84.0406 29.0543 84.4021 29.0543 84.7672V103.319Z" />
<path d="M98.1477 103.319C98.1561 103.69 98.0903 104.059 97.9541 104.404C97.8179 104.75 97.614 105.064 97.3545 105.33C97.0949 105.595 96.7849 105.806 96.4427 105.95C96.1005 106.094 95.733 106.168 95.3618 106.168C94.6229 106.168 93.9143 105.875 93.3918 105.352C92.8694 104.83 92.5759 104.121 92.5759 103.382V84.7672C92.5759 84.4021 92.648 84.0406 92.7882 83.7035C92.9284 83.3664 93.1339 83.0603 93.3928 82.8028C93.6517 82.5454 93.959 82.3417 94.2969 82.2034C94.6348 82.0652 94.9967 81.995 95.3618 81.9971C95.7269 81.995 96.0888 82.0652 96.4267 82.2034C96.7646 82.3417 97.0719 82.5454 97.3308 82.8028C97.5897 83.0603 97.7951 83.3664 97.9353 83.7035C98.0755 84.0406 98.1477 84.4021 98.1477 84.7672V103.319Z" />
<path d="M46.3238 107.957C46.3238 108.696 46.0303 109.404 45.5079 109.927C44.9854 110.449 44.2768 110.743 43.5379 110.743C42.7991 110.743 42.0905 110.449 41.568 109.927C41.0455 109.404 40.752 108.696 40.752 107.957V89.4051C40.752 88.6662 41.0455 87.9576 41.568 87.4352C42.0905 86.9127 42.7991 86.6192 43.5379 86.6192C44.2768 86.6192 44.9854 86.9127 45.5079 87.4352C46.0303 87.9576 46.3238 88.6662 46.3238 89.4051V107.957Z" />
<path d="M80.8624 107.957C80.8644 108.322 80.7943 108.684 80.6561 109.022C80.5178 109.36 80.3141 109.667 80.0566 109.926C79.7992 110.185 79.4931 110.39 79.156 110.53C78.8189 110.67 78.4574 110.743 78.0923 110.743C77.3534 110.743 76.6448 110.449 76.1223 109.927C75.5999 109.404 75.3064 108.696 75.3064 107.957V89.4051C75.3064 88.6662 75.5999 87.9576 76.1223 87.4352C76.6448 86.9127 77.3534 86.6192 78.0923 86.6192C78.4574 86.6192 78.8189 86.6914 79.156 86.8316C79.4931 86.9718 79.7992 87.1772 80.0566 87.4361C80.3141 87.695 80.5178 88.0023 80.6561 88.3402C80.7943 88.6781 80.8644 89.04 80.8624 89.4051V107.957Z" />
<path d="M63.5928 112.737C63.5928 113.474 63.3015 114.18 62.7825 114.702C62.2634 115.224 61.5589 115.519 60.8228 115.523C60.0839 115.523 59.3753 115.23 58.8528 114.707C58.3304 114.185 58.0368 113.476 58.0368 112.737V94.1858C58.0368 93.447 58.3304 92.7384 58.8528 92.2159C59.3753 91.6934 60.0839 91.3999 60.8228 91.3999C61.5589 91.4041 62.2634 91.6995 62.7825 92.2215C63.3015 92.7435 63.5928 93.4497 63.5928 94.1858V112.737Z" />
<mask id="path-2-inside-1_231_903" fill="white">
<path d="M65.7778 60.8889C65.7778 59.3565 65.1691 57.8869 64.0855 56.8034C63.002 55.7198 61.5324 55.1111 60 55.1111C58.4676 55.1111 56.998 55.7198 55.9145 56.8034C54.831 57.8869 54.2222 59.3565 54.2222 60.8889L55.9751 60.8889C55.9751 59.8214 56.3991 58.7976 57.1539 58.0428C57.9088 57.288 58.9325 56.8639 60 56.8639C61.0675 56.8639 62.0912 57.288 62.8461 58.0428C63.6009 58.7976 64.025 59.8214 64.025 60.8889H65.7778Z"/>
</mask>
<path d="M65.7778 60.8889C65.7778 59.3565 65.1691 57.8869 64.0855 56.8034C63.002 55.7198 61.5324 55.1111 60 55.1111C58.4676 55.1111 56.998 55.7198 55.9145 56.8034C54.831 57.8869 54.2222 59.3565 54.2222 60.8889L55.9751 60.8889C55.9751 59.8214 56.3991 58.7976 57.1539 58.0428C57.9088 57.288 58.9325 56.8639 60 56.8639C61.0675 56.8639 62.0912 57.288 62.8461 58.0428C63.6009 58.7976 64.025 59.8214 64.025 60.8889H65.7778Z"  stroke-width="2" mask="url(#path-2-inside-1_231_903)"/>
<mask id="path-3-inside-2_231_903" fill="white">
<path d="M39.1111 45.7778C39.1111 47.3101 39.7199 48.7797 40.8034 49.8633C41.8869 50.9468 43.3565 51.5556 44.8889 51.5556C46.4213 51.5556 47.8909 50.9468 48.9744 49.8633C50.058 48.7797 50.6667 47.3101 50.6667 45.7778L48.9139 45.7778C48.9139 46.8453 48.4898 47.869 47.735 48.6238C46.9802 49.3787 45.9564 49.8027 44.8889 49.8027C43.8214 49.8027 42.7977 49.3787 42.0428 48.6238C41.288 47.869 40.864 46.8453 40.864 45.7778L39.1111 45.7778Z"/>
</mask>
<path d="M39.1111 45.7778C39.1111 47.3101 39.7199 48.7797 40.8034 49.8633C41.8869 50.9468 43.3565 51.5556 44.8889 51.5556C46.4213 51.5556 47.8909 50.9468 48.9744 49.8633C50.058 48.7797 50.6667 47.3101 50.6667 45.7778L48.9139 45.7778C48.9139 46.8453 48.4898 47.869 47.735 48.6238C46.9802 49.3787 45.9564 49.8027 44.8889 49.8027C43.8214 49.8027 42.7977 49.3787 42.0428 48.6238C41.288 47.869 40.864 46.8453 40.864 45.7778L39.1111 45.7778Z"  stroke-width="2" mask="url(#path-3-inside-2_231_903)"/>
<mask id="path-4-inside-3_231_903" fill="white">
<path d="M69.3334 45.7778C69.3334 47.3101 69.9421 48.7797 71.0256 49.8633C72.1092 50.9468 73.5788 51.5556 75.1111 51.5556C76.6435 51.5556 78.1131 50.9468 79.1966 49.8633C80.2802 48.7797 80.8889 47.3101 80.8889 45.7778L79.1361 45.7778C79.1361 46.8453 78.712 47.869 77.9572 48.6238C77.2024 49.3787 76.1786 49.8027 75.1111 49.8027C74.0437 49.8027 73.0199 49.3787 72.2651 48.6238C71.5102 47.869 71.0862 46.8453 71.0862 45.7778L69.3334 45.7778Z"/>
</mask>
<path d="M69.3334 45.7778C69.3334 47.3101 69.9421 48.7797 71.0256 49.8633C72.1092 50.9468 73.5788 51.5556 75.1111 51.5556C76.6435 51.5556 78.1131 50.9468 79.1966 49.8633C80.2802 48.7797 80.8889 47.3101 80.8889 45.7778L79.1361 45.7778C79.1361 46.8453 78.712 47.869 77.9572 48.6238C77.2024 49.3787 76.1786 49.8027 75.1111 49.8027C74.0437 49.8027 73.0199 49.3787 72.2651 48.6238C71.5102 47.869 71.0862 46.8453 71.0862 45.7778L69.3334 45.7778Z"  stroke-width="2" mask="url(#path-4-inside-3_231_903)"/>
</svg>
