<svg width="48" height="48" viewBox="0 0 48 48" fill="none" xmlns="http://www.w3.org/2000/svg">
<mask id="path-1-inside-1_106_779" fill="white">
<path  d="M48 30.599C45.7454 31.2824 43.3535 31.6498 40.8758 31.6498C27.3307 31.6498 16.3503 20.6694 16.3503 7.12436C16.3503 4.64658 16.7178 2.25462 17.4011 0C7.33061 3.05227 0 12.4074 0 23.4746C0 37.0197 10.9804 48.0001 24.5254 48.0001C35.5926 48.0001 44.9477 40.6695 48 30.599Z"/>
</mask>
<path d="M48 30.599L51.3496 31.6142L53.2478 25.3512L46.9848 27.2495L48 30.599ZM17.4011 0L20.7507 1.01522L22.6489 -5.24778L16.3859 -3.34953L17.4011 0ZM46.9848 27.2495C45.0558 27.8341 43.0058 28.1498 40.8758 28.1498V35.1498C43.7012 35.1498 46.4351 34.7306 49.0152 33.9485L46.9848 27.2495ZM40.8758 28.1498C29.2637 28.1498 19.8503 18.7364 19.8503 7.12436H12.8503C12.8503 22.6024 25.3977 35.1498 40.8758 35.1498V28.1498ZM19.8503 7.12436C19.8503 4.9943 20.166 2.94428 20.7507 1.01522L14.0516 -1.01522C13.2696 1.56497 12.8503 4.29887 12.8503 7.12436H19.8503ZM3.5 23.4746C3.5 13.992 9.78026 5.96703 18.4163 3.34953L16.3859 -3.34953C4.88096 0.1375 -3.5 10.8228 -3.5 23.4746H3.5ZM24.5254 44.5001C12.9134 44.5001 3.5 35.0867 3.5 23.4746H-3.5C-3.5 38.9527 9.04741 51.5001 24.5254 51.5001V44.5001ZM44.6505 29.5838C42.033 38.2198 34.008 44.5001 24.5254 44.5001V51.5001C37.1773 51.5001 47.8625 43.1192 51.3496 31.6142L44.6505 29.5838Z" mask="url(#path-1-inside-1_106_779)"/>
</svg>
