<svg width="48" height="48" viewBox="0 0 48 48" fill="none" xmlns="http://www.w3.org/2000/svg">
<path  d="M37.4976 6.29401C37.0028 6.29528 36.5088 6.33343 36.0192 6.40817C34.6381 4.42272 32.8296 2.80749 30.741 1.69394C28.6524 0.580393 26.3428 0 24 0C21.6572 0 19.3476 0.580393 17.259 1.69394C15.1704 2.80749 13.3619 4.42272 11.9808 6.40817C11.4912 6.33318 10.9972 6.29503 10.5024 6.29401C7.71699 6.29401 5.04566 7.45495 3.07608 9.52142C1.1065 11.5879 0 14.3906 0 17.3131C0 20.2355 1.1065 23.0383 3.07608 25.1047C5.04566 27.1712 7.71699 28.3321 10.5024 28.3321C11.7738 28.3326 13.0344 28.0867 14.2208 27.6069C16.9246 30.0994 20.4008 31.4741 24 31.4741C27.5992 31.4741 31.0754 30.0994 33.7792 27.6069C34.9656 28.0867 36.2262 28.3326 37.4976 28.3321C40.283 28.3321 42.9543 27.1712 44.9239 25.1047C46.8935 23.0383 48 20.2355 48 17.3131C48 14.3906 46.8935 11.5879 44.9239 9.52142C42.9543 7.45495 40.283 6.29401 37.4976 6.29401ZM37.4976 25.1829C35.9544 25.1788 34.45 24.6746 33.1904 23.7392C32.0809 25.1743 30.6801 26.3315 29.0902 27.1263C27.5002 27.9212 25.7612 28.3336 24 28.3336C22.2388 28.3336 20.4998 27.9212 18.9098 27.1263C17.3199 26.3315 15.9191 25.1743 14.8096 23.7392C13.7448 24.5254 12.5031 25.007 11.2068 25.1365C9.91063 25.266 8.60462 25.0389 7.41751 24.4776C6.23039 23.9163 5.20313 23.0403 4.43695 21.9357C3.67076 20.8311 3.19209 19.5361 3.04809 18.1784C2.90409 16.8206 3.09973 15.4469 3.61574 14.1927C4.13176 12.9384 4.95033 11.8468 5.99081 11.0255C7.03129 10.2041 8.25778 9.68138 9.54942 9.50874C10.8411 9.3361 12.1533 9.51951 13.3568 10.0409C14.348 7.97057 15.8682 6.2301 17.7476 5.01388C19.6271 3.79766 21.7918 3.15359 24 3.15359C26.2082 3.15359 28.3729 3.79766 30.2524 5.01388C32.1318 6.2301 33.652 7.97057 34.6432 10.0409C35.6684 9.59595 36.775 9.39516 37.8831 9.45301C38.9912 9.51087 40.0733 9.82591 41.0513 10.3755C42.0294 10.925 42.8791 11.6953 43.5392 12.631C44.1993 13.5666 44.6533 14.6442 44.8686 15.7862C45.0838 16.9281 45.055 18.1059 44.7841 19.2347C44.5131 20.3636 44.0069 21.4153 43.3019 22.3141C42.5968 23.2129 41.7105 23.9364 40.7069 24.4325C39.7032 24.9286 38.6071 25.1848 37.4976 25.1829Z" />
<path  d="M20.9984 44.8507C20.9984 45.686 21.3146 46.487 21.8775 47.0776C22.4404 47.6682 23.2039 48 24 48C24.796 48 25.5595 47.6682 26.1224 47.0776C26.6853 46.487 27.0016 45.686 27.0016 44.8507C27.0016 43.1116 24 38.5589 24 38.5589C24 38.5589 20.9984 43.1116 20.9984 44.8507Z" />
<path  d="M2.82878 36.1952C2.82878 37.0305 3.14501 37.8315 3.70792 38.4221C4.27083 39.0127 5.0343 39.3445 5.83038 39.3445C6.62645 39.3445 7.38992 39.0127 7.95283 38.4221C8.51574 37.8315 8.83198 37.0305 8.83198 36.1952C8.83198 34.4561 5.83038 29.9034 5.83038 29.9034C5.83038 29.9034 2.82878 34.4561 2.82878 36.1952Z" />
<path  d="M39.1679 36.1952C39.1492 36.6206 39.2129 37.0455 39.3551 37.4443C39.4973 37.8431 39.7152 38.2075 39.9954 38.5155C40.2757 38.8234 40.6126 39.0686 40.9857 39.236C41.3588 39.4035 41.7605 39.4899 42.1663 39.4899C42.5722 39.4899 42.9738 39.4035 43.3469 39.236C43.7201 39.0686 44.0569 38.8234 44.3372 38.5155C44.6175 38.2075 44.8353 37.8431 44.9776 37.4443C45.1198 37.0455 45.1834 36.6206 45.1647 36.1952C45.1647 34.4561 42.1695 29.9034 42.1695 29.9034C42.1695 29.9034 39.1679 34.4561 39.1679 36.1952Z" />
<path  d="M27.0527 37.773C27.0527 38.6082 27.369 39.4093 27.9319 39.9999C28.4948 40.5905 29.2583 40.9223 30.0543 40.9223C30.8504 40.9223 31.6139 40.5905 32.1768 39.9999C32.7397 39.4093 33.0559 38.6082 33.0559 37.773C33.0559 36.0339 30.0543 31.4745 30.0543 31.4745C30.0543 31.4745 27.0527 36.0339 27.0527 37.773Z" />
<path  d="M14.944 37.773C14.9252 38.1984 14.9889 38.6233 15.1311 39.0221C15.2734 39.4209 15.4912 39.7853 15.7715 40.0932C16.0517 40.4012 16.3886 40.6463 16.7618 40.8138C17.1349 40.9813 17.5365 41.0676 17.9424 41.0676C18.3482 41.0676 18.7498 40.9813 19.123 40.8138C19.4961 40.6463 19.833 40.4012 20.1132 40.0932C20.3935 39.7853 20.6114 39.4209 20.7536 39.0221C20.8958 38.6233 20.9595 38.1984 20.9408 37.773C20.9408 36.0339 17.9456 31.4745 17.9456 31.4745C17.9456 31.4745 14.944 36.0339 14.944 37.773Z" />
<path  d="M33.1136 44.0649C33.0948 44.4902 33.1585 44.9151 33.3007 45.3139C33.443 45.7127 33.6608 46.0771 33.9411 46.3851C34.2213 46.6931 34.5582 46.9382 34.9314 47.1057C35.3045 47.2732 35.7061 47.3595 36.112 47.3595C36.5178 47.3595 36.9194 47.2732 37.2926 47.1057C37.6657 46.9382 38.0026 46.6931 38.2828 46.3851C38.5631 46.0771 38.7809 45.7127 38.9232 45.3139C39.0654 44.9151 39.1291 44.4902 39.1104 44.0649C39.1104 42.3257 36.1088 37.7731 36.1088 37.7731C36.1088 37.7731 33.1136 42.3257 33.1136 44.0649Z" />
<path  d="M8.88959 44.0649C8.87086 44.4902 8.93453 44.9151 9.07676 45.3139C9.219 45.7127 9.43683 46.0771 9.7171 46.3851C9.99738 46.6931 10.3343 46.9382 10.7074 47.1057C11.0805 47.2732 11.4822 47.3595 11.888 47.3595C12.2938 47.3595 12.6955 47.2732 13.0686 47.1057C13.4417 46.9382 13.7786 46.6931 14.0589 46.3851C14.3392 46.0771 14.557 45.7127 14.6992 45.3139C14.8415 44.9151 14.9051 44.4902 14.8864 44.0649C14.8864 42.3257 11.8848 37.7731 11.8848 37.7731C11.8848 37.7731 8.88959 42.3257 8.88959 44.0649Z" />
</svg>
