<svg  version="1.1" xmlns="http://www.w3.org/2000/svg" width="24" height="24" viewBox="0, 0, 400,400" fill="none">
    <path d="M35.200 85.600 C 32.354 88.446,33.089 94.060,36.547 95.880 C 40.190 97.798,358.071 97.129,360.000 95.200 C 362.337 92.863,362.231 86.932,359.822 85.245 C 356.665 83.034,37.417 83.383,35.200 85.600 M281.407 162.738 C 261.097 169.987,268.717 199.633,290.067 196.432 C 292.207 196.111,294.946 194.878,296.998 193.313 C 312.762 181.290,299.931 156.127,281.407 162.738 M336.171 163.071 C 316.221 170.161,307.364 196.377,317.559 218.163 C 329.981 244.709,373.643 241.315,378.822 213.400 L 379.378 210.400 371.700 210.400 L 364.021 210.400 362.768 213.400 C 357.517 225.971,338.596 226.066,332.204 213.553 C 326.704 202.785,328.558 186.683,336.130 179.449 C 344.676 171.284,359.667 174.495,363.216 185.250 L 364.124 188.000 371.767 188.000 L 379.409 188.000 378.926 185.020 C 376.114 167.691,354.456 156.573,336.171 163.071 M179.581 163.136 C 157.541 166.675,141.303 180.314,139.365 196.918 C 137.361 214.078,145.703 228.043,161.088 233.286 C 165.957 234.945,165.800 235.269,159.085 237.417 C 138.184 244.104,127.590 267.502,136.761 286.718 C 153.555 321.906,226.565 322.147,243.529 287.070 C 252.805 267.887,242.093 243.738,221.410 237.206 C 219.095 236.474,216.660 235.692,216.000 235.468 C 215.309 235.232,216.858 234.306,219.657 233.282 C 244.864 224.059,249.263 190.669,227.465 174.021 C 215.857 165.155,195.636 160.558,179.581 163.136 M53.000 176.070 L 35.200 187.340 35.200 200.898 C 35.200 214.049,35.246 214.431,36.745 213.629 C 37.595 213.174,45.128 208.514,53.484 203.273 C 61.840 198.032,68.885 193.951,69.138 194.205 C 69.392 194.459,69.600 220.887,69.600 252.933 L 69.600 311.200 84.800 311.200 L 100.000 311.200 100.000 238.000 L 100.000 164.800 85.400 164.800 L 70.800 164.800 53.000 176.070 M292.062 174.338 C 298.751 181.027,289.056 190.672,281.863 184.485 C 280.083 182.954,279.636 181.894,279.636 179.200 C 279.636 172.479,287.231 169.508,292.062 174.338 M197.502 186.845 C 205.867 189.329,211.150 196.435,211.182 205.243 C 211.272 230.065,171.984 232.038,169.071 207.357 C 167.345 192.734,181.921 182.218,197.502 186.845 M200.327 249.323 C 209.407 252.305,216.159 262.816,214.803 271.859 C 210.900 297.889,165.708 296.181,165.622 270.000 C 165.567 253.238,182.154 243.356,200.327 249.323 " />
</svg>