<svg width="48" height="48" viewBox="0 0 48 48" fill="none" xmlns="http://www.w3.org/2000/svg">
<path d="M37.2955 14.967C36.8034 14.9682 36.312 15.0044 35.825 15.0753C34.4512 13.193 32.6523 11.6616 30.5748 10.6059C28.4974 9.55024 26.2 9 23.8696 9C21.5393 9 19.2419 9.55024 17.1644 10.6059C15.0869 11.6616 13.2881 13.193 11.9143 15.0753C10.3374 14.8504 8.72998 14.9893 7.21505 15.4813C5.70013 15.9734 4.31787 16.8055 3.17411 17.9141C2.03035 19.0227 1.15541 20.3783 0.616262 21.8771C0.0771159 23.3759 -0.111937 24.9782 0.0635766 26.5613C0.23909 28.1445 0.774516 29.6664 1.62887 31.0108C2.48322 32.3551 3.63384 33.4861 4.99264 34.3172C6.35144 35.1483 7.88241 35.6575 9.46832 35.8058C11.0542 35.9541 12.6531 35.7375 14.1424 35.1727C16.8302 37.5366 20.2871 38.8404 23.8664 38.8404C27.4458 38.8404 30.9027 37.5366 33.5905 35.1727C34.7733 35.6249 36.0292 35.8558 37.2955 35.8539C38.6887 35.8883 40.0746 35.6436 41.3718 35.1342C42.6689 34.6249 43.851 33.8611 44.8485 32.8879C45.846 31.9148 46.6387 30.7519 47.1799 29.4677C47.7212 28.1835 48 26.804 48 25.4105C48 24.0169 47.7212 22.6374 47.1799 21.3532C46.6387 20.0691 45.846 18.9061 44.8485 17.933C43.851 16.9598 42.6689 16.1961 41.3718 15.6867C40.0746 15.1773 38.6887 14.9326 37.2955 14.967ZM37.2955 32.8746C35.7603 32.872 34.2636 32.3939 33.0112 31.5059C31.9063 32.8644 30.5125 33.9596 28.9312 34.7118C27.3498 35.4639 25.6207 35.8542 23.8696 35.8542C22.1185 35.8542 20.3894 35.4639 18.8081 34.7118C17.2268 33.9596 15.833 32.8644 14.7281 31.5059C13.7696 32.1797 12.6658 32.618 11.5062 32.7854C10.3466 32.9528 9.16389 32.8445 8.05399 32.4693C6.94409 32.0941 5.93824 31.4626 5.11804 30.626C4.29783 29.7894 3.68636 28.7713 3.33323 27.6542C2.9801 26.5371 2.89525 25.3524 3.08556 24.1964C3.27587 23.0404 3.73598 21.9454 4.42857 21.0005C5.12116 20.0555 6.02673 19.2871 7.07184 18.7576C8.11694 18.228 9.27213 17.9523 10.4437 17.9527C11.4162 17.9524 12.3791 18.1449 13.2766 18.5193C14.2619 16.5548 15.7741 14.9032 17.6443 13.7489C19.5144 12.5947 21.6688 11.9834 23.8664 11.9834C26.0641 11.9834 28.2185 12.5947 30.0886 13.7489C31.9588 14.9032 33.471 16.5548 34.4563 18.5193C35.4761 18.0974 36.5767 17.9071 37.679 17.9619C38.7812 18.0168 39.8575 18.3154 40.8304 18.8364C41.8033 19.3574 42.6484 20.0877 43.305 20.9748C43.9616 21.8618 44.4132 22.8834 44.6273 23.966C44.8415 25.0487 44.8128 26.1653 44.5433 27.2355C44.2738 28.3057 43.7703 29.3027 43.069 30.1548C42.3677 31.007 41.4861 31.6929 40.4877 32.1632C39.4894 32.6335 38.3991 32.8765 37.2955 32.8746Z"/>
</svg>
