<svg width="48" height="48" viewBox="0 0 48 48" fill="none" xmlns="http://www.w3.org/2000/svg">
<path  d="M20.6608 44.9895C20.6608 45.7879 20.978 46.5536 21.5426 47.1182C22.1072 47.6828 22.8729 48 23.6714 48C24.4698 48 25.2355 47.6828 25.8001 47.1182C26.3647 46.5536 26.6819 45.7879 26.6819 44.9895C26.6819 43.3216 23.6714 38.9684 23.6714 38.9684C23.6714 38.9684 20.6608 43.3216 20.6608 44.9895Z" />
<path d="M19.4385 5.64175C19.6235 5.64175 19.8067 5.60531 19.9776 5.5345C20.1486 5.4637 20.3039 5.35992 20.4347 5.22909C20.5656 5.09825 20.6693 4.94294 20.7402 4.772C20.811 4.60106 20.8474 4.41784 20.8474 4.23282V1.40893C20.8474 1.03526 20.699 0.676893 20.4347 0.412667C20.1705 0.148441 19.8121 0 19.4385 0C19.0648 0 18.7064 0.148441 18.4422 0.412667C18.178 0.676893 18.0295 1.03526 18.0295 1.40893V4.23282C18.0295 4.60649 18.178 4.96486 18.4422 5.22909C18.7064 5.49331 19.0648 5.64175 19.4385 5.64175Z" />
<path d="M30.4271 9.36271L32.4081 7.37576C32.6739 7.11307 32.8246 6.75552 32.8268 6.38176C32.8291 6.00801 32.6828 5.64866 32.4201 5.38278C32.29 5.25113 32.1353 5.14639 31.9648 5.07453C31.7942 5.00268 31.6112 4.96512 31.4261 4.964C31.0523 4.96174 30.693 5.10805 30.4271 5.37074L28.4221 7.37576C28.1586 7.64164 28.0115 8.0013 28.0132 8.37562C28.0149 8.74994 28.1653 9.10826 28.4311 9.37175C28.697 9.63523 29.0567 9.78231 29.431 9.78061C29.8053 9.77892 30.1636 9.6286 30.4271 9.36271Z" />
<path d="M2.50721 19.7551H5.32507C5.51825 19.7677 5.71195 19.7405 5.89421 19.6753C6.07647 19.61 6.24341 19.5081 6.38468 19.3757C6.52596 19.2434 6.63858 19.0835 6.71557 18.9058C6.79256 18.7282 6.83228 18.5367 6.83228 18.3431C6.83228 18.1495 6.79256 17.958 6.71557 17.7804C6.63858 17.6028 6.52596 17.4428 6.38468 17.3105C6.24341 17.1781 6.07647 17.0762 5.89421 17.011C5.71195 16.9457 5.51825 16.9186 5.32507 16.9312H2.50721C2.31403 16.9186 2.12032 16.9457 1.93807 17.011C1.75581 17.0762 1.58887 17.1781 1.4476 17.3105C1.30632 17.4428 1.1937 17.6028 1.11671 17.7804C1.03972 17.958 1 18.1495 1 18.3431C1 18.5367 1.03972 18.7282 1.11671 18.9058C1.1937 19.0835 1.30632 19.2434 1.4476 19.3757C1.58887 19.5081 1.75581 19.61 1.93807 19.6753C2.12032 19.7405 2.31403 19.7677 2.50721 19.7551Z" />
<path d="M32.1372 18.3462C32.1387 18.7204 32.2885 19.0788 32.5537 19.3428C32.8189 19.6069 33.1779 19.7551 33.5521 19.7551H36.376C36.7345 19.7317 37.0707 19.5727 37.3164 19.3105C37.562 19.0483 37.6987 18.7025 37.6987 18.3432C37.6987 17.9839 37.562 17.638 37.3164 17.3758C37.0707 17.1136 36.7345 16.9547 36.376 16.9312H33.5521C33.1768 16.9312 32.8169 17.0803 32.5516 17.3457C32.2862 17.611 32.1372 17.9709 32.1372 18.3462Z" />
<path d="M8.46219 9.36273C8.72992 9.60533 9.08063 9.73581 9.44184 9.72719C9.80304 9.71858 10.1471 9.57153 10.403 9.31643C10.6589 9.06134 10.807 8.7177 10.8167 8.35652C10.8264 7.99535 10.697 7.64424 10.4552 7.37577L8.46219 5.37677C8.33093 5.24591 8.17518 5.14218 8.00384 5.07151C7.8325 5.00084 7.64891 4.96461 7.46357 4.96489C7.27822 4.96517 7.09475 5.00196 6.92362 5.07314C6.75249 5.14433 6.59706 5.24853 6.4662 5.37978C6.33534 5.51104 6.23161 5.66678 6.16094 5.83813C6.09027 6.00947 6.05404 6.19306 6.05432 6.3784C6.0546 6.56375 6.09138 6.74722 6.16257 6.91835C6.23376 7.08948 6.33795 7.24491 6.46921 7.37577L8.46219 9.36273Z" />
<path d="M36.3758 22.5791C35.9105 22.5777 35.4457 22.6099 34.985 22.6754C33.5214 20.6872 31.5585 19.1211 29.295 18.1355C29.2812 16.8395 29.0122 15.559 28.5035 14.367C27.9948 13.175 27.2563 12.0948 26.3301 11.1882C24.4596 9.35728 21.9384 8.34437 19.3211 8.37231C18.0252 8.38615 16.7446 8.65511 15.5526 9.16383C14.3606 9.67256 13.2804 10.4111 12.3739 11.3373C10.5429 13.2077 9.52998 15.7289 9.55793 18.3462C9.5607 19.8269 9.90261 21.2872 10.5574 22.6152C7.96769 22.7044 5.51712 23.8093 3.73551 25.691C1.9539 27.5726 0.9844 30.0798 1.03661 32.6706C1.08882 35.2613 2.15855 37.7274 4.01452 39.5358C5.87049 41.3441 8.36359 42.3494 10.9548 42.3342C12.1582 42.3406 13.3525 42.1242 14.4771 41.696C15.5429 42.6293 15.4646 42.8039 16.7351 43.3698L17.9995 41.2384C18.001 41.0889 18.0151 40.9399 18.0416 40.7928C16.8977 40.1178 15.8792 39.25 15.0311 38.2278C13.8482 39.0709 12.4315 39.5235 10.9789 39.5224C9.10735 39.5224 7.31245 38.7789 5.98906 37.4555C4.66567 36.1321 3.92219 34.3372 3.92219 32.4657C3.92219 30.5941 4.66567 28.7992 5.98906 27.4758C7.31245 26.1524 9.10735 25.409 10.9789 25.409C11.6408 25.42 12.2977 25.5255 12.9297 25.7221C13.1783 25.7836 13.4235 25.8579 13.6643 25.9448C14.0571 25.1977 14.5294 24.4951 15.0732 23.8495C16.1168 22.5757 17.4296 21.5489 18.9173 20.8431C20.405 20.1372 22.0307 19.7698 23.6774 19.7672C24.5482 19.7733 25.4152 19.8824 26.2604 20.0923C27.1775 20.3087 28.0622 20.6448 28.8916 21.0918C30.9568 22.1775 32.6383 23.8716 33.7085 25.9448C34.8427 25.4716 36.0808 25.3025 37.3004 25.4544C38.52 25.6062 39.6788 26.0736 40.6624 26.8104C41.646 27.5472 42.4203 28.528 42.9088 29.6557C43.3973 30.7835 43.5831 32.0192 43.4478 33.2407C43.3125 34.4622 42.8607 35.6273 42.1372 36.6207C41.4137 37.6142 40.4435 38.4017 39.3225 38.9054C38.2015 39.409 36.9684 39.6115 35.7452 39.4926C34.5219 39.3738 33.3509 38.9379 32.3477 38.2278C31.4096 39.3573 30.2628 40.2956 28.9699 40.9915C28.9858 41.073 28.9959 41.1555 29 41.2384L30.3788 43.5023C31.7938 42.9002 31.7035 42.7015 32.8715 41.696C33.9898 42.1261 35.1777 42.3466 36.3758 42.3463C38.9533 42.2826 41.4038 41.214 43.2043 39.3685C45.0047 37.5231 46.0125 35.0469 46.0125 32.4687C46.0125 29.8904 45.0047 27.4143 43.2043 25.5688C41.4038 23.7233 38.9533 22.6547 36.3758 22.5911V22.5791ZM23.6713 16.9313C21.6988 16.9316 19.7489 17.3504 17.9502 18.1599C16.1515 18.9695 14.545 20.1514 13.2368 21.6277C12.676 20.6241 12.3759 19.4958 12.3638 18.3462C12.3634 16.5754 13.0299 14.8693 14.2307 13.5678C15.4315 12.2663 17.0785 11.4647 18.8436 11.3227C20.6088 11.1808 22.3627 11.7088 23.7561 12.8017C25.1494 13.8946 26.0801 15.4721 26.3628 17.2203C25.4776 17.0339 24.5759 16.9371 23.6713 16.9313Z" />
</svg>
