<svg width="49" height="49" viewBox="0 0 49 49" fill="none" xmlns="http://www.w3.org/2000/svg">
<path d="M19.8742 6.50069C20.0702 6.50069 20.2642 6.46176 20.4452 6.38613C20.6262 6.3105 20.7905 6.19966 20.9288 6.05998C21.0671 5.92029 21.1766 5.75451 21.251 5.57215C21.3254 5.38979 21.3633 5.19444 21.3624 4.99732V1.99697C21.3624 1.59995 21.2056 1.21919 20.9265 0.938454C20.6474 0.657717 20.2689 0.5 19.8742 0.5C19.4795 0.5 19.1009 0.657717 18.8218 0.938454C18.5427 1.21919 18.3859 1.59995 18.3859 1.99697V4.99732C18.3851 5.19444 18.423 5.38979 18.4974 5.57215C18.5718 5.75451 18.6813 5.92029 18.8196 6.05998C18.9578 6.19966 19.1222 6.3105 19.3032 6.38613C19.4842 6.46176 19.6782 6.50069 19.8742 6.50069Z" />
<path d="M31.4495 10.4479L33.5546 8.33034C33.6933 8.1913 33.8034 8.02616 33.8785 7.84434C33.9537 7.66251 33.9926 7.46757 33.9929 7.27065C33.9932 7.07372 33.9549 6.87866 33.8803 6.69661C33.8056 6.51456 33.6961 6.34909 33.5578 6.20963C33.4196 6.07017 33.2554 5.95946 33.0746 5.88383C32.8939 5.80819 32.7001 5.76911 32.5043 5.76881C32.3085 5.76852 32.1146 5.80701 31.9336 5.8821C31.7526 5.95718 31.5881 6.06739 31.4495 6.20643L29.3379 8.33034C29.0588 8.61199 28.9023 8.99365 28.9029 9.39136C28.9035 9.78907 29.0611 10.1703 29.3411 10.4511C29.6211 10.7319 30.0005 10.8893 30.3959 10.8887C30.7913 10.8881 31.1703 10.7295 31.4495 10.4479Z" />
<path d="M1.97055 21.4896H4.94706C5.34177 21.4896 5.72032 21.3319 5.99942 21.0512C6.27852 20.7704 6.43532 20.3897 6.43532 19.9927C6.43532 19.5956 6.27852 19.2149 5.99942 18.9341C5.72032 18.6534 5.34177 18.4957 4.94706 18.4957H1.97055C1.57584 18.4957 1.1973 18.6534 0.918195 18.9341C0.639093 19.2149 0.482295 19.5956 0.482295 19.9927C0.482295 20.3897 0.639093 20.7704 0.918195 21.0512C1.1973 21.3319 1.57584 21.4896 1.97055 21.4896Z" />
<path d="M33.2685 20.0119C33.2702 20.4095 33.4284 20.7902 33.7085 21.0708C33.9886 21.3513 34.3678 21.5089 34.7631 21.5089H37.7396C38.1343 21.5089 38.5129 21.3511 38.792 21.0704C39.0711 20.7897 39.2279 20.4089 39.2279 20.0119C39.2279 19.6149 39.0711 19.2341 38.792 18.9534C38.5129 18.6726 38.1343 18.5149 37.7396 18.5149H34.7631C34.5671 18.5141 34.3729 18.5522 34.1916 18.627C34.0103 18.7019 33.8455 18.812 33.7066 18.9511C33.5678 19.0902 33.4576 19.2555 33.3824 19.4375C33.3072 19.6196 33.2685 19.8148 33.2685 20.0119Z" />
<path d="M8.26062 10.4478C8.53979 10.7286 8.91842 10.8864 9.31322 10.8864C9.70801 10.8864 10.0866 10.7286 10.3658 10.4478C10.645 10.167 10.8018 9.78616 10.8018 9.38905C10.8018 8.99194 10.645 8.61109 10.3658 8.33029L8.26062 6.20638C8.12442 6.05638 7.9594 5.93571 7.77553 5.85164C7.59167 5.76757 7.39278 5.72186 7.19086 5.71727C6.98894 5.71267 6.7882 5.74929 6.60074 5.8249C6.41328 5.90051 6.24301 6.01356 6.10019 6.15721C5.95738 6.30086 5.84499 6.47213 5.76982 6.66069C5.69464 6.84924 5.65824 7.05117 5.66281 7.25426C5.66738 7.45736 5.71283 7.65742 5.7964 7.84236C5.87998 8.02731 5.99995 8.19329 6.14908 8.33029L8.26062 10.4478Z" />
<path d="M37.7396 24.49C37.2478 24.4881 36.7566 24.5245 36.2704 24.5988C34.7272 22.4847 32.656 20.8184 30.2665 19.7688C30.2345 16.9879 29.1055 14.3338 27.1279 12.3902C25.1503 10.4466 22.4862 9.37287 19.7215 9.40511C16.9568 9.43734 14.3182 10.573 12.3859 12.5621C10.4537 14.5513 9.38614 17.231 9.41819 20.0119C9.42706 21.5865 9.79476 23.1382 10.493 24.5476C7.7575 24.6424 5.16896 25.8163 3.28705 27.8156C1.40513 29.8148 0.381049 32.4787 0.436199 35.2313C0.491349 37.984 1.6213 40.6042 3.58176 42.5255C5.54223 44.4468 8.17569 45.5149 10.9128 45.4988C12.1779 45.5007 13.4326 45.2687 14.6144 44.8143C17.2997 47.1898 20.7533 48.5 24.3294 48.5C27.9054 48.5 31.3591 47.1898 34.0444 44.8143C35.2239 45.2688 36.4765 45.5008 37.7396 45.4988C39.1314 45.5334 40.5161 45.2875 41.812 44.7756C43.108 44.2637 44.289 43.4962 45.2855 42.5183C46.2821 41.5403 47.0741 40.3717 47.6148 39.0812C48.1555 37.7907 48.4341 36.4044 48.4341 35.004C48.4341 33.6036 48.1555 32.2173 47.6148 30.9268C47.0741 29.6363 46.2821 28.4677 45.2855 27.4897C44.289 26.5118 43.108 25.7443 41.812 25.2324C40.5161 24.7205 39.1314 24.4746 37.7396 24.5092V24.49ZM19.8741 12.495C21.6383 12.5017 23.3426 13.1392 24.6825 14.2936C26.0224 15.448 26.9106 17.044 27.1882 18.7964C24.6675 18.2745 22.0543 18.4335 19.6144 19.2571C17.1746 20.0808 14.9952 21.5397 13.2978 23.4856C12.7208 22.4189 12.4129 21.2262 12.4011 20.0119C12.3985 19.024 12.5901 18.0454 12.9648 17.1323C13.3395 16.2192 13.8898 15.3895 14.5843 14.691C15.2787 13.9925 16.1035 13.4389 17.0113 13.062C17.9192 12.6852 18.8921 12.4925 19.8741 12.495ZM37.7396 42.4857C36.2072 42.4868 34.712 42.0108 33.4593 41.123C32.3547 42.4883 30.9617 43.5889 29.3813 44.3448C27.8009 45.1007 26.073 45.4929 24.323 45.4929C22.5731 45.4929 20.8451 45.1007 19.2647 44.3448C17.6844 43.5889 16.2913 42.4883 15.1868 41.123C14.229 41.8003 13.1259 42.2408 11.9671 42.4089C10.8083 42.5771 9.62647 42.468 8.51743 42.0907C7.40838 41.7133 6.40341 41.0783 5.58405 40.2371C4.76469 39.3959 4.15403 38.3723 3.80162 37.2493C3.44921 36.1263 3.36499 34.9355 3.55578 33.7736C3.74657 32.6117 4.207 31.5114 4.89971 30.5621C5.59242 29.6127 6.4979 28.8409 7.54266 28.3094C8.58742 27.778 9.74203 27.5017 10.9128 27.5031C11.6122 27.5122 12.3064 27.6243 12.9735 27.8358C13.2368 27.8982 13.496 27.9773 13.7494 28.0725C14.7584 26.1179 16.2742 24.4742 18.1361 23.3153C19.9981 22.1565 22.1369 21.5257 24.3262 21.4897C25.2463 21.4986 26.1621 21.6167 27.0547 21.8415C28.0228 22.0704 28.9571 22.4253 29.834 22.8971C32.0171 24.0512 33.7937 25.8539 34.9221 28.0597C35.9409 27.6358 37.0405 27.4445 38.1417 27.4996C39.2429 27.5547 40.3183 27.8549 41.2902 28.3784C42.2622 28.902 43.1066 29.6359 43.7626 30.5273C44.4185 31.4187 44.8697 32.4454 45.0836 33.5333C45.2976 34.6212 45.2689 35.7434 44.9997 36.8188C44.7304 37.8943 44.2274 38.8962 43.5267 39.7525C42.8261 40.6088 41.9453 41.2982 40.9479 41.7708C39.9505 42.2434 38.8612 42.4876 37.7587 42.4857H37.7396Z" />
</svg>
